solid OpenSCAD_Model
  facet normal -1.000000 -0.000000 -0.000000
    outer loop
      vertex 5.000000 -8.000000 0.000000
      vertex 5.000000 -8.000000 2.500000
      vertex 5.000000 8.000000 0.000000
    endloop
  endfacet
  facet normal -1.000000 0.000000 0.000000
    outer loop
      vertex 5.000000 8.000000 0.000000
      vertex 5.000000 -8.000000 2.500000
      vertex 5.000000 8.000000 2.500000
    endloop
  endfacet
  facet normal 0.000000 -1.000000 0.000000
    outer loop
      vertex 5.000000 -8.000000 2.500000
      vertex 5.000000 -8.000000 0.000000
      vertex 21.000000 -8.000000 0.000000
    endloop
  endfacet
  facet normal 0.000000 -1.000000 0.000000
    outer loop
      vertex 21.000000 -8.000000 2.500000
      vertex 5.000000 -8.000000 2.500000
      vertex 21.000000 -8.000000 0.000000
    endloop
  endfacet
  facet normal -0.000000 -0.000000 -1.000000
    outer loop
      vertex 5.000000 -8.000000 0.000000
      vertex 5.000000 8.000000 0.000000
      vertex 21.000000 -8.000000 0.000000
    endloop
  endfacet
  facet normal 0.000000 0.000000 -1.000000
    outer loop
      vertex 21.000000 -8.000000 0.000000
      vertex 5.000000 8.000000 0.000000
      vertex 21.000000 8.000000 0.000000
    endloop
  endfacet
  facet normal 0.000000 1.000000 0.000000
    outer loop
      vertex 5.000000 8.000000 0.000000
      vertex 5.000000 8.000000 2.500000
      vertex 21.000000 8.000000 0.000000
    endloop
  endfacet
  facet normal 0.000000 1.000000 0.000000
    outer loop
      vertex 21.000000 8.000000 0.000000
      vertex 5.000000 8.000000 2.500000
      vertex 21.000000 8.000000 2.500000
    endloop
  endfacet
  facet normal 0.000000 -0.000000 1.000000
    outer loop
      vertex 5.000000 8.000000 2.500000
      vertex 5.000000 -8.000000 2.500000
      vertex 21.000000 -8.000000 2.500000
    endloop
  endfacet
  facet normal 0.000000 0.000000 1.000000
    outer loop
      vertex 21.000000 8.000000 2.500000
      vertex 5.000000 8.000000 2.500000
      vertex 21.000000 -8.000000 2.500000
    endloop
  endfacet
  facet normal 1.000000 0.000000 -0.000000
    outer loop
      vertex 21.000000 -8.000000 2.500000
      vertex 21.000000 -8.000000 0.000000
      vertex 21.000000 8.000000 0.000000
    endloop
  endfacet
  facet normal 1.000000 0.000000 0.000000
    outer loop
      vertex 21.000000 8.000000 2.500000
      vertex 21.000000 -8.000000 2.500000
      vertex 21.000000 8.000000 0.000000
    endloop
  endfacet
  facet normal -1.000000 -0.000000 -0.000000
    outer loop
      vertex -21.000000 -8.000000 0.000000
      vertex -21.000000 -8.000000 2.500000
      vertex -21.000000 8.000000 0.000000
    endloop
  endfacet
  facet normal -1.000000 0.000000 0.000000
    outer loop
      vertex -21.000000 8.000000 0.000000
      vertex -21.000000 -8.000000 2.500000
      vertex -21.000000 8.000000 2.500000
    endloop
  endfacet
  facet normal 0.000000 -1.000000 0.000000
    outer loop
      vertex -21.000000 -8.000000 2.500000
      vertex -21.000000 -8.000000 0.000000
      vertex -5.000000 -8.000000 0.000000
    endloop
  endfacet
  facet normal 0.000000 -1.000000 0.000000
    outer loop
      vertex -5.000000 -8.000000 2.500000
      vertex -21.000000 -8.000000 2.500000
      vertex -5.000000 -8.000000 0.000000
    endloop
  endfacet
  facet normal -0.000000 -0.000000 -1.000000
    outer loop
      vertex -21.000000 -8.000000 0.000000
      vertex -21.000000 8.000000 0.000000
      vertex -5.000000 -8.000000 0.000000
    endloop
  endfacet
  facet normal 0.000000 0.000000 -1.000000
    outer loop
      vertex -5.000000 -8.000000 0.000000
      vertex -21.000000 8.000000 0.000000
      vertex -5.000000 8.000000 0.000000
    endloop
  endfacet
  facet normal 0.000000 1.000000 0.000000
    outer loop
      vertex -21.000000 8.000000 0.000000
      vertex -21.000000 8.000000 2.500000
      vertex -5.000000 8.000000 0.000000
    endloop
  endfacet
  facet normal 0.000000 1.000000 0.000000
    outer loop
      vertex -5.000000 8.000000 0.000000
      vertex -21.000000 8.000000 2.500000
      vertex -5.000000 8.000000 2.500000
    endloop
  endfacet
  facet normal 0.000000 -0.000000 1.000000
    outer loop
      vertex -21.000000 8.000000 2.500000
      vertex -21.000000 -8.000000 2.500000
      vertex -5.000000 -8.000000 2.500000
    endloop
  endfacet
  facet normal 0.000000 0.000000 1.000000
    outer loop
      vertex -5.000000 8.000000 2.500000
      vertex -21.000000 8.000000 2.500000
      vertex -5.000000 -8.000000 2.500000
    endloop
  endfacet
  facet normal 1.000000 0.000000 -0.000000
    outer loop
      vertex -5.000000 -8.000000 2.500000
      vertex -5.000000 -8.000000 0.000000
      vertex -5.000000 8.000000 0.000000
    endloop
  endfacet
  facet normal 1.000000 0.000000 0.000000
    outer loop
      vertex -5.000000 8.000000 2.500000
      vertex -5.000000 -8.000000 2.500000
      vertex -5.000000 8.000000 0.000000
    endloop
  endfacet
endsolid OpenSCAD_Model
