solid OpenSCAD_Model
  facet normal -1.000000 -0.000000 -0.000000
    outer loop
      vertex 5.000000 -8.000000 2.500000
      vertex 5.000000 -8.000000 5.000000
      vertex 5.000000 0.000000 2.500000
    endloop
  endfacet
  facet normal -1.000000 0.000000 0.000000
    outer loop
      vertex 5.000000 0.000000 2.500000
      vertex 5.000000 -8.000000 5.000000
      vertex 5.000000 0.000000 5.000000
    endloop
  endfacet
  facet normal 0.000000 -1.000000 0.000000
    outer loop
      vertex 5.000000 -8.000000 5.000000
      vertex 5.000000 -8.000000 2.500000
      vertex 13.000000 -8.000000 2.500000
    endloop
  endfacet
  facet normal 0.000000 -1.000000 0.000000
    outer loop
      vertex 13.000000 -8.000000 5.000000
      vertex 5.000000 -8.000000 5.000000
      vertex 13.000000 -8.000000 2.500000
    endloop
  endfacet
  facet normal -0.000000 -0.000000 -1.000000
    outer loop
      vertex 5.000000 -8.000000 2.500000
      vertex 5.000000 0.000000 2.500000
      vertex 13.000000 -8.000000 2.500000
    endloop
  endfacet
  facet normal 0.000000 0.000000 -1.000000
    outer loop
      vertex 13.000000 -8.000000 2.500000
      vertex 5.000000 0.000000 2.500000
      vertex 5.502324 -0.015786 2.500000
    endloop
  endfacet
  facet normal 0.000000 0.000000 -1.000000
    outer loop
      vertex 13.000000 -8.000000 2.500000
      vertex 5.502324 -0.015786 2.500000
      vertex 6.002666 -0.063082 2.500000
    endloop
  endfacet
  facet normal 0.000000 0.000000 -1.000000
    outer loop
      vertex 13.000000 -8.000000 2.500000
      vertex 6.002666 -0.063082 2.500000
      vertex 6.499051 -0.141702 2.500000
    endloop
  endfacet
  facet normal 0.000000 0.000000 -1.000000
    outer loop
      vertex 13.000000 -8.000000 2.500000
      vertex 6.499051 -0.141702 2.500000
      vertex 6.989519 -0.251335 2.500000
    endloop
  endfacet
  facet normal 0.000000 0.000000 -1.000000
    outer loop
      vertex 13.000000 -8.000000 2.500000
      vertex 6.989519 -0.251335 2.500000
      vertex 7.472136 -0.391548 2.500000
    endloop
  endfacet
  facet normal 0.000000 0.000000 -1.000000
    outer loop
      vertex 13.000000 -8.000000 2.500000
      vertex 7.472136 -0.391548 2.500000
      vertex 7.944996 -0.561788 2.500000
    endloop
  endfacet
  facet normal 0.000000 0.000000 -1.000000
    outer loop
      vertex 13.000000 -8.000000 2.500000
      vertex 7.944996 -0.561788 2.500000
      vertex 8.406234 -0.761384 2.500000
    endloop
  endfacet
  facet normal 0.000000 0.000000 -1.000000
    outer loop
      vertex 13.000000 -8.000000 2.500000
      vertex 8.406234 -0.761384 2.500000
      vertex 8.854029 -0.989547 2.500000
    endloop
  endfacet
  facet normal 0.000000 0.000000 -1.000000
    outer loop
      vertex 13.000000 -8.000000 2.500000
      vertex 8.854029 -0.989547 2.500000
      vertex 9.286614 -1.245377 2.500000
    endloop
  endfacet
  facet normal 0.000000 0.000000 -1.000000
    outer loop
      vertex 13.000000 -8.000000 2.500000
      vertex 9.286614 -1.245377 2.500000
      vertex 9.702282 -1.527864 2.500000
    endloop
  endfacet
  facet normal 0.000000 0.000000 -1.000000
    outer loop
      vertex 13.000000 -8.000000 2.500000
      vertex 9.702282 -1.527864 2.500000
      vertex 10.099392 -1.835894 2.500000
    endloop
  endfacet
  facet normal 0.000000 0.000000 -1.000000
    outer loop
      vertex 13.000000 -8.000000 2.500000
      vertex 10.099392 -1.835894 2.500000
      vertex 10.476377 -2.168251 2.500000
    endloop
  endfacet
  facet normal 0.000000 0.000000 -1.000000
    outer loop
      vertex 13.000000 -8.000000 2.500000
      vertex 10.476377 -2.168251 2.500000
      vertex 10.831749 -2.523623 2.500000
    endloop
  endfacet
  facet normal 0.000000 0.000000 -1.000000
    outer loop
      vertex 13.000000 -8.000000 2.500000
      vertex 10.831749 -2.523623 2.500000
      vertex 11.164106 -2.900608 2.500000
    endloop
  endfacet
  facet normal 0.000000 0.000000 -1.000000
    outer loop
      vertex 13.000000 -8.000000 2.500000
      vertex 11.164106 -2.900608 2.500000
      vertex 11.472136 -3.297718 2.500000
    endloop
  endfacet
  facet normal 0.000000 0.000000 -1.000000
    outer loop
      vertex 13.000000 -8.000000 2.500000
      vertex 11.472136 -3.297718 2.500000
      vertex 11.754623 -3.713386 2.500000
    endloop
  endfacet
  facet normal 0.000000 0.000000 -1.000000
    outer loop
      vertex 13.000000 -8.000000 2.500000
      vertex 11.754623 -3.713386 2.500000
      vertex 12.010453 -4.145971 2.500000
    endloop
  endfacet
  facet normal 0.000000 0.000000 -1.000000
    outer loop
      vertex 13.000000 -8.000000 2.500000
      vertex 12.010453 -4.145971 2.500000
      vertex 12.238616 -4.593766 2.500000
    endloop
  endfacet
  facet normal 0.000000 0.000000 -1.000000
    outer loop
      vertex 13.000000 -8.000000 2.500000
      vertex 12.238616 -4.593766 2.500000
      vertex 12.438212 -5.055004 2.500000
    endloop
  endfacet
  facet normal 0.000000 0.000000 -1.000000
    outer loop
      vertex 13.000000 -8.000000 2.500000
      vertex 12.438212 -5.055004 2.500000
      vertex 12.608452 -5.527864 2.500000
    endloop
  endfacet
  facet normal 0.000000 0.000000 -1.000000
    outer loop
      vertex 13.000000 -8.000000 2.500000
      vertex 12.608452 -5.527864 2.500000
      vertex 12.748665 -6.010481 2.500000
    endloop
  endfacet
  facet normal 0.000000 0.000000 -1.000000
    outer loop
      vertex 13.000000 -8.000000 2.500000
      vertex 12.748665 -6.010481 2.500000
      vertex 12.858298 -6.500949 2.500000
    endloop
  endfacet
  facet normal 0.000000 0.000000 -1.000000
    outer loop
      vertex 13.000000 -8.000000 2.500000
      vertex 12.858298 -6.500949 2.500000
      vertex 12.936918 -6.997334 2.500000
    endloop
  endfacet
  facet normal 0.000000 0.000000 -1.000000
    outer loop
      vertex 13.000000 -8.000000 2.500000
      vertex 12.936918 -6.997334 2.500000
      vertex 12.984214 -7.497676 2.500000
    endloop
  endfacet
  facet normal 0.031410 0.999507 0.000000
    outer loop
      vertex 5.000000 0.000000 2.500000
      vertex 5.000000 0.000000 5.000000
      vertex 5.502324 -0.015786 2.500000
    endloop
  endfacet
  facet normal 0.031410 0.999507 0.000000
    outer loop
      vertex 5.502324 -0.015786 2.500000
      vertex 5.000000 0.000000 5.000000
      vertex 5.502324 -0.015786 5.000000
    endloop
  endfacet
  facet normal 0.000000 -0.000000 1.000000
    outer loop
      vertex 5.000000 0.000000 5.000000
      vertex 5.000000 -8.000000 5.000000
      vertex 13.000000 -8.000000 5.000000
    endloop
  endfacet
  facet normal -0.000000 -0.000000 1.000000
    outer loop
      vertex 12.936918 -6.997334 5.000000
      vertex 5.000000 0.000000 5.000000
      vertex 12.984214 -7.497676 5.000000
    endloop
  endfacet
  facet normal -0.000000 -0.000000 1.000000
    outer loop
      vertex 12.984214 -7.497676 5.000000
      vertex 5.000000 0.000000 5.000000
      vertex 13.000000 -8.000000 5.000000
    endloop
  endfacet
  facet normal -0.000000 -0.000000 1.000000
    outer loop
      vertex 12.858298 -6.500949 5.000000
      vertex 5.000000 0.000000 5.000000
      vertex 12.936918 -6.997334 5.000000
    endloop
  endfacet
  facet normal -0.000000 -0.000000 1.000000
    outer loop
      vertex 12.748665 -6.010481 5.000000
      vertex 5.000000 0.000000 5.000000
      vertex 12.858298 -6.500949 5.000000
    endloop
  endfacet
  facet normal -0.000000 -0.000000 1.000000
    outer loop
      vertex 12.608452 -5.527864 5.000000
      vertex 5.000000 0.000000 5.000000
      vertex 12.748665 -6.010481 5.000000
    endloop
  endfacet
  facet normal -0.000000 -0.000000 1.000000
    outer loop
      vertex 12.438212 -5.055004 5.000000
      vertex 5.000000 0.000000 5.000000
      vertex 12.608452 -5.527864 5.000000
    endloop
  endfacet
  facet normal -0.000000 -0.000000 1.000000
    outer loop
      vertex 12.238616 -4.593766 5.000000
      vertex 5.000000 0.000000 5.000000
      vertex 12.438212 -5.055004 5.000000
    endloop
  endfacet
  facet normal -0.000000 -0.000000 1.000000
    outer loop
      vertex 12.010453 -4.145971 5.000000
      vertex 5.000000 0.000000 5.000000
      vertex 12.238616 -4.593766 5.000000
    endloop
  endfacet
  facet normal -0.000000 -0.000000 1.000000
    outer loop
      vertex 11.754623 -3.713386 5.000000
      vertex 5.000000 0.000000 5.000000
      vertex 12.010453 -4.145971 5.000000
    endloop
  endfacet
  facet normal -0.000000 -0.000000 1.000000
    outer loop
      vertex 11.472136 -3.297718 5.000000
      vertex 5.000000 0.000000 5.000000
      vertex 11.754623 -3.713386 5.000000
    endloop
  endfacet
  facet normal -0.000000 -0.000000 1.000000
    outer loop
      vertex 11.164106 -2.900608 5.000000
      vertex 5.000000 0.000000 5.000000
      vertex 11.472136 -3.297718 5.000000
    endloop
  endfacet
  facet normal -0.000000 -0.000000 1.000000
    outer loop
      vertex 10.831749 -2.523623 5.000000
      vertex 5.000000 0.000000 5.000000
      vertex 11.164106 -2.900608 5.000000
    endloop
  endfacet
  facet normal -0.000000 -0.000000 1.000000
    outer loop
      vertex 10.476377 -2.168251 5.000000
      vertex 5.000000 0.000000 5.000000
      vertex 10.831749 -2.523623 5.000000
    endloop
  endfacet
  facet normal -0.000000 -0.000000 1.000000
    outer loop
      vertex 10.099392 -1.835894 5.000000
      vertex 5.000000 0.000000 5.000000
      vertex 10.476377 -2.168251 5.000000
    endloop
  endfacet
  facet normal -0.000000 -0.000000 1.000000
    outer loop
      vertex 9.702282 -1.527864 5.000000
      vertex 5.000000 0.000000 5.000000
      vertex 10.099392 -1.835894 5.000000
    endloop
  endfacet
  facet normal -0.000000 -0.000000 1.000000
    outer loop
      vertex 9.286614 -1.245377 5.000000
      vertex 5.000000 0.000000 5.000000
      vertex 9.702282 -1.527864 5.000000
    endloop
  endfacet
  facet normal -0.000000 -0.000000 1.000000
    outer loop
      vertex 8.854029 -0.989547 5.000000
      vertex 5.000000 0.000000 5.000000
      vertex 9.286614 -1.245377 5.000000
    endloop
  endfacet
  facet normal -0.000000 -0.000000 1.000000
    outer loop
      vertex 8.406234 -0.761384 5.000000
      vertex 5.000000 0.000000 5.000000
      vertex 8.854029 -0.989547 5.000000
    endloop
  endfacet
  facet normal -0.000000 -0.000000 1.000000
    outer loop
      vertex 7.944996 -0.561788 5.000000
      vertex 5.000000 0.000000 5.000000
      vertex 8.406234 -0.761384 5.000000
    endloop
  endfacet
  facet normal -0.000000 -0.000000 1.000000
    outer loop
      vertex 7.472136 -0.391548 5.000000
      vertex 5.000000 0.000000 5.000000
      vertex 7.944996 -0.561788 5.000000
    endloop
  endfacet
  facet normal -0.000000 -0.000000 1.000000
    outer loop
      vertex 6.989519 -0.251335 5.000000
      vertex 5.000000 0.000000 5.000000
      vertex 7.472136 -0.391548 5.000000
    endloop
  endfacet
  facet normal -0.000000 -0.000000 1.000000
    outer loop
      vertex 6.499051 -0.141702 5.000000
      vertex 5.000000 0.000000 5.000000
      vertex 6.989519 -0.251335 5.000000
    endloop
  endfacet
  facet normal -0.000000 -0.000000 1.000000
    outer loop
      vertex 6.002666 -0.063082 5.000000
      vertex 5.000000 0.000000 5.000000
      vertex 6.499051 -0.141702 5.000000
    endloop
  endfacet
  facet normal -0.000000 -0.000000 1.000000
    outer loop
      vertex 5.502324 -0.015786 5.000000
      vertex 5.000000 0.000000 5.000000
      vertex 6.002666 -0.063082 5.000000
    endloop
  endfacet
  facet normal 0.999507 0.031410 0.000000
    outer loop
      vertex 13.000000 -8.000000 2.500000
      vertex 12.984214 -7.497676 2.500000
      vertex 12.984214 -7.497676 5.000000
    endloop
  endfacet
  facet normal 0.999507 0.031410 -0.000000
    outer loop
      vertex 13.000000 -8.000000 5.000000
      vertex 13.000000 -8.000000 2.500000
      vertex 12.984214 -7.497676 5.000000
    endloop
  endfacet
  facet normal 0.995562 0.094108 0.000000
    outer loop
      vertex 12.984214 -7.497676 2.500000
      vertex 12.936918 -6.997334 2.500000
      vertex 12.936918 -6.997334 5.000000
    endloop
  endfacet
  facet normal 0.995562 0.094108 -0.000000
    outer loop
      vertex 12.984214 -7.497676 5.000000
      vertex 12.984214 -7.497676 2.500000
      vertex 12.936918 -6.997334 5.000000
    endloop
  endfacet
  facet normal 0.987688 0.156435 0.000000
    outer loop
      vertex 12.936918 -6.997334 2.500000
      vertex 12.858298 -6.500949 2.500000
      vertex 12.858298 -6.500949 5.000000
    endloop
  endfacet
  facet normal 0.987688 0.156435 -0.000000
    outer loop
      vertex 12.936918 -6.997334 5.000000
      vertex 12.936918 -6.997334 2.500000
      vertex 12.858298 -6.500949 5.000000
    endloop
  endfacet
  facet normal 0.975917 0.218144 0.000000
    outer loop
      vertex 12.858298 -6.500949 2.500000
      vertex 12.748665 -6.010481 2.500000
      vertex 12.748665 -6.010481 5.000000
    endloop
  endfacet
  facet normal 0.975917 0.218144 -0.000000
    outer loop
      vertex 12.858298 -6.500949 5.000000
      vertex 12.858298 -6.500949 2.500000
      vertex 12.748665 -6.010481 5.000000
    endloop
  endfacet
  facet normal 0.960294 0.278991 0.000000
    outer loop
      vertex 12.748665 -6.010481 2.500000
      vertex 12.608452 -5.527864 2.500000
      vertex 12.608452 -5.527864 5.000000
    endloop
  endfacet
  facet normal 0.960294 0.278991 -0.000000
    outer loop
      vertex 12.748665 -6.010481 5.000000
      vertex 12.748665 -6.010481 2.500000
      vertex 12.608452 -5.527864 5.000000
    endloop
  endfacet
  facet normal 0.940881 0.338738 0.000000
    outer loop
      vertex 12.608452 -5.527864 2.500000
      vertex 12.438212 -5.055004 2.500000
      vertex 12.438212 -5.055004 5.000000
    endloop
  endfacet
  facet normal 0.940881 0.338738 -0.000000
    outer loop
      vertex 12.608452 -5.527864 5.000000
      vertex 12.608452 -5.527864 2.500000
      vertex 12.438212 -5.055004 5.000000
    endloop
  endfacet
  facet normal 0.917754 0.397149 0.000000
    outer loop
      vertex 12.438212 -5.055004 2.500000
      vertex 12.238616 -4.593766 2.500000
      vertex 12.238616 -4.593766 5.000000
    endloop
  endfacet
  facet normal 0.917754 0.397149 -0.000000
    outer loop
      vertex 12.438212 -5.055004 5.000000
      vertex 12.438212 -5.055004 2.500000
      vertex 12.238616 -4.593766 5.000000
    endloop
  endfacet
  facet normal 0.891006 0.453991 0.000000
    outer loop
      vertex 12.238616 -4.593766 2.500000
      vertex 12.010453 -4.145971 2.500000
      vertex 12.010453 -4.145971 5.000000
    endloop
  endfacet
  facet normal 0.891006 0.453991 -0.000000
    outer loop
      vertex 12.238616 -4.593766 5.000000
      vertex 12.238616 -4.593766 2.500000
      vertex 12.010453 -4.145971 5.000000
    endloop
  endfacet
  facet normal 0.860742 0.509041 0.000000
    outer loop
      vertex 12.010453 -4.145971 2.500000
      vertex 11.754623 -3.713386 2.500000
      vertex 11.754623 -3.713386 5.000000
    endloop
  endfacet
  facet normal 0.860742 0.509041 -0.000000
    outer loop
      vertex 12.010453 -4.145971 5.000000
      vertex 12.010453 -4.145971 2.500000
      vertex 11.754623 -3.713386 5.000000
    endloop
  endfacet
  facet normal 0.827081 0.562082 0.000000
    outer loop
      vertex 11.754623 -3.713386 2.500000
      vertex 11.472136 -3.297718 2.500000
      vertex 11.472136 -3.297718 5.000000
    endloop
  endfacet
  facet normal 0.827081 0.562082 -0.000000
    outer loop
      vertex 11.754623 -3.713386 5.000000
      vertex 11.754623 -3.713386 2.500000
      vertex 11.472136 -3.297718 5.000000
    endloop
  endfacet
  facet normal 0.790155 0.612907 0.000000
    outer loop
      vertex 11.472136 -3.297718 2.500000
      vertex 11.164106 -2.900608 2.500000
      vertex 11.164106 -2.900608 5.000000
    endloop
  endfacet
  facet normal 0.790155 0.612907 -0.000000
    outer loop
      vertex 11.472136 -3.297718 5.000000
      vertex 11.472136 -3.297718 2.500000
      vertex 11.164106 -2.900608 5.000000
    endloop
  endfacet
  facet normal 0.750111 0.661312 0.000000
    outer loop
      vertex 11.164106 -2.900608 2.500000
      vertex 10.831749 -2.523623 2.500000
      vertex 10.831749 -2.523623 5.000000
    endloop
  endfacet
  facet normal 0.750111 0.661312 -0.000000
    outer loop
      vertex 11.164106 -2.900608 5.000000
      vertex 11.164106 -2.900608 2.500000
      vertex 10.831749 -2.523623 5.000000
    endloop
  endfacet
  facet normal 0.707107 0.707107 0.000000
    outer loop
      vertex 10.476377 -2.168251 2.500000
      vertex 10.476377 -2.168251 5.000000
      vertex 10.831749 -2.523623 2.500000
    endloop
  endfacet
  facet normal 0.707107 0.707107 0.000000
    outer loop
      vertex 10.831749 -2.523623 2.500000
      vertex 10.476377 -2.168251 5.000000
      vertex 10.831749 -2.523623 5.000000
    endloop
  endfacet
  facet normal 0.661312 0.750111 0.000000
    outer loop
      vertex 10.099392 -1.835894 2.500000
      vertex 10.099392 -1.835894 5.000000
      vertex 10.476377 -2.168251 2.500000
    endloop
  endfacet
  facet normal 0.661312 0.750111 0.000000
    outer loop
      vertex 10.476377 -2.168251 2.500000
      vertex 10.099392 -1.835894 5.000000
      vertex 10.476377 -2.168251 5.000000
    endloop
  endfacet
  facet normal 0.612907 0.790155 0.000000
    outer loop
      vertex 9.702282 -1.527864 2.500000
      vertex 9.702282 -1.527864 5.000000
      vertex 10.099392 -1.835894 2.500000
    endloop
  endfacet
  facet normal 0.612907 0.790155 0.000000
    outer loop
      vertex 10.099392 -1.835894 2.500000
      vertex 9.702282 -1.527864 5.000000
      vertex 10.099392 -1.835894 5.000000
    endloop
  endfacet
  facet normal 0.562082 0.827081 0.000000
    outer loop
      vertex 9.286614 -1.245377 2.500000
      vertex 9.286614 -1.245377 5.000000
      vertex 9.702282 -1.527864 2.500000
    endloop
  endfacet
  facet normal 0.562082 0.827081 0.000000
    outer loop
      vertex 9.702282 -1.527864 2.500000
      vertex 9.286614 -1.245377 5.000000
      vertex 9.702282 -1.527864 5.000000
    endloop
  endfacet
  facet normal 0.509041 0.860742 0.000000
    outer loop
      vertex 8.854029 -0.989547 2.500000
      vertex 8.854029 -0.989547 5.000000
      vertex 9.286614 -1.245377 2.500000
    endloop
  endfacet
  facet normal 0.509041 0.860742 0.000000
    outer loop
      vertex 9.286614 -1.245377 2.500000
      vertex 8.854029 -0.989547 5.000000
      vertex 9.286614 -1.245377 5.000000
    endloop
  endfacet
  facet normal 0.453991 0.891006 0.000000
    outer loop
      vertex 8.406234 -0.761384 2.500000
      vertex 8.406234 -0.761384 5.000000
      vertex 8.854029 -0.989547 2.500000
    endloop
  endfacet
  facet normal 0.453991 0.891006 0.000000
    outer loop
      vertex 8.854029 -0.989547 2.500000
      vertex 8.406234 -0.761384 5.000000
      vertex 8.854029 -0.989547 5.000000
    endloop
  endfacet
  facet normal 0.397149 0.917754 0.000000
    outer loop
      vertex 7.944996 -0.561788 2.500000
      vertex 7.944996 -0.561788 5.000000
      vertex 8.406234 -0.761384 2.500000
    endloop
  endfacet
  facet normal 0.397149 0.917754 0.000000
    outer loop
      vertex 8.406234 -0.761384 2.500000
      vertex 7.944996 -0.561788 5.000000
      vertex 8.406234 -0.761384 5.000000
    endloop
  endfacet
  facet normal 0.338738 0.940881 0.000000
    outer loop
      vertex 7.472136 -0.391548 2.500000
      vertex 7.472136 -0.391548 5.000000
      vertex 7.944996 -0.561788 2.500000
    endloop
  endfacet
  facet normal 0.338738 0.940881 0.000000
    outer loop
      vertex 7.944996 -0.561788 2.500000
      vertex 7.472136 -0.391548 5.000000
      vertex 7.944996 -0.561788 5.000000
    endloop
  endfacet
  facet normal 0.278991 0.960294 0.000000
    outer loop
      vertex 6.989519 -0.251335 2.500000
      vertex 6.989519 -0.251335 5.000000
      vertex 7.472136 -0.391548 2.500000
    endloop
  endfacet
  facet normal 0.278991 0.960294 0.000000
    outer loop
      vertex 7.472136 -0.391548 2.500000
      vertex 6.989519 -0.251335 5.000000
      vertex 7.472136 -0.391548 5.000000
    endloop
  endfacet
  facet normal 0.218144 0.975917 0.000000
    outer loop
      vertex 6.499051 -0.141702 2.500000
      vertex 6.499051 -0.141702 5.000000
      vertex 6.989519 -0.251335 2.500000
    endloop
  endfacet
  facet normal 0.218144 0.975917 0.000000
    outer loop
      vertex 6.989519 -0.251335 2.500000
      vertex 6.499051 -0.141702 5.000000
      vertex 6.989519 -0.251335 5.000000
    endloop
  endfacet
  facet normal 0.156435 0.987688 0.000000
    outer loop
      vertex 6.002666 -0.063082 2.500000
      vertex 6.002666 -0.063082 5.000000
      vertex 6.499051 -0.141702 2.500000
    endloop
  endfacet
  facet normal 0.156435 0.987688 0.000000
    outer loop
      vertex 6.499051 -0.141702 2.500000
      vertex 6.002666 -0.063082 5.000000
      vertex 6.499051 -0.141702 5.000000
    endloop
  endfacet
  facet normal 0.094108 0.995562 0.000000
    outer loop
      vertex 5.502324 -0.015786 2.500000
      vertex 5.502324 -0.015786 5.000000
      vertex 6.002666 -0.063082 2.500000
    endloop
  endfacet
  facet normal 0.094108 0.995562 0.000000
    outer loop
      vertex 6.002666 -0.063082 2.500000
      vertex 5.502324 -0.015786 5.000000
      vertex 6.002666 -0.063082 5.000000
    endloop
  endfacet
  facet normal 0.000000 1.000000 0.000000
    outer loop
      vertex 13.000000 8.000000 2.500000
      vertex 13.000000 8.000000 5.000000
      vertex 21.000000 8.000000 2.500000
    endloop
  endfacet
  facet normal 0.000000 1.000000 0.000000
    outer loop
      vertex 21.000000 8.000000 2.500000
      vertex 13.000000 8.000000 5.000000
      vertex 21.000000 8.000000 5.000000
    endloop
  endfacet
  facet normal -0.999507 -0.031410 -0.000000
    outer loop
      vertex 13.000000 8.000000 2.500000
      vertex 13.015786 7.497676 2.500000
      vertex 13.000000 8.000000 5.000000
    endloop
  endfacet
  facet normal -0.999507 -0.031410 0.000000
    outer loop
      vertex 13.000000 8.000000 5.000000
      vertex 13.015786 7.497676 2.500000
      vertex 13.015786 7.497676 5.000000
    endloop
  endfacet
  facet normal 0.000000 0.000000 -1.000000
    outer loop
      vertex 13.000000 8.000000 2.500000
      vertex 21.000000 8.000000 2.500000
      vertex 13.015786 7.497676 2.500000
    endloop
  endfacet
  facet normal -0.000000 0.000000 -1.000000
    outer loop
      vertex 13.015786 7.497676 2.500000
      vertex 21.000000 8.000000 2.500000
      vertex 21.000000 0.000000 2.500000
    endloop
  endfacet
  facet normal 0.000000 0.000000 -1.000000
    outer loop
      vertex 13.015786 7.497676 2.500000
      vertex 21.000000 0.000000 2.500000
      vertex 20.497676 0.015786 2.500000
    endloop
  endfacet
  facet normal 0.000000 0.000000 -1.000000
    outer loop
      vertex 13.015786 7.497676 2.500000
      vertex 20.497676 0.015786 2.500000
      vertex 19.997334 0.063082 2.500000
    endloop
  endfacet
  facet normal 0.000000 0.000000 -1.000000
    outer loop
      vertex 13.015786 7.497676 2.500000
      vertex 19.997334 0.063082 2.500000
      vertex 19.500949 0.141702 2.500000
    endloop
  endfacet
  facet normal 0.000000 0.000000 -1.000000
    outer loop
      vertex 13.015786 7.497676 2.500000
      vertex 19.500949 0.141702 2.500000
      vertex 19.010481 0.251335 2.500000
    endloop
  endfacet
  facet normal 0.000000 0.000000 -1.000000
    outer loop
      vertex 13.015786 7.497676 2.500000
      vertex 19.010481 0.251335 2.500000
      vertex 18.527864 0.391548 2.500000
    endloop
  endfacet
  facet normal 0.000000 0.000000 -1.000000
    outer loop
      vertex 13.015786 7.497676 2.500000
      vertex 18.527864 0.391548 2.500000
      vertex 18.055004 0.561788 2.500000
    endloop
  endfacet
  facet normal 0.000000 0.000000 -1.000000
    outer loop
      vertex 13.015786 7.497676 2.500000
      vertex 18.055004 0.561788 2.500000
      vertex 17.593766 0.761384 2.500000
    endloop
  endfacet
  facet normal 0.000000 0.000000 -1.000000
    outer loop
      vertex 13.015786 7.497676 2.500000
      vertex 17.593766 0.761384 2.500000
      vertex 17.145971 0.989547 2.500000
    endloop
  endfacet
  facet normal 0.000000 0.000000 -1.000000
    outer loop
      vertex 13.015786 7.497676 2.500000
      vertex 17.145971 0.989547 2.500000
      vertex 16.713386 1.245377 2.500000
    endloop
  endfacet
  facet normal 0.000000 0.000000 -1.000000
    outer loop
      vertex 13.015786 7.497676 2.500000
      vertex 16.713386 1.245377 2.500000
      vertex 16.297718 1.527864 2.500000
    endloop
  endfacet
  facet normal 0.000000 0.000000 -1.000000
    outer loop
      vertex 13.015786 7.497676 2.500000
      vertex 16.297718 1.527864 2.500000
      vertex 15.900608 1.835894 2.500000
    endloop
  endfacet
  facet normal 0.000000 0.000000 -1.000000
    outer loop
      vertex 13.015786 7.497676 2.500000
      vertex 15.900608 1.835894 2.500000
      vertex 15.523623 2.168251 2.500000
    endloop
  endfacet
  facet normal 0.000000 0.000000 -1.000000
    outer loop
      vertex 13.015786 7.497676 2.500000
      vertex 15.523623 2.168251 2.500000
      vertex 15.168251 2.523623 2.500000
    endloop
  endfacet
  facet normal 0.000000 0.000000 -1.000000
    outer loop
      vertex 13.015786 7.497676 2.500000
      vertex 15.168251 2.523623 2.500000
      vertex 14.835894 2.900608 2.500000
    endloop
  endfacet
  facet normal 0.000000 0.000000 -1.000000
    outer loop
      vertex 13.015786 7.497676 2.500000
      vertex 14.835894 2.900608 2.500000
      vertex 14.527864 3.297718 2.500000
    endloop
  endfacet
  facet normal 0.000000 0.000000 -1.000000
    outer loop
      vertex 13.015786 7.497676 2.500000
      vertex 14.527864 3.297718 2.500000
      vertex 14.245377 3.713386 2.500000
    endloop
  endfacet
  facet normal 0.000000 0.000000 -1.000000
    outer loop
      vertex 13.015786 7.497676 2.500000
      vertex 14.245377 3.713386 2.500000
      vertex 13.989547 4.145971 2.500000
    endloop
  endfacet
  facet normal 0.000000 0.000000 -1.000000
    outer loop
      vertex 13.015786 7.497676 2.500000
      vertex 13.989547 4.145971 2.500000
      vertex 13.761384 4.593766 2.500000
    endloop
  endfacet
  facet normal 0.000000 0.000000 -1.000000
    outer loop
      vertex 13.015786 7.497676 2.500000
      vertex 13.761384 4.593766 2.500000
      vertex 13.561788 5.055004 2.500000
    endloop
  endfacet
  facet normal 0.000000 0.000000 -1.000000
    outer loop
      vertex 13.015786 7.497676 2.500000
      vertex 13.561788 5.055004 2.500000
      vertex 13.391548 5.527864 2.500000
    endloop
  endfacet
  facet normal 0.000000 0.000000 -1.000000
    outer loop
      vertex 13.015786 7.497676 2.500000
      vertex 13.391548 5.527864 2.500000
      vertex 13.251335 6.010481 2.500000
    endloop
  endfacet
  facet normal 0.000000 0.000000 -1.000000
    outer loop
      vertex 13.015786 7.497676 2.500000
      vertex 13.251335 6.010481 2.500000
      vertex 13.141702 6.500949 2.500000
    endloop
  endfacet
  facet normal 0.000000 0.000000 -1.000000
    outer loop
      vertex 13.015786 7.497676 2.500000
      vertex 13.141702 6.500949 2.500000
      vertex 13.063082 6.997334 2.500000
    endloop
  endfacet
  facet normal 1.000000 0.000000 -0.000000
    outer loop
      vertex 21.000000 0.000000 5.000000
      vertex 21.000000 0.000000 2.500000
      vertex 21.000000 8.000000 2.500000
    endloop
  endfacet
  facet normal 1.000000 0.000000 0.000000
    outer loop
      vertex 21.000000 8.000000 5.000000
      vertex 21.000000 0.000000 5.000000
      vertex 21.000000 8.000000 2.500000
    endloop
  endfacet
  facet normal 0.000000 0.000000 1.000000
    outer loop
      vertex 21.000000 8.000000 5.000000
      vertex 13.000000 8.000000 5.000000
      vertex 13.015786 7.497676 5.000000
    endloop
  endfacet
  facet normal 0.000000 0.000000 1.000000
    outer loop
      vertex 13.141702 6.500949 5.000000
      vertex 21.000000 8.000000 5.000000
      vertex 13.063082 6.997334 5.000000
    endloop
  endfacet
  facet normal 0.000000 0.000000 1.000000
    outer loop
      vertex 13.063082 6.997334 5.000000
      vertex 21.000000 8.000000 5.000000
      vertex 13.015786 7.497676 5.000000
    endloop
  endfacet
  facet normal 0.000000 0.000000 1.000000
    outer loop
      vertex 13.251335 6.010481 5.000000
      vertex 21.000000 8.000000 5.000000
      vertex 13.141702 6.500949 5.000000
    endloop
  endfacet
  facet normal 0.000000 0.000000 1.000000
    outer loop
      vertex 13.391548 5.527864 5.000000
      vertex 21.000000 8.000000 5.000000
      vertex 13.251335 6.010481 5.000000
    endloop
  endfacet
  facet normal 0.000000 0.000000 1.000000
    outer loop
      vertex 13.561788 5.055004 5.000000
      vertex 21.000000 8.000000 5.000000
      vertex 13.391548 5.527864 5.000000
    endloop
  endfacet
  facet normal 0.000000 0.000000 1.000000
    outer loop
      vertex 13.761384 4.593766 5.000000
      vertex 21.000000 8.000000 5.000000
      vertex 13.561788 5.055004 5.000000
    endloop
  endfacet
  facet normal 0.000000 0.000000 1.000000
    outer loop
      vertex 13.989547 4.145971 5.000000
      vertex 21.000000 8.000000 5.000000
      vertex 13.761384 4.593766 5.000000
    endloop
  endfacet
  facet normal 0.000000 0.000000 1.000000
    outer loop
      vertex 14.245377 3.713386 5.000000
      vertex 21.000000 8.000000 5.000000
      vertex 13.989547 4.145971 5.000000
    endloop
  endfacet
  facet normal 0.000000 0.000000 1.000000
    outer loop
      vertex 14.527864 3.297718 5.000000
      vertex 21.000000 8.000000 5.000000
      vertex 14.245377 3.713386 5.000000
    endloop
  endfacet
  facet normal 0.000000 0.000000 1.000000
    outer loop
      vertex 14.835894 2.900608 5.000000
      vertex 21.000000 8.000000 5.000000
      vertex 14.527864 3.297718 5.000000
    endloop
  endfacet
  facet normal 0.000000 0.000000 1.000000
    outer loop
      vertex 15.168251 2.523623 5.000000
      vertex 21.000000 8.000000 5.000000
      vertex 14.835894 2.900608 5.000000
    endloop
  endfacet
  facet normal 0.000000 0.000000 1.000000
    outer loop
      vertex 15.523623 2.168251 5.000000
      vertex 21.000000 8.000000 5.000000
      vertex 15.168251 2.523623 5.000000
    endloop
  endfacet
  facet normal 0.000000 0.000000 1.000000
    outer loop
      vertex 15.900608 1.835894 5.000000
      vertex 21.000000 8.000000 5.000000
      vertex 15.523623 2.168251 5.000000
    endloop
  endfacet
  facet normal 0.000000 0.000000 1.000000
    outer loop
      vertex 16.297718 1.527864 5.000000
      vertex 21.000000 8.000000 5.000000
      vertex 15.900608 1.835894 5.000000
    endloop
  endfacet
  facet normal 0.000000 0.000000 1.000000
    outer loop
      vertex 16.713386 1.245377 5.000000
      vertex 21.000000 8.000000 5.000000
      vertex 16.297718 1.527864 5.000000
    endloop
  endfacet
  facet normal 0.000000 0.000000 1.000000
    outer loop
      vertex 17.145971 0.989547 5.000000
      vertex 21.000000 8.000000 5.000000
      vertex 16.713386 1.245377 5.000000
    endloop
  endfacet
  facet normal 0.000000 0.000000 1.000000
    outer loop
      vertex 17.593766 0.761384 5.000000
      vertex 21.000000 8.000000 5.000000
      vertex 17.145971 0.989547 5.000000
    endloop
  endfacet
  facet normal 0.000000 0.000000 1.000000
    outer loop
      vertex 18.055004 0.561788 5.000000
      vertex 21.000000 8.000000 5.000000
      vertex 17.593766 0.761384 5.000000
    endloop
  endfacet
  facet normal 0.000000 0.000000 1.000000
    outer loop
      vertex 18.527864 0.391548 5.000000
      vertex 21.000000 8.000000 5.000000
      vertex 18.055004 0.561788 5.000000
    endloop
  endfacet
  facet normal 0.000000 0.000000 1.000000
    outer loop
      vertex 19.010481 0.251335 5.000000
      vertex 21.000000 8.000000 5.000000
      vertex 18.527864 0.391548 5.000000
    endloop
  endfacet
  facet normal 0.000000 0.000000 1.000000
    outer loop
      vertex 19.500949 0.141702 5.000000
      vertex 21.000000 8.000000 5.000000
      vertex 19.010481 0.251335 5.000000
    endloop
  endfacet
  facet normal 0.000000 0.000000 1.000000
    outer loop
      vertex 19.997334 0.063082 5.000000
      vertex 21.000000 8.000000 5.000000
      vertex 19.500949 0.141702 5.000000
    endloop
  endfacet
  facet normal 0.000000 0.000000 1.000000
    outer loop
      vertex 20.497676 0.015786 5.000000
      vertex 21.000000 8.000000 5.000000
      vertex 19.997334 0.063082 5.000000
    endloop
  endfacet
  facet normal 0.000000 0.000000 1.000000
    outer loop
      vertex 21.000000 0.000000 5.000000
      vertex 21.000000 8.000000 5.000000
      vertex 20.497676 0.015786 5.000000
    endloop
  endfacet
  facet normal -0.995562 -0.094108 -0.000000
    outer loop
      vertex 13.015786 7.497676 2.500000
      vertex 13.063082 6.997334 2.500000
      vertex 13.015786 7.497676 5.000000
    endloop
  endfacet
  facet normal -0.995562 -0.094108 0.000000
    outer loop
      vertex 13.015786 7.497676 5.000000
      vertex 13.063082 6.997334 2.500000
      vertex 13.063082 6.997334 5.000000
    endloop
  endfacet
  facet normal -0.987688 -0.156435 -0.000000
    outer loop
      vertex 13.063082 6.997334 2.500000
      vertex 13.141702 6.500949 2.500000
      vertex 13.063082 6.997334 5.000000
    endloop
  endfacet
  facet normal -0.987688 -0.156435 0.000000
    outer loop
      vertex 13.063082 6.997334 5.000000
      vertex 13.141702 6.500949 2.500000
      vertex 13.141702 6.500949 5.000000
    endloop
  endfacet
  facet normal -0.975917 -0.218144 -0.000000
    outer loop
      vertex 13.141702 6.500949 2.500000
      vertex 13.251335 6.010481 2.500000
      vertex 13.141702 6.500949 5.000000
    endloop
  endfacet
  facet normal -0.975917 -0.218144 0.000000
    outer loop
      vertex 13.141702 6.500949 5.000000
      vertex 13.251335 6.010481 2.500000
      vertex 13.251335 6.010481 5.000000
    endloop
  endfacet
  facet normal -0.960294 -0.278991 -0.000000
    outer loop
      vertex 13.251335 6.010481 2.500000
      vertex 13.391548 5.527864 2.500000
      vertex 13.251335 6.010481 5.000000
    endloop
  endfacet
  facet normal -0.960294 -0.278991 0.000000
    outer loop
      vertex 13.251335 6.010481 5.000000
      vertex 13.391548 5.527864 2.500000
      vertex 13.391548 5.527864 5.000000
    endloop
  endfacet
  facet normal -0.940881 -0.338738 -0.000000
    outer loop
      vertex 13.391548 5.527864 2.500000
      vertex 13.561788 5.055004 2.500000
      vertex 13.391548 5.527864 5.000000
    endloop
  endfacet
  facet normal -0.940881 -0.338738 0.000000
    outer loop
      vertex 13.391548 5.527864 5.000000
      vertex 13.561788 5.055004 2.500000
      vertex 13.561788 5.055004 5.000000
    endloop
  endfacet
  facet normal -0.917754 -0.397149 -0.000000
    outer loop
      vertex 13.561788 5.055004 2.500000
      vertex 13.761384 4.593766 2.500000
      vertex 13.561788 5.055004 5.000000
    endloop
  endfacet
  facet normal -0.917754 -0.397149 0.000000
    outer loop
      vertex 13.561788 5.055004 5.000000
      vertex 13.761384 4.593766 2.500000
      vertex 13.761384 4.593766 5.000000
    endloop
  endfacet
  facet normal -0.891006 -0.453991 -0.000000
    outer loop
      vertex 13.761384 4.593766 2.500000
      vertex 13.989547 4.145971 2.500000
      vertex 13.761384 4.593766 5.000000
    endloop
  endfacet
  facet normal -0.891006 -0.453991 0.000000
    outer loop
      vertex 13.761384 4.593766 5.000000
      vertex 13.989547 4.145971 2.500000
      vertex 13.989547 4.145971 5.000000
    endloop
  endfacet
  facet normal -0.860742 -0.509041 -0.000000
    outer loop
      vertex 13.989547 4.145971 2.500000
      vertex 14.245377 3.713386 2.500000
      vertex 13.989547 4.145971 5.000000
    endloop
  endfacet
  facet normal -0.860742 -0.509041 0.000000
    outer loop
      vertex 13.989547 4.145971 5.000000
      vertex 14.245377 3.713386 2.500000
      vertex 14.245377 3.713386 5.000000
    endloop
  endfacet
  facet normal -0.827081 -0.562082 -0.000000
    outer loop
      vertex 14.245377 3.713386 2.500000
      vertex 14.527864 3.297718 2.500000
      vertex 14.245377 3.713386 5.000000
    endloop
  endfacet
  facet normal -0.827081 -0.562082 0.000000
    outer loop
      vertex 14.245377 3.713386 5.000000
      vertex 14.527864 3.297718 2.500000
      vertex 14.527864 3.297718 5.000000
    endloop
  endfacet
  facet normal -0.790155 -0.612907 -0.000000
    outer loop
      vertex 14.527864 3.297718 2.500000
      vertex 14.835894 2.900608 2.500000
      vertex 14.527864 3.297718 5.000000
    endloop
  endfacet
  facet normal -0.790155 -0.612907 0.000000
    outer loop
      vertex 14.527864 3.297718 5.000000
      vertex 14.835894 2.900608 2.500000
      vertex 14.835894 2.900608 5.000000
    endloop
  endfacet
  facet normal -0.750111 -0.661312 -0.000000
    outer loop
      vertex 14.835894 2.900608 2.500000
      vertex 15.168251 2.523623 2.500000
      vertex 14.835894 2.900608 5.000000
    endloop
  endfacet
  facet normal -0.750111 -0.661312 0.000000
    outer loop
      vertex 14.835894 2.900608 5.000000
      vertex 15.168251 2.523623 2.500000
      vertex 15.168251 2.523623 5.000000
    endloop
  endfacet
  facet normal -0.707107 -0.707107 0.000000
    outer loop
      vertex 15.168251 2.523623 5.000000
      vertex 15.168251 2.523623 2.500000
      vertex 15.523623 2.168251 2.500000
    endloop
  endfacet
  facet normal -0.707107 -0.707107 0.000000
    outer loop
      vertex 15.523623 2.168251 5.000000
      vertex 15.168251 2.523623 5.000000
      vertex 15.523623 2.168251 2.500000
    endloop
  endfacet
  facet normal -0.661312 -0.750111 0.000000
    outer loop
      vertex 15.523623 2.168251 5.000000
      vertex 15.523623 2.168251 2.500000
      vertex 15.900608 1.835894 2.500000
    endloop
  endfacet
  facet normal -0.661312 -0.750111 0.000000
    outer loop
      vertex 15.900608 1.835894 5.000000
      vertex 15.523623 2.168251 5.000000
      vertex 15.900608 1.835894 2.500000
    endloop
  endfacet
  facet normal -0.612907 -0.790155 0.000000
    outer loop
      vertex 15.900608 1.835894 5.000000
      vertex 15.900608 1.835894 2.500000
      vertex 16.297718 1.527864 2.500000
    endloop
  endfacet
  facet normal -0.612907 -0.790155 0.000000
    outer loop
      vertex 16.297718 1.527864 5.000000
      vertex 15.900608 1.835894 5.000000
      vertex 16.297718 1.527864 2.500000
    endloop
  endfacet
  facet normal -0.562082 -0.827081 0.000000
    outer loop
      vertex 16.297718 1.527864 5.000000
      vertex 16.297718 1.527864 2.500000
      vertex 16.713386 1.245377 2.500000
    endloop
  endfacet
  facet normal -0.562082 -0.827081 0.000000
    outer loop
      vertex 16.713386 1.245377 5.000000
      vertex 16.297718 1.527864 5.000000
      vertex 16.713386 1.245377 2.500000
    endloop
  endfacet
  facet normal -0.509041 -0.860742 0.000000
    outer loop
      vertex 16.713386 1.245377 5.000000
      vertex 16.713386 1.245377 2.500000
      vertex 17.145971 0.989547 2.500000
    endloop
  endfacet
  facet normal -0.509041 -0.860742 0.000000
    outer loop
      vertex 17.145971 0.989547 5.000000
      vertex 16.713386 1.245377 5.000000
      vertex 17.145971 0.989547 2.500000
    endloop
  endfacet
  facet normal -0.453991 -0.891006 0.000000
    outer loop
      vertex 17.145971 0.989547 5.000000
      vertex 17.145971 0.989547 2.500000
      vertex 17.593766 0.761384 2.500000
    endloop
  endfacet
  facet normal -0.453991 -0.891006 0.000000
    outer loop
      vertex 17.593766 0.761384 5.000000
      vertex 17.145971 0.989547 5.000000
      vertex 17.593766 0.761384 2.500000
    endloop
  endfacet
  facet normal -0.397149 -0.917754 0.000000
    outer loop
      vertex 17.593766 0.761384 5.000000
      vertex 17.593766 0.761384 2.500000
      vertex 18.055004 0.561788 2.500000
    endloop
  endfacet
  facet normal -0.397149 -0.917754 0.000000
    outer loop
      vertex 18.055004 0.561788 5.000000
      vertex 17.593766 0.761384 5.000000
      vertex 18.055004 0.561788 2.500000
    endloop
  endfacet
  facet normal -0.338738 -0.940881 0.000000
    outer loop
      vertex 18.055004 0.561788 5.000000
      vertex 18.055004 0.561788 2.500000
      vertex 18.527864 0.391548 2.500000
    endloop
  endfacet
  facet normal -0.338738 -0.940881 0.000000
    outer loop
      vertex 18.527864 0.391548 5.000000
      vertex 18.055004 0.561788 5.000000
      vertex 18.527864 0.391548 2.500000
    endloop
  endfacet
  facet normal -0.278991 -0.960294 0.000000
    outer loop
      vertex 18.527864 0.391548 5.000000
      vertex 18.527864 0.391548 2.500000
      vertex 19.010481 0.251335 2.500000
    endloop
  endfacet
  facet normal -0.278991 -0.960294 0.000000
    outer loop
      vertex 19.010481 0.251335 5.000000
      vertex 18.527864 0.391548 5.000000
      vertex 19.010481 0.251335 2.500000
    endloop
  endfacet
  facet normal -0.218144 -0.975917 0.000000
    outer loop
      vertex 19.010481 0.251335 5.000000
      vertex 19.010481 0.251335 2.500000
      vertex 19.500949 0.141702 2.500000
    endloop
  endfacet
  facet normal -0.218144 -0.975917 0.000000
    outer loop
      vertex 19.500949 0.141702 5.000000
      vertex 19.010481 0.251335 5.000000
      vertex 19.500949 0.141702 2.500000
    endloop
  endfacet
  facet normal -0.156435 -0.987688 0.000000
    outer loop
      vertex 19.500949 0.141702 5.000000
      vertex 19.500949 0.141702 2.500000
      vertex 19.997334 0.063082 2.500000
    endloop
  endfacet
  facet normal -0.156435 -0.987688 0.000000
    outer loop
      vertex 19.997334 0.063082 5.000000
      vertex 19.500949 0.141702 5.000000
      vertex 19.997334 0.063082 2.500000
    endloop
  endfacet
  facet normal -0.094108 -0.995562 0.000000
    outer loop
      vertex 19.997334 0.063082 5.000000
      vertex 19.997334 0.063082 2.500000
      vertex 20.497676 0.015786 2.500000
    endloop
  endfacet
  facet normal -0.094108 -0.995562 0.000000
    outer loop
      vertex 20.497676 0.015786 5.000000
      vertex 19.997334 0.063082 5.000000
      vertex 20.497676 0.015786 2.500000
    endloop
  endfacet
  facet normal -0.031410 -0.999507 0.000000
    outer loop
      vertex 20.497676 0.015786 5.000000
      vertex 20.497676 0.015786 2.500000
      vertex 21.000000 0.000000 2.500000
    endloop
  endfacet
  facet normal -0.031410 -0.999507 0.000000
    outer loop
      vertex 21.000000 0.000000 5.000000
      vertex 20.497676 0.015786 5.000000
      vertex 21.000000 0.000000 2.500000
    endloop
  endfacet
  facet normal -1.000000 -0.000000 -0.000000
    outer loop
      vertex -21.000000 0.000000 2.500000
      vertex -21.000000 0.000000 5.000000
      vertex -21.000000 8.000000 2.500000
    endloop
  endfacet
  facet normal -1.000000 0.000000 0.000000
    outer loop
      vertex -21.000000 8.000000 2.500000
      vertex -21.000000 0.000000 5.000000
      vertex -21.000000 8.000000 5.000000
    endloop
  endfacet
  facet normal -0.031410 -0.999507 -0.000000
    outer loop
      vertex -20.497676 -0.015786 2.500000
      vertex -20.497676 -0.015786 5.000000
      vertex -21.000000 0.000000 5.000000
    endloop
  endfacet
  facet normal -0.031410 -0.999507 -0.000000
    outer loop
      vertex -21.000000 0.000000 2.500000
      vertex -20.497676 -0.015786 2.500000
      vertex -21.000000 0.000000 5.000000
    endloop
  endfacet
  facet normal -0.000000 -0.000000 -1.000000
    outer loop
      vertex -21.000000 0.000000 2.500000
      vertex -21.000000 8.000000 2.500000
      vertex -20.497676 -0.015786 2.500000
    endloop
  endfacet
  facet normal 0.000000 -0.000000 -1.000000
    outer loop
      vertex -20.497676 -0.015786 2.500000
      vertex -21.000000 8.000000 2.500000
      vertex -13.000000 8.000000 2.500000
    endloop
  endfacet
  facet normal 0.000000 0.000000 -1.000000
    outer loop
      vertex -20.497676 -0.015786 2.500000
      vertex -13.000000 8.000000 2.500000
      vertex -12.984214 7.497676 2.500000
    endloop
  endfacet
  facet normal 0.000000 0.000000 -1.000000
    outer loop
      vertex -20.497676 -0.015786 2.500000
      vertex -12.984214 7.497676 2.500000
      vertex -12.936918 6.997334 2.500000
    endloop
  endfacet
  facet normal 0.000000 0.000000 -1.000000
    outer loop
      vertex -12.936918 6.997334 2.500000
      vertex -12.858298 6.500949 2.500000
      vertex -20.497676 -0.015786 2.500000
    endloop
  endfacet
  facet normal 0.000000 0.000000 -1.000000
    outer loop
      vertex -12.858298 6.500949 2.500000
      vertex -12.748665 6.010481 2.500000
      vertex -20.497676 -0.015786 2.500000
    endloop
  endfacet
  facet normal 0.000000 0.000000 -1.000000
    outer loop
      vertex -12.748665 6.010481 2.500000
      vertex -12.608452 5.527864 2.500000
      vertex -20.497676 -0.015786 2.500000
    endloop
  endfacet
  facet normal 0.000000 0.000000 -1.000000
    outer loop
      vertex -12.608452 5.527864 2.500000
      vertex -12.438212 5.055004 2.500000
      vertex -20.497676 -0.015786 2.500000
    endloop
  endfacet
  facet normal 0.000000 0.000000 -1.000000
    outer loop
      vertex -12.438212 5.055004 2.500000
      vertex -12.238616 4.593766 2.500000
      vertex -20.497676 -0.015786 2.500000
    endloop
  endfacet
  facet normal 0.000000 0.000000 -1.000000
    outer loop
      vertex -12.238616 4.593766 2.500000
      vertex -12.010453 4.145971 2.500000
      vertex -20.497676 -0.015786 2.500000
    endloop
  endfacet
  facet normal 0.000000 0.000000 -1.000000
    outer loop
      vertex -12.010453 4.145971 2.500000
      vertex -11.754623 3.713386 2.500000
      vertex -20.497676 -0.015786 2.500000
    endloop
  endfacet
  facet normal 0.000000 0.000000 -1.000000
    outer loop
      vertex -11.754623 3.713386 2.500000
      vertex -11.472136 3.297718 2.500000
      vertex -20.497676 -0.015786 2.500000
    endloop
  endfacet
  facet normal 0.000000 0.000000 -1.000000
    outer loop
      vertex -11.472136 3.297718 2.500000
      vertex -11.164106 2.900608 2.500000
      vertex -20.497676 -0.015786 2.500000
    endloop
  endfacet
  facet normal 0.000000 0.000000 -1.000000
    outer loop
      vertex -11.164106 2.900608 2.500000
      vertex -10.831749 2.523623 2.500000
      vertex -20.497676 -0.015786 2.500000
    endloop
  endfacet
  facet normal 0.000000 0.000000 -1.000000
    outer loop
      vertex -10.831749 2.523623 2.500000
      vertex -10.476377 2.168251 2.500000
      vertex -20.497676 -0.015786 2.500000
    endloop
  endfacet
  facet normal 0.000000 0.000000 -1.000000
    outer loop
      vertex -10.476377 2.168251 2.500000
      vertex -10.099392 1.835894 2.500000
      vertex -20.497676 -0.015786 2.500000
    endloop
  endfacet
  facet normal 0.000000 0.000000 -1.000000
    outer loop
      vertex -10.099392 1.835894 2.500000
      vertex -9.702282 1.527864 2.500000
      vertex -20.497676 -0.015786 2.500000
    endloop
  endfacet
  facet normal 0.000000 0.000000 -1.000000
    outer loop
      vertex -9.702282 1.527864 2.500000
      vertex -9.286614 1.245377 2.500000
      vertex -20.497676 -0.015786 2.500000
    endloop
  endfacet
  facet normal 0.000000 0.000000 -1.000000
    outer loop
      vertex -9.286614 1.245377 2.500000
      vertex -8.854029 0.989547 2.500000
      vertex -20.497676 -0.015786 2.500000
    endloop
  endfacet
  facet normal 0.000000 0.000000 -1.000000
    outer loop
      vertex -8.854029 0.989547 2.500000
      vertex -8.406234 0.761384 2.500000
      vertex -20.497676 -0.015786 2.500000
    endloop
  endfacet
  facet normal 0.000000 0.000000 -1.000000
    outer loop
      vertex -8.406234 0.761384 2.500000
      vertex -7.944996 0.561788 2.500000
      vertex -20.497676 -0.015786 2.500000
    endloop
  endfacet
  facet normal 0.000000 0.000000 -1.000000
    outer loop
      vertex -7.944996 0.561788 2.500000
      vertex -7.472136 0.391548 2.500000
      vertex -20.497676 -0.015786 2.500000
    endloop
  endfacet
  facet normal 0.000000 0.000000 -1.000000
    outer loop
      vertex -7.472136 0.391548 2.500000
      vertex -6.989519 0.251335 2.500000
      vertex -20.497676 -0.015786 2.500000
    endloop
  endfacet
  facet normal 0.000000 0.000000 -1.000000
    outer loop
      vertex -6.989519 0.251335 2.500000
      vertex -6.499051 0.141702 2.500000
      vertex -20.497676 -0.015786 2.500000
    endloop
  endfacet
  facet normal 0.000000 0.000000 -1.000000
    outer loop
      vertex -6.499051 0.141702 2.500000
      vertex -6.002666 0.063082 2.500000
      vertex -20.497676 -0.015786 2.500000
    endloop
  endfacet
  facet normal 0.000000 0.000000 -1.000000
    outer loop
      vertex -6.002666 0.063082 2.500000
      vertex -5.502324 0.015786 2.500000
      vertex -20.497676 -0.015786 2.500000
    endloop
  endfacet
  facet normal 0.000000 0.000000 -1.000000
    outer loop
      vertex -5.502324 0.015786 2.500000
      vertex -5.000000 0.000000 2.500000
      vertex -20.497676 -0.015786 2.500000
    endloop
  endfacet
  facet normal -0.000000 0.000000 -1.000000
    outer loop
      vertex -14.835894 -2.900608 2.500000
      vertex -5.000000 0.000000 2.500000
      vertex -5.000000 -8.000000 2.500000
    endloop
  endfacet
  facet normal 0.000000 0.000000 -1.000000
    outer loop
      vertex -5.000000 -8.000000 2.500000
      vertex -13.000000 -8.000000 2.500000
      vertex -13.015786 -7.497676 2.500000
    endloop
  endfacet
  facet normal 0.000000 0.000000 -1.000000
    outer loop
      vertex -5.000000 -8.000000 2.500000
      vertex -13.015786 -7.497676 2.500000
      vertex -13.063082 -6.997334 2.500000
    endloop
  endfacet
  facet normal 0.000000 0.000000 -1.000000
    outer loop
      vertex -5.000000 -8.000000 2.500000
      vertex -13.063082 -6.997334 2.500000
      vertex -13.141702 -6.500949 2.500000
    endloop
  endfacet
  facet normal 0.000000 0.000000 -1.000000
    outer loop
      vertex -5.000000 -8.000000 2.500000
      vertex -13.141702 -6.500949 2.500000
      vertex -13.251335 -6.010481 2.500000
    endloop
  endfacet
  facet normal 0.000000 0.000000 -1.000000
    outer loop
      vertex -5.000000 -8.000000 2.500000
      vertex -13.251335 -6.010481 2.500000
      vertex -13.391548 -5.527864 2.500000
    endloop
  endfacet
  facet normal 0.000000 0.000000 -1.000000
    outer loop
      vertex -5.000000 -8.000000 2.500000
      vertex -13.391548 -5.527864 2.500000
      vertex -13.561788 -5.055004 2.500000
    endloop
  endfacet
  facet normal 0.000000 0.000000 -1.000000
    outer loop
      vertex -5.000000 -8.000000 2.500000
      vertex -13.561788 -5.055004 2.500000
      vertex -13.761384 -4.593766 2.500000
    endloop
  endfacet
  facet normal 0.000000 0.000000 -1.000000
    outer loop
      vertex -5.000000 -8.000000 2.500000
      vertex -13.761384 -4.593766 2.500000
      vertex -13.989547 -4.145971 2.500000
    endloop
  endfacet
  facet normal 0.000000 0.000000 -1.000000
    outer loop
      vertex -5.000000 -8.000000 2.500000
      vertex -13.989547 -4.145971 2.500000
      vertex -14.245377 -3.713386 2.500000
    endloop
  endfacet
  facet normal 0.000000 0.000000 -1.000000
    outer loop
      vertex -5.000000 -8.000000 2.500000
      vertex -14.245377 -3.713386 2.500000
      vertex -14.527864 -3.297718 2.500000
    endloop
  endfacet
  facet normal -0.000000 0.000000 -1.000000
    outer loop
      vertex -15.168251 -2.523623 2.500000
      vertex -5.000000 0.000000 2.500000
      vertex -14.835894 -2.900608 2.500000
    endloop
  endfacet
  facet normal -0.000000 0.000000 -1.000000
    outer loop
      vertex -15.523623 -2.168251 2.500000
      vertex -5.000000 0.000000 2.500000
      vertex -15.168251 -2.523623 2.500000
    endloop
  endfacet
  facet normal -0.000000 0.000000 -1.000000
    outer loop
      vertex -15.900608 -1.835894 2.500000
      vertex -5.000000 0.000000 2.500000
      vertex -15.523623 -2.168251 2.500000
    endloop
  endfacet
  facet normal -0.000000 0.000000 -1.000000
    outer loop
      vertex -16.297718 -1.527864 2.500000
      vertex -5.000000 0.000000 2.500000
      vertex -15.900608 -1.835894 2.500000
    endloop
  endfacet
  facet normal -0.000000 0.000000 -1.000000
    outer loop
      vertex -16.713386 -1.245377 2.500000
      vertex -5.000000 0.000000 2.500000
      vertex -16.297718 -1.527864 2.500000
    endloop
  endfacet
  facet normal -0.000000 0.000000 -1.000000
    outer loop
      vertex -17.145971 -0.989547 2.500000
      vertex -5.000000 0.000000 2.500000
      vertex -16.713386 -1.245377 2.500000
    endloop
  endfacet
  facet normal -0.000000 0.000000 -1.000000
    outer loop
      vertex -17.593766 -0.761384 2.500000
      vertex -5.000000 0.000000 2.500000
      vertex -17.145971 -0.989547 2.500000
    endloop
  endfacet
  facet normal -0.000000 0.000000 -1.000000
    outer loop
      vertex -18.055004 -0.561788 2.500000
      vertex -5.000000 0.000000 2.500000
      vertex -17.593766 -0.761384 2.500000
    endloop
  endfacet
  facet normal -0.000000 0.000000 -1.000000
    outer loop
      vertex -18.527864 -0.391548 2.500000
      vertex -5.000000 0.000000 2.500000
      vertex -18.055004 -0.561788 2.500000
    endloop
  endfacet
  facet normal -0.000000 0.000000 -1.000000
    outer loop
      vertex -19.010481 -0.251335 2.500000
      vertex -5.000000 0.000000 2.500000
      vertex -18.527864 -0.391548 2.500000
    endloop
  endfacet
  facet normal -0.000000 0.000000 -1.000000
    outer loop
      vertex -19.500949 -0.141702 2.500000
      vertex -5.000000 0.000000 2.500000
      vertex -19.010481 -0.251335 2.500000
    endloop
  endfacet
  facet normal -0.000000 0.000000 -1.000000
    outer loop
      vertex -19.997334 -0.063082 2.500000
      vertex -5.000000 0.000000 2.500000
      vertex -19.500949 -0.141702 2.500000
    endloop
  endfacet
  facet normal -0.000000 0.000000 -1.000000
    outer loop
      vertex -20.497676 -0.015786 2.500000
      vertex -5.000000 0.000000 2.500000
      vertex -19.997334 -0.063082 2.500000
    endloop
  endfacet
  facet normal 0.000000 0.000000 -1.000000
    outer loop
      vertex -14.835894 -2.900608 2.500000
      vertex -5.000000 -8.000000 2.500000
      vertex -14.527864 -3.297718 2.500000
    endloop
  endfacet
  facet normal 0.000000 1.000000 0.000000
    outer loop
      vertex -21.000000 8.000000 2.500000
      vertex -21.000000 8.000000 5.000000
      vertex -13.000000 8.000000 2.500000
    endloop
  endfacet
  facet normal 0.000000 1.000000 0.000000
    outer loop
      vertex -13.000000 8.000000 2.500000
      vertex -21.000000 8.000000 5.000000
      vertex -13.000000 8.000000 5.000000
    endloop
  endfacet
  facet normal 0.000000 0.000000 1.000000
    outer loop
      vertex -19.500949 -0.141702 5.000000
      vertex -19.010481 -0.251335 5.000000
      vertex -21.000000 8.000000 5.000000
    endloop
  endfacet
  facet normal 0.000000 -0.000000 1.000000
    outer loop
      vertex -21.000000 8.000000 5.000000
      vertex -21.000000 0.000000 5.000000
      vertex -20.497676 -0.015786 5.000000
    endloop
  endfacet
  facet normal 0.000000 0.000000 1.000000
    outer loop
      vertex -19.010481 -0.251335 5.000000
      vertex -18.527864 -0.391548 5.000000
      vertex -21.000000 8.000000 5.000000
    endloop
  endfacet
  facet normal 0.000000 0.000000 1.000000
    outer loop
      vertex -19.997334 -0.063082 5.000000
      vertex -21.000000 8.000000 5.000000
      vertex -20.497676 -0.015786 5.000000
    endloop
  endfacet
  facet normal 0.000000 0.000000 1.000000
    outer loop
      vertex -19.997334 -0.063082 5.000000
      vertex -19.500949 -0.141702 5.000000
      vertex -21.000000 8.000000 5.000000
    endloop
  endfacet
  facet normal 0.000000 0.000000 1.000000
    outer loop
      vertex -18.527864 -0.391548 5.000000
      vertex -18.055004 -0.561788 5.000000
      vertex -21.000000 8.000000 5.000000
    endloop
  endfacet
  facet normal 0.000000 0.000000 1.000000
    outer loop
      vertex -18.055004 -0.561788 5.000000
      vertex -17.593766 -0.761384 5.000000
      vertex -21.000000 8.000000 5.000000
    endloop
  endfacet
  facet normal 0.000000 0.000000 1.000000
    outer loop
      vertex -17.593766 -0.761384 5.000000
      vertex -17.145971 -0.989547 5.000000
      vertex -21.000000 8.000000 5.000000
    endloop
  endfacet
  facet normal 0.000000 0.000000 1.000000
    outer loop
      vertex -17.145971 -0.989547 5.000000
      vertex -16.713386 -1.245377 5.000000
      vertex -21.000000 8.000000 5.000000
    endloop
  endfacet
  facet normal 0.000000 0.000000 1.000000
    outer loop
      vertex -16.713386 -1.245377 5.000000
      vertex -16.297718 -1.527864 5.000000
      vertex -21.000000 8.000000 5.000000
    endloop
  endfacet
  facet normal 0.000000 0.000000 1.000000
    outer loop
      vertex -16.297718 -1.527864 5.000000
      vertex -15.900608 -1.835894 5.000000
      vertex -21.000000 8.000000 5.000000
    endloop
  endfacet
  facet normal 0.000000 0.000000 1.000000
    outer loop
      vertex -15.900608 -1.835894 5.000000
      vertex -15.523623 -2.168251 5.000000
      vertex -21.000000 8.000000 5.000000
    endloop
  endfacet
  facet normal 0.000000 0.000000 1.000000
    outer loop
      vertex -15.523623 -2.168251 5.000000
      vertex -15.168251 -2.523623 5.000000
      vertex -21.000000 8.000000 5.000000
    endloop
  endfacet
  facet normal 0.000000 0.000000 1.000000
    outer loop
      vertex -15.168251 -2.523623 5.000000
      vertex -14.835894 -2.900608 5.000000
      vertex -21.000000 8.000000 5.000000
    endloop
  endfacet
  facet normal 0.000000 0.000000 1.000000
    outer loop
      vertex -14.835894 -2.900608 5.000000
      vertex -14.527864 -3.297718 5.000000
      vertex -21.000000 8.000000 5.000000
    endloop
  endfacet
  facet normal 0.000000 0.000000 1.000000
    outer loop
      vertex -14.527864 -3.297718 5.000000
      vertex -14.245377 -3.713386 5.000000
      vertex -21.000000 8.000000 5.000000
    endloop
  endfacet
  facet normal 0.000000 0.000000 1.000000
    outer loop
      vertex -14.245377 -3.713386 5.000000
      vertex -13.989547 -4.145971 5.000000
      vertex -21.000000 8.000000 5.000000
    endloop
  endfacet
  facet normal 0.000000 0.000000 1.000000
    outer loop
      vertex -13.989547 -4.145971 5.000000
      vertex -5.000000 -8.000000 5.000000
      vertex -21.000000 8.000000 5.000000
    endloop
  endfacet
  facet normal 0.000000 0.000000 1.000000
    outer loop
      vertex -13.761384 -4.593766 5.000000
      vertex -5.000000 -8.000000 5.000000
      vertex -13.989547 -4.145971 5.000000
    endloop
  endfacet
  facet normal 0.000000 0.000000 1.000000
    outer loop
      vertex -13.561788 -5.055004 5.000000
      vertex -5.000000 -8.000000 5.000000
      vertex -13.761384 -4.593766 5.000000
    endloop
  endfacet
  facet normal 0.000000 0.000000 1.000000
    outer loop
      vertex -13.391548 -5.527864 5.000000
      vertex -5.000000 -8.000000 5.000000
      vertex -13.561788 -5.055004 5.000000
    endloop
  endfacet
  facet normal 0.000000 0.000000 1.000000
    outer loop
      vertex -13.251335 -6.010481 5.000000
      vertex -5.000000 -8.000000 5.000000
      vertex -13.391548 -5.527864 5.000000
    endloop
  endfacet
  facet normal 0.000000 0.000000 1.000000
    outer loop
      vertex -13.141702 -6.500949 5.000000
      vertex -5.000000 -8.000000 5.000000
      vertex -13.251335 -6.010481 5.000000
    endloop
  endfacet
  facet normal 0.000000 0.000000 1.000000
    outer loop
      vertex -13.063082 -6.997334 5.000000
      vertex -5.000000 -8.000000 5.000000
      vertex -13.141702 -6.500949 5.000000
    endloop
  endfacet
  facet normal 0.000000 0.000000 1.000000
    outer loop
      vertex -13.015786 -7.497676 5.000000
      vertex -5.000000 -8.000000 5.000000
      vertex -13.063082 -6.997334 5.000000
    endloop
  endfacet
  facet normal 0.000000 0.000000 1.000000
    outer loop
      vertex -11.472136 3.297718 5.000000
      vertex -11.754623 3.713386 5.000000
      vertex -21.000000 8.000000 5.000000
    endloop
  endfacet
  facet normal 0.000000 0.000000 1.000000
    outer loop
      vertex -13.000000 -8.000000 5.000000
      vertex -5.000000 -8.000000 5.000000
      vertex -13.015786 -7.497676 5.000000
    endloop
  endfacet
  facet normal 0.000000 0.000000 1.000000
    outer loop
      vertex -5.000000 -8.000000 5.000000
      vertex -5.000000 0.000000 5.000000
      vertex -5.502324 0.015786 5.000000
    endloop
  endfacet
  facet normal 0.000000 0.000000 1.000000
    outer loop
      vertex -5.000000 -8.000000 5.000000
      vertex -5.502324 0.015786 5.000000
      vertex -6.002666 0.063082 5.000000
    endloop
  endfacet
  facet normal 0.000000 0.000000 1.000000
    outer loop
      vertex -10.831749 2.523623 5.000000
      vertex -11.164106 2.900608 5.000000
      vertex -21.000000 8.000000 5.000000
    endloop
  endfacet
  facet normal 0.000000 0.000000 1.000000
    outer loop
      vertex -5.000000 -8.000000 5.000000
      vertex -6.002666 0.063082 5.000000
      vertex -6.499051 0.141702 5.000000
    endloop
  endfacet
  facet normal 0.000000 0.000000 1.000000
    outer loop
      vertex -11.164106 2.900608 5.000000
      vertex -11.472136 3.297718 5.000000
      vertex -21.000000 8.000000 5.000000
    endloop
  endfacet
  facet normal 0.000000 0.000000 1.000000
    outer loop
      vertex -5.000000 -8.000000 5.000000
      vertex -6.499051 0.141702 5.000000
      vertex -6.989519 0.251335 5.000000
    endloop
  endfacet
  facet normal 0.000000 0.000000 1.000000
    outer loop
      vertex -5.000000 -8.000000 5.000000
      vertex -6.989519 0.251335 5.000000
      vertex -7.472136 0.391548 5.000000
    endloop
  endfacet
  facet normal 0.000000 0.000000 1.000000
    outer loop
      vertex -10.099392 1.835894 5.000000
      vertex -10.476377 2.168251 5.000000
      vertex -21.000000 8.000000 5.000000
    endloop
  endfacet
  facet normal 0.000000 0.000000 1.000000
    outer loop
      vertex -5.000000 -8.000000 5.000000
      vertex -7.472136 0.391548 5.000000
      vertex -7.944996 0.561788 5.000000
    endloop
  endfacet
  facet normal 0.000000 0.000000 1.000000
    outer loop
      vertex -9.702282 1.527864 5.000000
      vertex -10.099392 1.835894 5.000000
      vertex -21.000000 8.000000 5.000000
    endloop
  endfacet
  facet normal 0.000000 0.000000 1.000000
    outer loop
      vertex -5.000000 -8.000000 5.000000
      vertex -7.944996 0.561788 5.000000
      vertex -8.406234 0.761384 5.000000
    endloop
  endfacet
  facet normal 0.000000 0.000000 1.000000
    outer loop
      vertex -5.000000 -8.000000 5.000000
      vertex -8.854029 0.989547 5.000000
      vertex -21.000000 8.000000 5.000000
    endloop
  endfacet
  facet normal 0.000000 0.000000 1.000000
    outer loop
      vertex -5.000000 -8.000000 5.000000
      vertex -8.406234 0.761384 5.000000
      vertex -8.854029 0.989547 5.000000
    endloop
  endfacet
  facet normal 0.000000 0.000000 1.000000
    outer loop
      vertex -8.854029 0.989547 5.000000
      vertex -9.286614 1.245377 5.000000
      vertex -21.000000 8.000000 5.000000
    endloop
  endfacet
  facet normal 0.000000 0.000000 1.000000
    outer loop
      vertex -11.754623 3.713386 5.000000
      vertex -12.010453 4.145971 5.000000
      vertex -21.000000 8.000000 5.000000
    endloop
  endfacet
  facet normal 0.000000 0.000000 1.000000
    outer loop
      vertex -12.010453 4.145971 5.000000
      vertex -12.238616 4.593766 5.000000
      vertex -21.000000 8.000000 5.000000
    endloop
  endfacet
  facet normal 0.000000 0.000000 1.000000
    outer loop
      vertex -12.238616 4.593766 5.000000
      vertex -12.438212 5.055004 5.000000
      vertex -21.000000 8.000000 5.000000
    endloop
  endfacet
  facet normal 0.000000 0.000000 1.000000
    outer loop
      vertex -12.438212 5.055004 5.000000
      vertex -12.608452 5.527864 5.000000
      vertex -21.000000 8.000000 5.000000
    endloop
  endfacet
  facet normal 0.000000 0.000000 1.000000
    outer loop
      vertex -12.608452 5.527864 5.000000
      vertex -12.748665 6.010481 5.000000
      vertex -21.000000 8.000000 5.000000
    endloop
  endfacet
  facet normal 0.000000 0.000000 1.000000
    outer loop
      vertex -12.748665 6.010481 5.000000
      vertex -12.858298 6.500949 5.000000
      vertex -21.000000 8.000000 5.000000
    endloop
  endfacet
  facet normal 0.000000 0.000000 1.000000
    outer loop
      vertex -12.858298 6.500949 5.000000
      vertex -12.936918 6.997334 5.000000
      vertex -21.000000 8.000000 5.000000
    endloop
  endfacet
  facet normal 0.000000 0.000000 1.000000
    outer loop
      vertex -12.936918 6.997334 5.000000
      vertex -12.984214 7.497676 5.000000
      vertex -21.000000 8.000000 5.000000
    endloop
  endfacet
  facet normal 0.000000 0.000000 1.000000
    outer loop
      vertex -12.984214 7.497676 5.000000
      vertex -13.000000 8.000000 5.000000
      vertex -21.000000 8.000000 5.000000
    endloop
  endfacet
  facet normal 0.000000 0.000000 1.000000
    outer loop
      vertex -9.286614 1.245377 5.000000
      vertex -9.702282 1.527864 5.000000
      vertex -21.000000 8.000000 5.000000
    endloop
  endfacet
  facet normal 0.000000 0.000000 1.000000
    outer loop
      vertex -10.476377 2.168251 5.000000
      vertex -10.831749 2.523623 5.000000
      vertex -21.000000 8.000000 5.000000
    endloop
  endfacet
  facet normal -0.094108 -0.995562 -0.000000
    outer loop
      vertex -19.997334 -0.063082 2.500000
      vertex -19.997334 -0.063082 5.000000
      vertex -20.497676 -0.015786 5.000000
    endloop
  endfacet
  facet normal -0.094108 -0.995562 -0.000000
    outer loop
      vertex -20.497676 -0.015786 2.500000
      vertex -19.997334 -0.063082 2.500000
      vertex -20.497676 -0.015786 5.000000
    endloop
  endfacet
  facet normal -0.156435 -0.987688 -0.000000
    outer loop
      vertex -19.500949 -0.141702 2.500000
      vertex -19.500949 -0.141702 5.000000
      vertex -19.997334 -0.063082 5.000000
    endloop
  endfacet
  facet normal -0.156435 -0.987688 -0.000000
    outer loop
      vertex -19.997334 -0.063082 2.500000
      vertex -19.500949 -0.141702 2.500000
      vertex -19.997334 -0.063082 5.000000
    endloop
  endfacet
  facet normal -0.218144 -0.975917 -0.000000
    outer loop
      vertex -19.010481 -0.251335 2.500000
      vertex -19.010481 -0.251335 5.000000
      vertex -19.500949 -0.141702 5.000000
    endloop
  endfacet
  facet normal -0.218144 -0.975917 -0.000000
    outer loop
      vertex -19.500949 -0.141702 2.500000
      vertex -19.010481 -0.251335 2.500000
      vertex -19.500949 -0.141702 5.000000
    endloop
  endfacet
  facet normal -0.278991 -0.960294 -0.000000
    outer loop
      vertex -18.527864 -0.391548 2.500000
      vertex -18.527864 -0.391548 5.000000
      vertex -19.010481 -0.251335 5.000000
    endloop
  endfacet
  facet normal -0.278991 -0.960294 -0.000000
    outer loop
      vertex -19.010481 -0.251335 2.500000
      vertex -18.527864 -0.391548 2.500000
      vertex -19.010481 -0.251335 5.000000
    endloop
  endfacet
  facet normal -0.338738 -0.940881 -0.000000
    outer loop
      vertex -18.055004 -0.561788 2.500000
      vertex -18.055004 -0.561788 5.000000
      vertex -18.527864 -0.391548 5.000000
    endloop
  endfacet
  facet normal -0.338738 -0.940881 -0.000000
    outer loop
      vertex -18.527864 -0.391548 2.500000
      vertex -18.055004 -0.561788 2.500000
      vertex -18.527864 -0.391548 5.000000
    endloop
  endfacet
  facet normal -0.397149 -0.917754 -0.000000
    outer loop
      vertex -17.593766 -0.761384 2.500000
      vertex -17.593766 -0.761384 5.000000
      vertex -18.055004 -0.561788 5.000000
    endloop
  endfacet
  facet normal -0.397149 -0.917754 -0.000000
    outer loop
      vertex -18.055004 -0.561788 2.500000
      vertex -17.593766 -0.761384 2.500000
      vertex -18.055004 -0.561788 5.000000
    endloop
  endfacet
  facet normal -0.453991 -0.891006 -0.000000
    outer loop
      vertex -17.145971 -0.989547 2.500000
      vertex -17.145971 -0.989547 5.000000
      vertex -17.593766 -0.761384 5.000000
    endloop
  endfacet
  facet normal -0.453991 -0.891006 -0.000000
    outer loop
      vertex -17.593766 -0.761384 2.500000
      vertex -17.145971 -0.989547 2.500000
      vertex -17.593766 -0.761384 5.000000
    endloop
  endfacet
  facet normal -0.509041 -0.860742 -0.000000
    outer loop
      vertex -16.713386 -1.245377 2.500000
      vertex -16.713386 -1.245377 5.000000
      vertex -17.145971 -0.989547 5.000000
    endloop
  endfacet
  facet normal -0.509041 -0.860742 -0.000000
    outer loop
      vertex -17.145971 -0.989547 2.500000
      vertex -16.713386 -1.245377 2.500000
      vertex -17.145971 -0.989547 5.000000
    endloop
  endfacet
  facet normal -0.562082 -0.827081 -0.000000
    outer loop
      vertex -16.297718 -1.527864 2.500000
      vertex -16.297718 -1.527864 5.000000
      vertex -16.713386 -1.245377 5.000000
    endloop
  endfacet
  facet normal -0.562082 -0.827081 -0.000000
    outer loop
      vertex -16.713386 -1.245377 2.500000
      vertex -16.297718 -1.527864 2.500000
      vertex -16.713386 -1.245377 5.000000
    endloop
  endfacet
  facet normal -0.612907 -0.790155 -0.000000
    outer loop
      vertex -15.900608 -1.835894 2.500000
      vertex -15.900608 -1.835894 5.000000
      vertex -16.297718 -1.527864 5.000000
    endloop
  endfacet
  facet normal -0.612907 -0.790155 -0.000000
    outer loop
      vertex -16.297718 -1.527864 2.500000
      vertex -15.900608 -1.835894 2.500000
      vertex -16.297718 -1.527864 5.000000
    endloop
  endfacet
  facet normal -0.661312 -0.750111 -0.000000
    outer loop
      vertex -15.523623 -2.168251 2.500000
      vertex -15.523623 -2.168251 5.000000
      vertex -15.900608 -1.835894 5.000000
    endloop
  endfacet
  facet normal -0.661312 -0.750111 -0.000000
    outer loop
      vertex -15.900608 -1.835894 2.500000
      vertex -15.523623 -2.168251 2.500000
      vertex -15.900608 -1.835894 5.000000
    endloop
  endfacet
  facet normal -0.707107 -0.707107 -0.000000
    outer loop
      vertex -15.168251 -2.523623 2.500000
      vertex -15.168251 -2.523623 5.000000
      vertex -15.523623 -2.168251 5.000000
    endloop
  endfacet
  facet normal -0.707107 -0.707107 -0.000000
    outer loop
      vertex -15.523623 -2.168251 2.500000
      vertex -15.168251 -2.523623 2.500000
      vertex -15.523623 -2.168251 5.000000
    endloop
  endfacet
  facet normal -0.750111 -0.661312 0.000000
    outer loop
      vertex -14.835894 -2.900608 5.000000
      vertex -15.168251 -2.523623 5.000000
      vertex -14.835894 -2.900608 2.500000
    endloop
  endfacet
  facet normal -0.750111 -0.661312 0.000000
    outer loop
      vertex -14.835894 -2.900608 2.500000
      vertex -15.168251 -2.523623 5.000000
      vertex -15.168251 -2.523623 2.500000
    endloop
  endfacet
  facet normal -0.790155 -0.612907 0.000000
    outer loop
      vertex -14.527864 -3.297718 5.000000
      vertex -14.835894 -2.900608 5.000000
      vertex -14.527864 -3.297718 2.500000
    endloop
  endfacet
  facet normal -0.790155 -0.612907 0.000000
    outer loop
      vertex -14.527864 -3.297718 2.500000
      vertex -14.835894 -2.900608 5.000000
      vertex -14.835894 -2.900608 2.500000
    endloop
  endfacet
  facet normal -0.827081 -0.562082 0.000000
    outer loop
      vertex -14.245377 -3.713386 5.000000
      vertex -14.527864 -3.297718 5.000000
      vertex -14.245377 -3.713386 2.500000
    endloop
  endfacet
  facet normal -0.827081 -0.562082 0.000000
    outer loop
      vertex -14.245377 -3.713386 2.500000
      vertex -14.527864 -3.297718 5.000000
      vertex -14.527864 -3.297718 2.500000
    endloop
  endfacet
  facet normal -0.860742 -0.509041 0.000000
    outer loop
      vertex -13.989547 -4.145971 5.000000
      vertex -14.245377 -3.713386 5.000000
      vertex -13.989547 -4.145971 2.500000
    endloop
  endfacet
  facet normal -0.860742 -0.509041 0.000000
    outer loop
      vertex -13.989547 -4.145971 2.500000
      vertex -14.245377 -3.713386 5.000000
      vertex -14.245377 -3.713386 2.500000
    endloop
  endfacet
  facet normal -0.891006 -0.453991 0.000000
    outer loop
      vertex -13.761384 -4.593766 5.000000
      vertex -13.989547 -4.145971 5.000000
      vertex -13.761384 -4.593766 2.500000
    endloop
  endfacet
  facet normal -0.891006 -0.453991 0.000000
    outer loop
      vertex -13.761384 -4.593766 2.500000
      vertex -13.989547 -4.145971 5.000000
      vertex -13.989547 -4.145971 2.500000
    endloop
  endfacet
  facet normal -0.917754 -0.397149 0.000000
    outer loop
      vertex -13.561788 -5.055004 5.000000
      vertex -13.761384 -4.593766 5.000000
      vertex -13.561788 -5.055004 2.500000
    endloop
  endfacet
  facet normal -0.917754 -0.397149 0.000000
    outer loop
      vertex -13.561788 -5.055004 2.500000
      vertex -13.761384 -4.593766 5.000000
      vertex -13.761384 -4.593766 2.500000
    endloop
  endfacet
  facet normal -0.940881 -0.338738 0.000000
    outer loop
      vertex -13.391548 -5.527864 5.000000
      vertex -13.561788 -5.055004 5.000000
      vertex -13.391548 -5.527864 2.500000
    endloop
  endfacet
  facet normal -0.940881 -0.338738 0.000000
    outer loop
      vertex -13.391548 -5.527864 2.500000
      vertex -13.561788 -5.055004 5.000000
      vertex -13.561788 -5.055004 2.500000
    endloop
  endfacet
  facet normal -0.960294 -0.278991 0.000000
    outer loop
      vertex -13.251335 -6.010481 5.000000
      vertex -13.391548 -5.527864 5.000000
      vertex -13.251335 -6.010481 2.500000
    endloop
  endfacet
  facet normal -0.960294 -0.278991 0.000000
    outer loop
      vertex -13.251335 -6.010481 2.500000
      vertex -13.391548 -5.527864 5.000000
      vertex -13.391548 -5.527864 2.500000
    endloop
  endfacet
  facet normal -0.975917 -0.218144 0.000000
    outer loop
      vertex -13.141702 -6.500949 5.000000
      vertex -13.251335 -6.010481 5.000000
      vertex -13.141702 -6.500949 2.500000
    endloop
  endfacet
  facet normal -0.975917 -0.218144 0.000000
    outer loop
      vertex -13.141702 -6.500949 2.500000
      vertex -13.251335 -6.010481 5.000000
      vertex -13.251335 -6.010481 2.500000
    endloop
  endfacet
  facet normal -0.987688 -0.156435 0.000000
    outer loop
      vertex -13.063082 -6.997334 5.000000
      vertex -13.141702 -6.500949 5.000000
      vertex -13.063082 -6.997334 2.500000
    endloop
  endfacet
  facet normal -0.987688 -0.156435 0.000000
    outer loop
      vertex -13.063082 -6.997334 2.500000
      vertex -13.141702 -6.500949 5.000000
      vertex -13.141702 -6.500949 2.500000
    endloop
  endfacet
  facet normal -0.995562 -0.094108 0.000000
    outer loop
      vertex -13.015786 -7.497676 5.000000
      vertex -13.063082 -6.997334 5.000000
      vertex -13.015786 -7.497676 2.500000
    endloop
  endfacet
  facet normal -0.995562 -0.094108 0.000000
    outer loop
      vertex -13.015786 -7.497676 2.500000
      vertex -13.063082 -6.997334 5.000000
      vertex -13.063082 -6.997334 2.500000
    endloop
  endfacet
  facet normal -0.999507 -0.031410 0.000000
    outer loop
      vertex -13.000000 -8.000000 5.000000
      vertex -13.015786 -7.497676 5.000000
      vertex -13.000000 -8.000000 2.500000
    endloop
  endfacet
  facet normal -0.999507 -0.031410 0.000000
    outer loop
      vertex -13.000000 -8.000000 2.500000
      vertex -13.015786 -7.497676 5.000000
      vertex -13.015786 -7.497676 2.500000
    endloop
  endfacet
  facet normal 0.000000 -1.000000 0.000000
    outer loop
      vertex -13.000000 -8.000000 5.000000
      vertex -13.000000 -8.000000 2.500000
      vertex -5.000000 -8.000000 2.500000
    endloop
  endfacet
  facet normal 0.000000 -1.000000 0.000000
    outer loop
      vertex -5.000000 -8.000000 5.000000
      vertex -13.000000 -8.000000 5.000000
      vertex -5.000000 -8.000000 2.500000
    endloop
  endfacet
  facet normal 1.000000 0.000000 -0.000000
    outer loop
      vertex -5.000000 -8.000000 5.000000
      vertex -5.000000 -8.000000 2.500000
      vertex -5.000000 0.000000 2.500000
    endloop
  endfacet
  facet normal 1.000000 0.000000 0.000000
    outer loop
      vertex -5.000000 0.000000 5.000000
      vertex -5.000000 -8.000000 5.000000
      vertex -5.000000 0.000000 2.500000
    endloop
  endfacet
  facet normal 0.031410 0.999507 -0.000000
    outer loop
      vertex -5.000000 0.000000 5.000000
      vertex -5.000000 0.000000 2.500000
      vertex -5.502324 0.015786 5.000000
    endloop
  endfacet
  facet normal 0.031410 0.999507 -0.000000
    outer loop
      vertex -5.502324 0.015786 5.000000
      vertex -5.000000 0.000000 2.500000
      vertex -5.502324 0.015786 2.500000
    endloop
  endfacet
  facet normal 0.094108 0.995562 -0.000000
    outer loop
      vertex -5.502324 0.015786 5.000000
      vertex -5.502324 0.015786 2.500000
      vertex -6.002666 0.063082 5.000000
    endloop
  endfacet
  facet normal 0.094108 0.995562 -0.000000
    outer loop
      vertex -6.002666 0.063082 5.000000
      vertex -5.502324 0.015786 2.500000
      vertex -6.002666 0.063082 2.500000
    endloop
  endfacet
  facet normal 0.156435 0.987688 -0.000000
    outer loop
      vertex -6.002666 0.063082 5.000000
      vertex -6.002666 0.063082 2.500000
      vertex -6.499051 0.141702 5.000000
    endloop
  endfacet
  facet normal 0.156435 0.987688 -0.000000
    outer loop
      vertex -6.499051 0.141702 5.000000
      vertex -6.002666 0.063082 2.500000
      vertex -6.499051 0.141702 2.500000
    endloop
  endfacet
  facet normal 0.218144 0.975917 -0.000000
    outer loop
      vertex -6.499051 0.141702 5.000000
      vertex -6.499051 0.141702 2.500000
      vertex -6.989519 0.251335 5.000000
    endloop
  endfacet
  facet normal 0.218144 0.975917 -0.000000
    outer loop
      vertex -6.989519 0.251335 5.000000
      vertex -6.499051 0.141702 2.500000
      vertex -6.989519 0.251335 2.500000
    endloop
  endfacet
  facet normal 0.278991 0.960294 -0.000000
    outer loop
      vertex -6.989519 0.251335 5.000000
      vertex -6.989519 0.251335 2.500000
      vertex -7.472136 0.391548 5.000000
    endloop
  endfacet
  facet normal 0.278991 0.960294 -0.000000
    outer loop
      vertex -7.472136 0.391548 5.000000
      vertex -6.989519 0.251335 2.500000
      vertex -7.472136 0.391548 2.500000
    endloop
  endfacet
  facet normal 0.338738 0.940881 -0.000000
    outer loop
      vertex -7.472136 0.391548 5.000000
      vertex -7.472136 0.391548 2.500000
      vertex -7.944996 0.561788 5.000000
    endloop
  endfacet
  facet normal 0.338738 0.940881 -0.000000
    outer loop
      vertex -7.944996 0.561788 5.000000
      vertex -7.472136 0.391548 2.500000
      vertex -7.944996 0.561788 2.500000
    endloop
  endfacet
  facet normal 0.397149 0.917754 -0.000000
    outer loop
      vertex -7.944996 0.561788 5.000000
      vertex -7.944996 0.561788 2.500000
      vertex -8.406234 0.761384 5.000000
    endloop
  endfacet
  facet normal 0.397149 0.917754 -0.000000
    outer loop
      vertex -8.406234 0.761384 5.000000
      vertex -7.944996 0.561788 2.500000
      vertex -8.406234 0.761384 2.500000
    endloop
  endfacet
  facet normal 0.453991 0.891006 -0.000000
    outer loop
      vertex -8.406234 0.761384 5.000000
      vertex -8.406234 0.761384 2.500000
      vertex -8.854029 0.989547 5.000000
    endloop
  endfacet
  facet normal 0.453991 0.891006 -0.000000
    outer loop
      vertex -8.854029 0.989547 5.000000
      vertex -8.406234 0.761384 2.500000
      vertex -8.854029 0.989547 2.500000
    endloop
  endfacet
  facet normal 0.509041 0.860742 -0.000000
    outer loop
      vertex -8.854029 0.989547 5.000000
      vertex -8.854029 0.989547 2.500000
      vertex -9.286614 1.245377 5.000000
    endloop
  endfacet
  facet normal 0.509041 0.860742 -0.000000
    outer loop
      vertex -9.286614 1.245377 5.000000
      vertex -8.854029 0.989547 2.500000
      vertex -9.286614 1.245377 2.500000
    endloop
  endfacet
  facet normal 0.562082 0.827081 -0.000000
    outer loop
      vertex -9.286614 1.245377 5.000000
      vertex -9.286614 1.245377 2.500000
      vertex -9.702282 1.527864 5.000000
    endloop
  endfacet
  facet normal 0.562082 0.827081 -0.000000
    outer loop
      vertex -9.702282 1.527864 5.000000
      vertex -9.286614 1.245377 2.500000
      vertex -9.702282 1.527864 2.500000
    endloop
  endfacet
  facet normal 0.612907 0.790155 -0.000000
    outer loop
      vertex -9.702282 1.527864 5.000000
      vertex -9.702282 1.527864 2.500000
      vertex -10.099392 1.835894 5.000000
    endloop
  endfacet
  facet normal 0.612907 0.790155 -0.000000
    outer loop
      vertex -10.099392 1.835894 5.000000
      vertex -9.702282 1.527864 2.500000
      vertex -10.099392 1.835894 2.500000
    endloop
  endfacet
  facet normal 0.661312 0.750111 -0.000000
    outer loop
      vertex -10.099392 1.835894 5.000000
      vertex -10.099392 1.835894 2.500000
      vertex -10.476377 2.168251 5.000000
    endloop
  endfacet
  facet normal 0.661312 0.750111 -0.000000
    outer loop
      vertex -10.476377 2.168251 5.000000
      vertex -10.099392 1.835894 2.500000
      vertex -10.476377 2.168251 2.500000
    endloop
  endfacet
  facet normal 0.707107 0.707107 -0.000000
    outer loop
      vertex -10.476377 2.168251 5.000000
      vertex -10.476377 2.168251 2.500000
      vertex -10.831749 2.523623 5.000000
    endloop
  endfacet
  facet normal 0.707107 0.707107 -0.000000
    outer loop
      vertex -10.831749 2.523623 5.000000
      vertex -10.476377 2.168251 2.500000
      vertex -10.831749 2.523623 2.500000
    endloop
  endfacet
  facet normal 0.750111 0.661312 0.000000
    outer loop
      vertex -11.164106 2.900608 5.000000
      vertex -10.831749 2.523623 5.000000
      vertex -10.831749 2.523623 2.500000
    endloop
  endfacet
  facet normal 0.750111 0.661312 0.000000
    outer loop
      vertex -11.164106 2.900608 2.500000
      vertex -11.164106 2.900608 5.000000
      vertex -10.831749 2.523623 2.500000
    endloop
  endfacet
  facet normal 0.790155 0.612907 0.000000
    outer loop
      vertex -11.472136 3.297718 5.000000
      vertex -11.164106 2.900608 5.000000
      vertex -11.164106 2.900608 2.500000
    endloop
  endfacet
  facet normal 0.790155 0.612907 0.000000
    outer loop
      vertex -11.472136 3.297718 2.500000
      vertex -11.472136 3.297718 5.000000
      vertex -11.164106 2.900608 2.500000
    endloop
  endfacet
  facet normal 0.827081 0.562082 0.000000
    outer loop
      vertex -11.754623 3.713386 5.000000
      vertex -11.472136 3.297718 5.000000
      vertex -11.472136 3.297718 2.500000
    endloop
  endfacet
  facet normal 0.827081 0.562082 0.000000
    outer loop
      vertex -11.754623 3.713386 2.500000
      vertex -11.754623 3.713386 5.000000
      vertex -11.472136 3.297718 2.500000
    endloop
  endfacet
  facet normal 0.860742 0.509041 0.000000
    outer loop
      vertex -12.010453 4.145971 5.000000
      vertex -11.754623 3.713386 5.000000
      vertex -11.754623 3.713386 2.500000
    endloop
  endfacet
  facet normal 0.860742 0.509041 0.000000
    outer loop
      vertex -12.010453 4.145971 2.500000
      vertex -12.010453 4.145971 5.000000
      vertex -11.754623 3.713386 2.500000
    endloop
  endfacet
  facet normal 0.891006 0.453991 0.000000
    outer loop
      vertex -12.238616 4.593766 5.000000
      vertex -12.010453 4.145971 5.000000
      vertex -12.010453 4.145971 2.500000
    endloop
  endfacet
  facet normal 0.891006 0.453991 0.000000
    outer loop
      vertex -12.238616 4.593766 2.500000
      vertex -12.238616 4.593766 5.000000
      vertex -12.010453 4.145971 2.500000
    endloop
  endfacet
  facet normal 0.917754 0.397149 0.000000
    outer loop
      vertex -12.438212 5.055004 5.000000
      vertex -12.238616 4.593766 5.000000
      vertex -12.238616 4.593766 2.500000
    endloop
  endfacet
  facet normal 0.917754 0.397149 0.000000
    outer loop
      vertex -12.438212 5.055004 2.500000
      vertex -12.438212 5.055004 5.000000
      vertex -12.238616 4.593766 2.500000
    endloop
  endfacet
  facet normal 0.940881 0.338738 0.000000
    outer loop
      vertex -12.608452 5.527864 5.000000
      vertex -12.438212 5.055004 5.000000
      vertex -12.438212 5.055004 2.500000
    endloop
  endfacet
  facet normal 0.940881 0.338738 0.000000
    outer loop
      vertex -12.608452 5.527864 2.500000
      vertex -12.608452 5.527864 5.000000
      vertex -12.438212 5.055004 2.500000
    endloop
  endfacet
  facet normal 0.960294 0.278991 0.000000
    outer loop
      vertex -12.748665 6.010481 5.000000
      vertex -12.608452 5.527864 5.000000
      vertex -12.608452 5.527864 2.500000
    endloop
  endfacet
  facet normal 0.960294 0.278991 0.000000
    outer loop
      vertex -12.748665 6.010481 2.500000
      vertex -12.748665 6.010481 5.000000
      vertex -12.608452 5.527864 2.500000
    endloop
  endfacet
  facet normal 0.975917 0.218144 0.000000
    outer loop
      vertex -12.858298 6.500949 5.000000
      vertex -12.748665 6.010481 5.000000
      vertex -12.748665 6.010481 2.500000
    endloop
  endfacet
  facet normal 0.975917 0.218144 0.000000
    outer loop
      vertex -12.858298 6.500949 2.500000
      vertex -12.858298 6.500949 5.000000
      vertex -12.748665 6.010481 2.500000
    endloop
  endfacet
  facet normal 0.987688 0.156435 0.000000
    outer loop
      vertex -12.936918 6.997334 5.000000
      vertex -12.858298 6.500949 5.000000
      vertex -12.858298 6.500949 2.500000
    endloop
  endfacet
  facet normal 0.987688 0.156435 0.000000
    outer loop
      vertex -12.936918 6.997334 2.500000
      vertex -12.936918 6.997334 5.000000
      vertex -12.858298 6.500949 2.500000
    endloop
  endfacet
  facet normal 0.995562 0.094108 0.000000
    outer loop
      vertex -12.984214 7.497676 5.000000
      vertex -12.936918 6.997334 5.000000
      vertex -12.936918 6.997334 2.500000
    endloop
  endfacet
  facet normal 0.995562 0.094108 0.000000
    outer loop
      vertex -12.984214 7.497676 2.500000
      vertex -12.984214 7.497676 5.000000
      vertex -12.936918 6.997334 2.500000
    endloop
  endfacet
  facet normal 0.999507 0.031410 0.000000
    outer loop
      vertex -13.000000 8.000000 5.000000
      vertex -12.984214 7.497676 5.000000
      vertex -12.984214 7.497676 2.500000
    endloop
  endfacet
  facet normal 0.999507 0.031410 0.000000
    outer loop
      vertex -13.000000 8.000000 2.500000
      vertex -13.000000 8.000000 5.000000
      vertex -12.984214 7.497676 2.500000
    endloop
  endfacet
endsolid OpenSCAD_Model
