solid OpenSCAD_Model
  facet normal -1.000000 -0.000000 -0.000000
    outer loop
      vertex 5.000000 -15.000000 0.000000
      vertex 5.000000 -15.000000 10.000000
      vertex 5.000000 15.000000 0.000000
    endloop
  endfacet
  facet normal -1.000000 0.000000 0.000000
    outer loop
      vertex 5.000000 -0.082172 6.000000
      vertex 5.000000 -15.000000 10.000000
      vertex 5.000000 -0.082172 10.000000
    endloop
  endfacet
  facet normal -1.000000 0.000000 0.000000
    outer loop
      vertex 5.000000 15.000000 0.000000
      vertex 5.000000 -15.000000 10.000000
      vertex 5.000000 -0.082172 6.000000
    endloop
  endfacet
  facet normal -1.000000 0.000000 0.000000
    outer loop
      vertex 5.000000 15.000000 6.000000
      vertex 5.000000 15.000000 0.000000
      vertex 5.000000 -0.082172 6.000000
    endloop
  endfacet
  facet normal 0.000000 -1.000000 0.000000
    outer loop
      vertex 5.000000 -15.000000 10.000000
      vertex 5.000000 -15.000000 0.000000
      vertex 35.000000 -15.000000 0.000000
    endloop
  endfacet
  facet normal 0.000000 -1.000000 0.000000
    outer loop
      vertex 20.000000 -15.000000 6.000000
      vertex 5.000000 -15.000000 10.000000
      vertex 35.000000 -15.000000 0.000000
    endloop
  endfacet
  facet normal 0.000000 -1.000000 0.000000
    outer loop
      vertex 35.000000 -15.000000 6.000000
      vertex 20.000000 -15.000000 6.000000
      vertex 35.000000 -15.000000 0.000000
    endloop
  endfacet
  facet normal 0.000000 -1.000000 0.000000
    outer loop
      vertex 20.000000 -15.000000 6.000000
      vertex 20.000000 -15.000000 10.000000
      vertex 5.000000 -15.000000 10.000000
    endloop
  endfacet
  facet normal -0.000000 -0.000000 -1.000000
    outer loop
      vertex 5.000000 -15.000000 0.000000
      vertex 5.000000 15.000000 0.000000
      vertex 35.000000 -15.000000 0.000000
    endloop
  endfacet
  facet normal 0.000000 0.000000 -1.000000
    outer loop
      vertex 35.000000 -15.000000 0.000000
      vertex 5.000000 15.000000 0.000000
      vertex 35.000000 15.000000 0.000000
    endloop
  endfacet
  facet normal 0.000000 1.000000 0.000000
    outer loop
      vertex 5.000000 15.000000 0.000000
      vertex 5.000000 15.000000 6.000000
      vertex 35.000000 15.000000 0.000000
    endloop
  endfacet
  facet normal 0.000000 1.000000 0.000000
    outer loop
      vertex 35.000000 15.000000 0.000000
      vertex 5.000000 15.000000 6.000000
      vertex 20.000000 15.000000 6.000000
    endloop
  endfacet
  facet normal 0.000000 1.000000 0.000000
    outer loop
      vertex 35.000000 15.000000 0.000000
      vertex 20.000000 15.000000 6.000000
      vertex 20.000000 15.000000 10.000000
    endloop
  endfacet
  facet normal 0.000000 1.000000 0.000000
    outer loop
      vertex 35.000000 15.000000 0.000000
      vertex 20.000000 15.000000 10.000000
      vertex 35.000000 15.000000 10.000000
    endloop
  endfacet
  facet normal 0.000000 0.000000 1.000000
    outer loop
      vertex 12.500000 -2.009619 6.000000
      vertex 15.036959 -3.852828 6.000000
      vertex 5.000000 15.000000 6.000000
    endloop
  endfacet
  facet normal 0.000000 -0.000000 1.000000
    outer loop
      vertex 5.000000 15.000000 6.000000
      vertex 5.000000 -0.082172 6.000000
      vertex 6.567927 -0.082172 6.000000
    endloop
  endfacet
  facet normal 0.000000 0.000000 1.000000
    outer loop
      vertex 15.036959 -3.852828 6.000000
      vertex 17.135255 -6.183221 6.000000
      vertex 5.000000 15.000000 6.000000
    endloop
  endfacet
  facet normal 0.000000 0.000000 1.000000
    outer loop
      vertex 9.635255 -0.734152 6.000000
      vertex 5.000000 15.000000 6.000000
      vertex 6.567927 -0.082172 6.000000
    endloop
  endfacet
  facet normal 0.000000 0.000000 1.000000
    outer loop
      vertex 9.635255 -0.734152 6.000000
      vertex 12.500000 -2.009619 6.000000
      vertex 5.000000 15.000000 6.000000
    endloop
  endfacet
  facet normal 0.000000 0.000000 1.000000
    outer loop
      vertex 17.135255 -6.183221 6.000000
      vertex 18.703182 -8.898950 6.000000
      vertex 5.000000 15.000000 6.000000
    endloop
  endfacet
  facet normal 0.000000 0.000000 1.000000
    outer loop
      vertex 18.703182 -8.898950 6.000000
      vertex 35.000000 -15.000000 6.000000
      vertex 5.000000 15.000000 6.000000
    endloop
  endfacet
  facet normal 0.000000 0.000000 1.000000
    outer loop
      vertex 19.672214 -11.881325 6.000000
      vertex 35.000000 -15.000000 6.000000
      vertex 18.703182 -8.898950 6.000000
    endloop
  endfacet
  facet normal 0.000000 0.000000 1.000000
    outer loop
      vertex 22.864745 6.183221 6.000000
      vertex 21.296818 8.898950 6.000000
      vertex 5.000000 15.000000 6.000000
    endloop
  endfacet
  facet normal 0.000000 0.000000 1.000000
    outer loop
      vertex 20.000000 -15.000000 6.000000
      vertex 35.000000 -15.000000 6.000000
      vertex 19.672214 -11.881325 6.000000
    endloop
  endfacet
  facet normal 0.000000 0.000000 1.000000
    outer loop
      vertex 35.000000 -15.000000 6.000000
      vertex 35.000000 0.082172 6.000000
      vertex 33.432073 0.082172 6.000000
    endloop
  endfacet
  facet normal 0.000000 0.000000 1.000000
    outer loop
      vertex 35.000000 -15.000000 6.000000
      vertex 33.432073 0.082172 6.000000
      vertex 30.364745 0.734152 6.000000
    endloop
  endfacet
  facet normal 0.000000 0.000000 1.000000
    outer loop
      vertex 35.000000 -15.000000 6.000000
      vertex 27.500000 2.009619 6.000000
      vertex 5.000000 15.000000 6.000000
    endloop
  endfacet
  facet normal 0.000000 0.000000 1.000000
    outer loop
      vertex 35.000000 -15.000000 6.000000
      vertex 30.364745 0.734152 6.000000
      vertex 27.500000 2.009619 6.000000
    endloop
  endfacet
  facet normal 0.000000 0.000000 1.000000
    outer loop
      vertex 21.296818 8.898950 6.000000
      vertex 20.327786 11.881325 6.000000
      vertex 5.000000 15.000000 6.000000
    endloop
  endfacet
  facet normal 0.000000 0.000000 1.000000
    outer loop
      vertex 20.327786 11.881325 6.000000
      vertex 20.000000 15.000000 6.000000
      vertex 5.000000 15.000000 6.000000
    endloop
  endfacet
  facet normal 0.000000 0.000000 1.000000
    outer loop
      vertex 27.500000 2.009619 6.000000
      vertex 24.963041 3.852828 6.000000
      vertex 5.000000 15.000000 6.000000
    endloop
  endfacet
  facet normal 0.000000 0.000000 1.000000
    outer loop
      vertex 24.963041 3.852828 6.000000
      vertex 22.864745 6.183221 6.000000
      vertex 5.000000 15.000000 6.000000
    endloop
  endfacet
  facet normal 0.000000 1.000000 0.000000
    outer loop
      vertex 5.000000 -0.082172 6.000000
      vertex 5.000000 -0.082172 10.000000
      vertex 6.567927 -0.082172 6.000000
    endloop
  endfacet
  facet normal 0.000000 1.000000 0.000000
    outer loop
      vertex 6.567927 -0.082172 6.000000
      vertex 5.000000 -0.082172 10.000000
      vertex 6.567927 -0.082172 10.000000
    endloop
  endfacet
  facet normal 0.000000 -0.000000 1.000000
    outer loop
      vertex 5.000000 -0.082172 10.000000
      vertex 5.000000 -15.000000 10.000000
      vertex 20.000000 -15.000000 10.000000
    endloop
  endfacet
  facet normal -0.000000 -0.000000 1.000000
    outer loop
      vertex 18.703182 -8.898950 10.000000
      vertex 5.000000 -0.082172 10.000000
      vertex 19.672214 -11.881325 10.000000
    endloop
  endfacet
  facet normal -0.000000 -0.000000 1.000000
    outer loop
      vertex 19.672214 -11.881325 10.000000
      vertex 5.000000 -0.082172 10.000000
      vertex 20.000000 -15.000000 10.000000
    endloop
  endfacet
  facet normal -0.000000 -0.000000 1.000000
    outer loop
      vertex 17.135255 -6.183221 10.000000
      vertex 5.000000 -0.082172 10.000000
      vertex 18.703182 -8.898950 10.000000
    endloop
  endfacet
  facet normal -0.000000 -0.000000 1.000000
    outer loop
      vertex 15.036959 -3.852828 10.000000
      vertex 5.000000 -0.082172 10.000000
      vertex 17.135255 -6.183221 10.000000
    endloop
  endfacet
  facet normal -0.000000 -0.000000 1.000000
    outer loop
      vertex 12.500000 -2.009619 10.000000
      vertex 5.000000 -0.082172 10.000000
      vertex 15.036959 -3.852828 10.000000
    endloop
  endfacet
  facet normal -0.000000 -0.000000 1.000000
    outer loop
      vertex 9.635255 -0.734152 10.000000
      vertex 5.000000 -0.082172 10.000000
      vertex 12.500000 -2.009619 10.000000
    endloop
  endfacet
  facet normal 0.000000 -0.000000 1.000000
    outer loop
      vertex 6.567927 -0.082172 10.000000
      vertex 5.000000 -0.082172 10.000000
      vertex 9.635255 -0.734152 10.000000
    endloop
  endfacet
  facet normal 0.994522 0.104528 0.000000
    outer loop
      vertex 20.000000 -15.000000 6.000000
      vertex 19.672214 -11.881325 6.000000
      vertex 19.672214 -11.881325 10.000000
    endloop
  endfacet
  facet normal 0.994522 0.104528 -0.000000
    outer loop
      vertex 20.000000 -15.000000 10.000000
      vertex 20.000000 -15.000000 6.000000
      vertex 19.672214 -11.881325 10.000000
    endloop
  endfacet
  facet normal 1.000000 0.000000 -0.000000
    outer loop
      vertex 35.000000 -15.000000 6.000000
      vertex 35.000000 -15.000000 0.000000
      vertex 35.000000 15.000000 0.000000
    endloop
  endfacet
  facet normal 1.000000 0.000000 -0.000000
    outer loop
      vertex 35.000000 0.082172 6.000000
      vertex 35.000000 -15.000000 6.000000
      vertex 35.000000 15.000000 0.000000
    endloop
  endfacet
  facet normal 1.000000 0.000000 0.000000
    outer loop
      vertex 35.000000 15.000000 10.000000
      vertex 35.000000 0.082172 6.000000
      vertex 35.000000 15.000000 0.000000
    endloop
  endfacet
  facet normal 1.000000 0.000000 -0.000000
    outer loop
      vertex 35.000000 0.082172 10.000000
      vertex 35.000000 0.082172 6.000000
      vertex 35.000000 15.000000 10.000000
    endloop
  endfacet
  facet normal 0.000000 0.000000 1.000000
    outer loop
      vertex 35.000000 15.000000 10.000000
      vertex 20.000000 15.000000 10.000000
      vertex 20.327786 11.881325 10.000000
    endloop
  endfacet
  facet normal 0.000000 0.000000 1.000000
    outer loop
      vertex 22.864745 6.183221 10.000000
      vertex 35.000000 15.000000 10.000000
      vertex 21.296818 8.898950 10.000000
    endloop
  endfacet
  facet normal 0.000000 0.000000 1.000000
    outer loop
      vertex 21.296818 8.898950 10.000000
      vertex 35.000000 15.000000 10.000000
      vertex 20.327786 11.881325 10.000000
    endloop
  endfacet
  facet normal 0.000000 0.000000 1.000000
    outer loop
      vertex 24.963041 3.852828 10.000000
      vertex 35.000000 15.000000 10.000000
      vertex 22.864745 6.183221 10.000000
    endloop
  endfacet
  facet normal 0.000000 0.000000 1.000000
    outer loop
      vertex 27.500000 2.009619 10.000000
      vertex 35.000000 15.000000 10.000000
      vertex 24.963041 3.852828 10.000000
    endloop
  endfacet
  facet normal 0.000000 0.000000 1.000000
    outer loop
      vertex 30.364745 0.734152 10.000000
      vertex 35.000000 15.000000 10.000000
      vertex 27.500000 2.009619 10.000000
    endloop
  endfacet
  facet normal 0.000000 0.000000 1.000000
    outer loop
      vertex 33.432073 0.082172 10.000000
      vertex 35.000000 15.000000 10.000000
      vertex 30.364745 0.734152 10.000000
    endloop
  endfacet
  facet normal -0.000000 0.000000 1.000000
    outer loop
      vertex 35.000000 0.082172 10.000000
      vertex 35.000000 15.000000 10.000000
      vertex 33.432073 0.082172 10.000000
    endloop
  endfacet
  facet normal -0.994522 -0.104528 -0.000000
    outer loop
      vertex 20.000000 15.000000 6.000000
      vertex 20.327786 11.881325 6.000000
      vertex 20.000000 15.000000 10.000000
    endloop
  endfacet
  facet normal -0.994522 -0.104528 0.000000
    outer loop
      vertex 20.000000 15.000000 10.000000
      vertex 20.327786 11.881325 6.000000
      vertex 20.327786 11.881325 10.000000
    endloop
  endfacet
  facet normal -0.951057 -0.309017 -0.000000
    outer loop
      vertex 20.327786 11.881325 6.000000
      vertex 21.296818 8.898950 6.000000
      vertex 20.327786 11.881325 10.000000
    endloop
  endfacet
  facet normal -0.951057 -0.309017 0.000000
    outer loop
      vertex 20.327786 11.881325 10.000000
      vertex 21.296818 8.898950 6.000000
      vertex 21.296818 8.898950 10.000000
    endloop
  endfacet
  facet normal -0.866025 -0.500000 -0.000000
    outer loop
      vertex 21.296818 8.898950 6.000000
      vertex 22.864745 6.183221 6.000000
      vertex 21.296818 8.898950 10.000000
    endloop
  endfacet
  facet normal -0.866025 -0.500000 0.000000
    outer loop
      vertex 21.296818 8.898950 10.000000
      vertex 22.864745 6.183221 6.000000
      vertex 22.864745 6.183221 10.000000
    endloop
  endfacet
  facet normal -0.743145 -0.669131 -0.000000
    outer loop
      vertex 22.864745 6.183221 6.000000
      vertex 24.963041 3.852828 6.000000
      vertex 22.864745 6.183221 10.000000
    endloop
  endfacet
  facet normal -0.743145 -0.669131 0.000000
    outer loop
      vertex 22.864745 6.183221 10.000000
      vertex 24.963041 3.852828 6.000000
      vertex 24.963041 3.852828 10.000000
    endloop
  endfacet
  facet normal -0.587785 -0.809017 0.000000
    outer loop
      vertex 24.963041 3.852828 10.000000
      vertex 24.963041 3.852828 6.000000
      vertex 27.500000 2.009619 6.000000
    endloop
  endfacet
  facet normal -0.587785 -0.809017 0.000000
    outer loop
      vertex 27.500000 2.009619 10.000000
      vertex 24.963041 3.852828 10.000000
      vertex 27.500000 2.009619 6.000000
    endloop
  endfacet
  facet normal -0.406737 -0.913545 0.000000
    outer loop
      vertex 27.500000 2.009619 10.000000
      vertex 27.500000 2.009619 6.000000
      vertex 30.364745 0.734152 6.000000
    endloop
  endfacet
  facet normal -0.406737 -0.913545 0.000000
    outer loop
      vertex 30.364745 0.734152 10.000000
      vertex 27.500000 2.009619 10.000000
      vertex 30.364745 0.734152 6.000000
    endloop
  endfacet
  facet normal -0.207911 -0.978148 0.000000
    outer loop
      vertex 30.364745 0.734152 10.000000
      vertex 30.364745 0.734152 6.000000
      vertex 33.432073 0.082172 6.000000
    endloop
  endfacet
  facet normal -0.207911 -0.978148 0.000000
    outer loop
      vertex 33.432073 0.082172 10.000000
      vertex 30.364745 0.734152 10.000000
      vertex 33.432073 0.082172 6.000000
    endloop
  endfacet
  facet normal 0.000000 -1.000000 0.000000
    outer loop
      vertex 33.432073 0.082172 10.000000
      vertex 33.432073 0.082172 6.000000
      vertex 35.000000 0.082172 6.000000
    endloop
  endfacet
  facet normal 0.000000 -1.000000 0.000000
    outer loop
      vertex 35.000000 0.082172 10.000000
      vertex 33.432073 0.082172 10.000000
      vertex 35.000000 0.082172 6.000000
    endloop
  endfacet
  facet normal 0.951057 0.309017 0.000000
    outer loop
      vertex 19.672214 -11.881325 6.000000
      vertex 18.703182 -8.898950 6.000000
      vertex 18.703182 -8.898950 10.000000
    endloop
  endfacet
  facet normal 0.951057 0.309017 -0.000000
    outer loop
      vertex 19.672214 -11.881325 10.000000
      vertex 19.672214 -11.881325 6.000000
      vertex 18.703182 -8.898950 10.000000
    endloop
  endfacet
  facet normal 0.866025 0.500000 0.000000
    outer loop
      vertex 18.703182 -8.898950 6.000000
      vertex 17.135255 -6.183221 6.000000
      vertex 17.135255 -6.183221 10.000000
    endloop
  endfacet
  facet normal 0.866025 0.500000 -0.000000
    outer loop
      vertex 18.703182 -8.898950 10.000000
      vertex 18.703182 -8.898950 6.000000
      vertex 17.135255 -6.183221 10.000000
    endloop
  endfacet
  facet normal 0.743145 0.669131 0.000000
    outer loop
      vertex 17.135255 -6.183221 6.000000
      vertex 15.036959 -3.852828 6.000000
      vertex 15.036959 -3.852828 10.000000
    endloop
  endfacet
  facet normal 0.743145 0.669131 -0.000000
    outer loop
      vertex 17.135255 -6.183221 10.000000
      vertex 17.135255 -6.183221 6.000000
      vertex 15.036959 -3.852828 10.000000
    endloop
  endfacet
  facet normal 0.587785 0.809017 0.000000
    outer loop
      vertex 12.500000 -2.009619 6.000000
      vertex 12.500000 -2.009619 10.000000
      vertex 15.036959 -3.852828 6.000000
    endloop
  endfacet
  facet normal 0.587785 0.809017 0.000000
    outer loop
      vertex 15.036959 -3.852828 6.000000
      vertex 12.500000 -2.009619 10.000000
      vertex 15.036959 -3.852828 10.000000
    endloop
  endfacet
  facet normal 0.406737 0.913545 0.000000
    outer loop
      vertex 9.635255 -0.734152 6.000000
      vertex 9.635255 -0.734152 10.000000
      vertex 12.500000 -2.009619 6.000000
    endloop
  endfacet
  facet normal 0.406737 0.913545 0.000000
    outer loop
      vertex 12.500000 -2.009619 6.000000
      vertex 9.635255 -0.734152 10.000000
      vertex 12.500000 -2.009619 10.000000
    endloop
  endfacet
  facet normal 0.207911 0.978148 0.000000
    outer loop
      vertex 6.567927 -0.082172 6.000000
      vertex 6.567927 -0.082172 10.000000
      vertex 9.635255 -0.734152 6.000000
    endloop
  endfacet
  facet normal 0.207911 0.978148 0.000000
    outer loop
      vertex 9.635255 -0.734152 6.000000
      vertex 6.567927 -0.082172 10.000000
      vertex 9.635255 -0.734152 10.000000
    endloop
  endfacet
  facet normal -1.000000 -0.000000 -0.000000
    outer loop
      vertex -35.000000 -15.000000 0.000000
      vertex -35.000000 -15.000000 6.000000
      vertex -35.000000 15.000000 0.000000
    endloop
  endfacet
  facet normal -1.000000 0.000000 0.000000
    outer loop
      vertex -35.000000 15.000000 0.000000
      vertex -35.000000 -15.000000 6.000000
      vertex -35.000000 -0.082172 6.000000
    endloop
  endfacet
  facet normal -1.000000 0.000000 0.000000
    outer loop
      vertex -35.000000 15.000000 0.000000
      vertex -35.000000 -0.082172 6.000000
      vertex -35.000000 -0.082172 10.000000
    endloop
  endfacet
  facet normal -1.000000 0.000000 0.000000
    outer loop
      vertex -35.000000 15.000000 0.000000
      vertex -35.000000 -0.082172 10.000000
      vertex -35.000000 15.000000 10.000000
    endloop
  endfacet
  facet normal 0.000000 -1.000000 0.000000
    outer loop
      vertex -35.000000 -15.000000 6.000000
      vertex -35.000000 -15.000000 0.000000
      vertex -5.000000 -15.000000 0.000000
    endloop
  endfacet
  facet normal 0.000000 -1.000000 0.000000
    outer loop
      vertex -20.000000 -15.000000 6.000000
      vertex -35.000000 -15.000000 6.000000
      vertex -5.000000 -15.000000 0.000000
    endloop
  endfacet
  facet normal 0.000000 -1.000000 0.000000
    outer loop
      vertex -5.000000 -15.000000 10.000000
      vertex -20.000000 -15.000000 6.000000
      vertex -5.000000 -15.000000 0.000000
    endloop
  endfacet
  facet normal 0.000000 -1.000000 0.000000
    outer loop
      vertex -20.000000 -15.000000 10.000000
      vertex -20.000000 -15.000000 6.000000
      vertex -5.000000 -15.000000 10.000000
    endloop
  endfacet
  facet normal -0.000000 -0.000000 -1.000000
    outer loop
      vertex -35.000000 -15.000000 0.000000
      vertex -35.000000 15.000000 0.000000
      vertex -5.000000 -15.000000 0.000000
    endloop
  endfacet
  facet normal 0.000000 0.000000 -1.000000
    outer loop
      vertex -5.000000 -15.000000 0.000000
      vertex -35.000000 15.000000 0.000000
      vertex -5.000000 15.000000 0.000000
    endloop
  endfacet
  facet normal 0.000000 1.000000 0.000000
    outer loop
      vertex -35.000000 15.000000 0.000000
      vertex -35.000000 15.000000 10.000000
      vertex -5.000000 15.000000 0.000000
    endloop
  endfacet
  facet normal 0.000000 1.000000 0.000000
    outer loop
      vertex -20.000000 15.000000 6.000000
      vertex -35.000000 15.000000 10.000000
      vertex -20.000000 15.000000 10.000000
    endloop
  endfacet
  facet normal 0.000000 1.000000 0.000000
    outer loop
      vertex -5.000000 15.000000 0.000000
      vertex -35.000000 15.000000 10.000000
      vertex -20.000000 15.000000 6.000000
    endloop
  endfacet
  facet normal 0.000000 1.000000 0.000000
    outer loop
      vertex -5.000000 15.000000 6.000000
      vertex -5.000000 15.000000 0.000000
      vertex -20.000000 15.000000 6.000000
    endloop
  endfacet
  facet normal 0.000000 0.000000 1.000000
    outer loop
      vertex -27.500000 -2.009619 10.000000
      vertex -24.963041 -3.852828 10.000000
      vertex -35.000000 15.000000 10.000000
    endloop
  endfacet
  facet normal 0.000000 -0.000000 1.000000
    outer loop
      vertex -35.000000 15.000000 10.000000
      vertex -35.000000 -0.082172 10.000000
      vertex -33.432073 -0.082172 10.000000
    endloop
  endfacet
  facet normal 0.000000 0.000000 1.000000
    outer loop
      vertex -24.963041 -3.852828 10.000000
      vertex -22.864745 -6.183221 10.000000
      vertex -35.000000 15.000000 10.000000
    endloop
  endfacet
  facet normal 0.000000 0.000000 1.000000
    outer loop
      vertex -30.364745 -0.734152 10.000000
      vertex -35.000000 15.000000 10.000000
      vertex -33.432073 -0.082172 10.000000
    endloop
  endfacet
  facet normal 0.000000 0.000000 1.000000
    outer loop
      vertex -30.364745 -0.734152 10.000000
      vertex -27.500000 -2.009619 10.000000
      vertex -35.000000 15.000000 10.000000
    endloop
  endfacet
  facet normal 0.000000 0.000000 1.000000
    outer loop
      vertex -22.864745 -6.183221 10.000000
      vertex -21.296818 -8.898950 10.000000
      vertex -35.000000 15.000000 10.000000
    endloop
  endfacet
  facet normal 0.000000 0.000000 1.000000
    outer loop
      vertex -21.296818 -8.898950 10.000000
      vertex -5.000000 -15.000000 10.000000
      vertex -35.000000 15.000000 10.000000
    endloop
  endfacet
  facet normal 0.000000 0.000000 1.000000
    outer loop
      vertex -20.327786 -11.881325 10.000000
      vertex -5.000000 -15.000000 10.000000
      vertex -21.296818 -8.898950 10.000000
    endloop
  endfacet
  facet normal 0.000000 0.000000 1.000000
    outer loop
      vertex -17.135255 6.183221 10.000000
      vertex -18.703182 8.898950 10.000000
      vertex -35.000000 15.000000 10.000000
    endloop
  endfacet
  facet normal 0.000000 0.000000 1.000000
    outer loop
      vertex -20.000000 -15.000000 10.000000
      vertex -5.000000 -15.000000 10.000000
      vertex -20.327786 -11.881325 10.000000
    endloop
  endfacet
  facet normal 0.000000 0.000000 1.000000
    outer loop
      vertex -5.000000 -15.000000 10.000000
      vertex -5.000000 0.082172 10.000000
      vertex -6.567927 0.082172 10.000000
    endloop
  endfacet
  facet normal 0.000000 0.000000 1.000000
    outer loop
      vertex -5.000000 -15.000000 10.000000
      vertex -6.567927 0.082172 10.000000
      vertex -9.635255 0.734152 10.000000
    endloop
  endfacet
  facet normal 0.000000 0.000000 1.000000
    outer loop
      vertex -5.000000 -15.000000 10.000000
      vertex -12.500000 2.009619 10.000000
      vertex -35.000000 15.000000 10.000000
    endloop
  endfacet
  facet normal 0.000000 0.000000 1.000000
    outer loop
      vertex -5.000000 -15.000000 10.000000
      vertex -9.635255 0.734152 10.000000
      vertex -12.500000 2.009619 10.000000
    endloop
  endfacet
  facet normal 0.000000 0.000000 1.000000
    outer loop
      vertex -18.703182 8.898950 10.000000
      vertex -19.672214 11.881325 10.000000
      vertex -35.000000 15.000000 10.000000
    endloop
  endfacet
  facet normal 0.000000 0.000000 1.000000
    outer loop
      vertex -19.672214 11.881325 10.000000
      vertex -20.000000 15.000000 10.000000
      vertex -35.000000 15.000000 10.000000
    endloop
  endfacet
  facet normal 0.000000 0.000000 1.000000
    outer loop
      vertex -12.500000 2.009619 10.000000
      vertex -15.036959 3.852828 10.000000
      vertex -35.000000 15.000000 10.000000
    endloop
  endfacet
  facet normal 0.000000 0.000000 1.000000
    outer loop
      vertex -15.036959 3.852828 10.000000
      vertex -17.135255 6.183221 10.000000
      vertex -35.000000 15.000000 10.000000
    endloop
  endfacet
  facet normal 0.000000 -1.000000 0.000000
    outer loop
      vertex -33.432073 -0.082172 6.000000
      vertex -33.432073 -0.082172 10.000000
      vertex -35.000000 -0.082172 10.000000
    endloop
  endfacet
  facet normal -0.000000 -1.000000 -0.000000
    outer loop
      vertex -35.000000 -0.082172 6.000000
      vertex -33.432073 -0.082172 6.000000
      vertex -35.000000 -0.082172 10.000000
    endloop
  endfacet
  facet normal 0.000000 0.000000 1.000000
    outer loop
      vertex -20.000000 -15.000000 6.000000
      vertex -20.327786 -11.881325 6.000000
      vertex -21.296818 -8.898950 6.000000
    endloop
  endfacet
  facet normal 0.000000 0.000000 1.000000
    outer loop
      vertex -24.963041 -3.852828 6.000000
      vertex -20.000000 -15.000000 6.000000
      vertex -22.864745 -6.183221 6.000000
    endloop
  endfacet
  facet normal 0.000000 0.000000 1.000000
    outer loop
      vertex -22.864745 -6.183221 6.000000
      vertex -20.000000 -15.000000 6.000000
      vertex -21.296818 -8.898950 6.000000
    endloop
  endfacet
  facet normal 0.000000 0.000000 1.000000
    outer loop
      vertex -27.500000 -2.009619 6.000000
      vertex -20.000000 -15.000000 6.000000
      vertex -24.963041 -3.852828 6.000000
    endloop
  endfacet
  facet normal 0.000000 0.000000 1.000000
    outer loop
      vertex -30.364745 -0.734152 6.000000
      vertex -20.000000 -15.000000 6.000000
      vertex -27.500000 -2.009619 6.000000
    endloop
  endfacet
  facet normal 0.000000 0.000000 1.000000
    outer loop
      vertex -33.432073 -0.082172 6.000000
      vertex -20.000000 -15.000000 6.000000
      vertex -30.364745 -0.734152 6.000000
    endloop
  endfacet
  facet normal 0.000000 0.000000 1.000000
    outer loop
      vertex -35.000000 -0.082172 6.000000
      vertex -20.000000 -15.000000 6.000000
      vertex -33.432073 -0.082172 6.000000
    endloop
  endfacet
  facet normal 0.000000 0.000000 1.000000
    outer loop
      vertex -35.000000 -15.000000 6.000000
      vertex -20.000000 -15.000000 6.000000
      vertex -35.000000 -0.082172 6.000000
    endloop
  endfacet
  facet normal -0.994522 -0.104528 0.000000
    outer loop
      vertex -20.000000 -15.000000 10.000000
      vertex -20.327786 -11.881325 10.000000
      vertex -20.000000 -15.000000 6.000000
    endloop
  endfacet
  facet normal -0.994522 -0.104528 0.000000
    outer loop
      vertex -20.000000 -15.000000 6.000000
      vertex -20.327786 -11.881325 10.000000
      vertex -20.327786 -11.881325 6.000000
    endloop
  endfacet
  facet normal 1.000000 0.000000 -0.000000
    outer loop
      vertex -5.000000 -15.000000 10.000000
      vertex -5.000000 -15.000000 0.000000
      vertex -5.000000 15.000000 0.000000
    endloop
  endfacet
  facet normal 1.000000 -0.000000 -0.000000
    outer loop
      vertex -5.000000 0.082172 6.000000
      vertex -5.000000 -15.000000 10.000000
      vertex -5.000000 15.000000 0.000000
    endloop
  endfacet
  facet normal 1.000000 0.000000 0.000000
    outer loop
      vertex -5.000000 15.000000 6.000000
      vertex -5.000000 0.082172 6.000000
      vertex -5.000000 15.000000 0.000000
    endloop
  endfacet
  facet normal 1.000000 0.000000 0.000000
    outer loop
      vertex -5.000000 0.082172 6.000000
      vertex -5.000000 0.082172 10.000000
      vertex -5.000000 -15.000000 10.000000
    endloop
  endfacet
  facet normal 0.000000 0.000000 1.000000
    outer loop
      vertex -19.672214 11.881325 6.000000
      vertex -18.703182 8.898950 6.000000
      vertex -17.135255 6.183221 6.000000
    endloop
  endfacet
  facet normal 0.000000 0.000000 1.000000
    outer loop
      vertex -12.500000 2.009619 6.000000
      vertex -19.672214 11.881325 6.000000
      vertex -15.036959 3.852828 6.000000
    endloop
  endfacet
  facet normal 0.000000 0.000000 1.000000
    outer loop
      vertex -15.036959 3.852828 6.000000
      vertex -19.672214 11.881325 6.000000
      vertex -17.135255 6.183221 6.000000
    endloop
  endfacet
  facet normal 0.000000 0.000000 1.000000
    outer loop
      vertex -9.635255 0.734152 6.000000
      vertex -19.672214 11.881325 6.000000
      vertex -12.500000 2.009619 6.000000
    endloop
  endfacet
  facet normal 0.000000 0.000000 1.000000
    outer loop
      vertex -6.567927 0.082172 6.000000
      vertex -19.672214 11.881325 6.000000
      vertex -9.635255 0.734152 6.000000
    endloop
  endfacet
  facet normal -0.000000 0.000000 1.000000
    outer loop
      vertex -5.000000 0.082172 6.000000
      vertex -19.672214 11.881325 6.000000
      vertex -6.567927 0.082172 6.000000
    endloop
  endfacet
  facet normal 0.000000 0.000000 1.000000
    outer loop
      vertex -5.000000 15.000000 6.000000
      vertex -19.672214 11.881325 6.000000
      vertex -5.000000 0.082172 6.000000
    endloop
  endfacet
  facet normal 0.000000 0.000000 1.000000
    outer loop
      vertex -20.000000 15.000000 6.000000
      vertex -19.672214 11.881325 6.000000
      vertex -5.000000 15.000000 6.000000
    endloop
  endfacet
  facet normal 0.994522 0.104528 0.000000
    outer loop
      vertex -20.000000 15.000000 10.000000
      vertex -19.672214 11.881325 10.000000
      vertex -19.672214 11.881325 6.000000
    endloop
  endfacet
  facet normal 0.994522 0.104528 0.000000
    outer loop
      vertex -20.000000 15.000000 6.000000
      vertex -20.000000 15.000000 10.000000
      vertex -19.672214 11.881325 6.000000
    endloop
  endfacet
  facet normal 0.951057 0.309017 0.000000
    outer loop
      vertex -19.672214 11.881325 10.000000
      vertex -18.703182 8.898950 10.000000
      vertex -18.703182 8.898950 6.000000
    endloop
  endfacet
  facet normal 0.951057 0.309017 0.000000
    outer loop
      vertex -19.672214 11.881325 6.000000
      vertex -19.672214 11.881325 10.000000
      vertex -18.703182 8.898950 6.000000
    endloop
  endfacet
  facet normal 0.866025 0.500000 0.000000
    outer loop
      vertex -18.703182 8.898950 10.000000
      vertex -17.135255 6.183221 10.000000
      vertex -17.135255 6.183221 6.000000
    endloop
  endfacet
  facet normal 0.866025 0.500000 0.000000
    outer loop
      vertex -18.703182 8.898950 6.000000
      vertex -18.703182 8.898950 10.000000
      vertex -17.135255 6.183221 6.000000
    endloop
  endfacet
  facet normal 0.743145 0.669131 0.000000
    outer loop
      vertex -17.135255 6.183221 10.000000
      vertex -15.036959 3.852828 10.000000
      vertex -15.036959 3.852828 6.000000
    endloop
  endfacet
  facet normal 0.743145 0.669131 0.000000
    outer loop
      vertex -17.135255 6.183221 6.000000
      vertex -17.135255 6.183221 10.000000
      vertex -15.036959 3.852828 6.000000
    endloop
  endfacet
  facet normal 0.587785 0.809017 -0.000000
    outer loop
      vertex -12.500000 2.009619 10.000000
      vertex -12.500000 2.009619 6.000000
      vertex -15.036959 3.852828 10.000000
    endloop
  endfacet
  facet normal 0.587785 0.809017 -0.000000
    outer loop
      vertex -15.036959 3.852828 10.000000
      vertex -12.500000 2.009619 6.000000
      vertex -15.036959 3.852828 6.000000
    endloop
  endfacet
  facet normal 0.406737 0.913545 -0.000000
    outer loop
      vertex -9.635255 0.734152 10.000000
      vertex -9.635255 0.734152 6.000000
      vertex -12.500000 2.009619 10.000000
    endloop
  endfacet
  facet normal 0.406737 0.913545 -0.000000
    outer loop
      vertex -12.500000 2.009619 10.000000
      vertex -9.635255 0.734152 6.000000
      vertex -12.500000 2.009619 6.000000
    endloop
  endfacet
  facet normal 0.207911 0.978148 -0.000000
    outer loop
      vertex -6.567927 0.082172 10.000000
      vertex -6.567927 0.082172 6.000000
      vertex -9.635255 0.734152 10.000000
    endloop
  endfacet
  facet normal 0.207911 0.978148 -0.000000
    outer loop
      vertex -9.635255 0.734152 10.000000
      vertex -6.567927 0.082172 6.000000
      vertex -9.635255 0.734152 6.000000
    endloop
  endfacet
  facet normal 0.000000 1.000000 0.000000
    outer loop
      vertex -5.000000 0.082172 10.000000
      vertex -5.000000 0.082172 6.000000
      vertex -6.567927 0.082172 10.000000
    endloop
  endfacet
  facet normal 0.000000 1.000000 -0.000000
    outer loop
      vertex -6.567927 0.082172 10.000000
      vertex -5.000000 0.082172 6.000000
      vertex -6.567927 0.082172 6.000000
    endloop
  endfacet
  facet normal -0.951057 -0.309017 0.000000
    outer loop
      vertex -20.327786 -11.881325 10.000000
      vertex -21.296818 -8.898950 10.000000
      vertex -20.327786 -11.881325 6.000000
    endloop
  endfacet
  facet normal -0.951057 -0.309017 0.000000
    outer loop
      vertex -20.327786 -11.881325 6.000000
      vertex -21.296818 -8.898950 10.000000
      vertex -21.296818 -8.898950 6.000000
    endloop
  endfacet
  facet normal -0.866025 -0.500000 0.000000
    outer loop
      vertex -21.296818 -8.898950 10.000000
      vertex -22.864745 -6.183221 10.000000
      vertex -21.296818 -8.898950 6.000000
    endloop
  endfacet
  facet normal -0.866025 -0.500000 0.000000
    outer loop
      vertex -21.296818 -8.898950 6.000000
      vertex -22.864745 -6.183221 10.000000
      vertex -22.864745 -6.183221 6.000000
    endloop
  endfacet
  facet normal -0.743145 -0.669131 0.000000
    outer loop
      vertex -22.864745 -6.183221 10.000000
      vertex -24.963041 -3.852828 10.000000
      vertex -22.864745 -6.183221 6.000000
    endloop
  endfacet
  facet normal -0.743145 -0.669131 0.000000
    outer loop
      vertex -22.864745 -6.183221 6.000000
      vertex -24.963041 -3.852828 10.000000
      vertex -24.963041 -3.852828 6.000000
    endloop
  endfacet
  facet normal -0.587785 -0.809017 -0.000000
    outer loop
      vertex -24.963041 -3.852828 6.000000
      vertex -24.963041 -3.852828 10.000000
      vertex -27.500000 -2.009619 10.000000
    endloop
  endfacet
  facet normal -0.587785 -0.809017 -0.000000
    outer loop
      vertex -27.500000 -2.009619 6.000000
      vertex -24.963041 -3.852828 6.000000
      vertex -27.500000 -2.009619 10.000000
    endloop
  endfacet
  facet normal -0.406737 -0.913545 -0.000000
    outer loop
      vertex -27.500000 -2.009619 6.000000
      vertex -27.500000 -2.009619 10.000000
      vertex -30.364745 -0.734152 10.000000
    endloop
  endfacet
  facet normal -0.406737 -0.913545 -0.000000
    outer loop
      vertex -30.364745 -0.734152 6.000000
      vertex -27.500000 -2.009619 6.000000
      vertex -30.364745 -0.734152 10.000000
    endloop
  endfacet
  facet normal -0.207911 -0.978148 -0.000000
    outer loop
      vertex -30.364745 -0.734152 6.000000
      vertex -30.364745 -0.734152 10.000000
      vertex -33.432073 -0.082172 10.000000
    endloop
  endfacet
  facet normal -0.207911 -0.978148 -0.000000
    outer loop
      vertex -33.432073 -0.082172 6.000000
      vertex -30.364745 -0.734152 6.000000
      vertex -33.432073 -0.082172 10.000000
    endloop
  endfacet
endsolid OpenSCAD_Model
