solid OpenSCAD_Model
  facet normal -1.000000 -0.000000 -0.000000
    outer loop
      vertex 0.000000 0.000000 0.000000
      vertex 0.000000 0.000000 9.000000
      vertex 0.000000 27.000000 0.000000
    endloop
  endfacet
  facet normal -1.000000 0.000000 0.000000
    outer loop
      vertex 0.000000 27.000000 0.000000
      vertex 0.000000 0.000000 9.000000
      vertex 0.000000 27.000000 9.000000
    endloop
  endfacet
  facet normal 0.000000 -1.000000 0.000000
    outer loop
      vertex 0.000000 0.000000 9.000000
      vertex 0.000000 0.000000 0.000000
      vertex 10.500000 0.000000 0.000000
    endloop
  endfacet
  facet normal 0.000000 -1.000000 0.000000
    outer loop
      vertex 10.500000 0.000000 9.000000
      vertex 0.000000 0.000000 9.000000
      vertex 10.500000 0.000000 0.000000
    endloop
  endfacet
  facet normal -0.000000 -0.000000 -1.000000
    outer loop
      vertex 4.100000 15.900000 0.000000
      vertex 4.100000 19.100000 0.000000
      vertex 5.870000 15.900000 0.000000
    endloop
  endfacet
  facet normal 0.000000 -0.000000 -1.000000
    outer loop
      vertex 5.870000 23.900000 0.000000
      vertex 0.000000 27.000000 0.000000
      vertex 18.400000 27.000000 0.000000
    endloop
  endfacet
  facet normal -0.000000 0.000000 -1.000000
    outer loop
      vertex 15.500000 0.000000 0.000000
      vertex 18.400000 27.000000 0.000000
      vertex 18.400000 0.000000 0.000000
    endloop
  endfacet
  facet normal -0.000000 0.000000 -1.000000
    outer loop
      vertex 15.500000 16.000000 0.000000
      vertex 18.400000 27.000000 0.000000
      vertex 15.500000 0.000000 0.000000
    endloop
  endfacet
  facet normal -0.000000 -0.000000 -1.000000
    outer loop
      vertex 4.100000 23.900000 0.000000
      vertex 0.000000 27.000000 0.000000
      vertex 5.870000 23.900000 0.000000
    endloop
  endfacet
  facet normal -0.000000 0.000000 -1.000000
    outer loop
      vertex 15.400000 22.400000 0.000000
      vertex 18.400000 27.000000 0.000000
      vertex 15.400000 20.600000 0.000000
    endloop
  endfacet
  facet normal 0.000000 -0.000000 -1.000000
    outer loop
      vertex 0.000000 0.000000 0.000000
      vertex 0.000000 27.000000 0.000000
      vertex 2.600000 6.400000 0.000000
    endloop
  endfacet
  facet normal 0.000000 0.000000 -1.000000
    outer loop
      vertex 4.100000 14.400000 0.000000
      vertex 0.000000 27.000000 0.000000
      vertex 4.100000 15.900000 0.000000
    endloop
  endfacet
  facet normal 0.000000 0.000000 -1.000000
    outer loop
      vertex 0.000000 0.000000 0.000000
      vertex 2.600000 6.400000 0.000000
      vertex 2.600000 4.600000 0.000000
    endloop
  endfacet
  facet normal 0.000000 0.000000 -1.000000
    outer loop
      vertex 5.870000 4.600000 0.000000
      vertex 10.500000 0.000000 0.000000
      vertex 5.870000 3.100000 0.000000
    endloop
  endfacet
  facet normal -0.000000 -0.000000 -1.000000
    outer loop
      vertex 5.870000 6.400000 0.000000
      vertex 5.870000 7.900000 0.000000
      vertex 7.400000 6.400000 0.000000
    endloop
  endfacet
  facet normal 0.000000 0.000000 -1.000000
    outer loop
      vertex 0.000000 0.000000 0.000000
      vertex 2.600000 4.600000 0.000000
      vertex 4.100000 3.100000 0.000000
    endloop
  endfacet
  facet normal -0.000000 0.000000 -1.000000
    outer loop
      vertex 0.000000 0.000000 0.000000
      vertex 4.100000 3.100000 0.000000
      vertex 10.500000 0.000000 0.000000
    endloop
  endfacet
  facet normal 0.000000 0.000000 -1.000000
    outer loop
      vertex 4.100000 15.900000 0.000000
      vertex 0.000000 27.000000 0.000000
      vertex 2.600000 20.600000 0.000000
    endloop
  endfacet
  facet normal 0.000000 0.000000 -1.000000
    outer loop
      vertex 5.870000 4.600000 0.000000
      vertex 7.400000 4.600000 0.000000
      vertex 10.500000 0.000000 0.000000
    endloop
  endfacet
  facet normal -0.000000 -0.000000 -1.000000
    outer loop
      vertex 4.100000 7.900000 0.000000
      vertex 4.100000 11.100000 0.000000
      vertex 5.870000 7.900000 0.000000
    endloop
  endfacet
  facet normal -0.000000 -0.000000 -1.000000
    outer loop
      vertex 7.400000 4.600000 0.000000
      vertex 7.400000 6.400000 0.000000
      vertex 10.500000 0.000000 0.000000
    endloop
  endfacet
  facet normal 0.000000 0.000000 -1.000000
    outer loop
      vertex 4.100000 11.100000 0.000000
      vertex 4.100000 7.900000 0.000000
      vertex 2.600000 12.600000 0.000000
    endloop
  endfacet
  facet normal -0.000000 0.000000 -1.000000
    outer loop
      vertex 2.600000 6.400000 0.000000
      vertex 4.100000 7.900000 0.000000
      vertex 4.100000 6.400000 0.000000
    endloop
  endfacet
  facet normal 0.000000 0.000000 -1.000000
    outer loop
      vertex 2.600000 12.600000 0.000000
      vertex 0.000000 27.000000 0.000000
      vertex 2.600000 14.400000 0.000000
    endloop
  endfacet
  facet normal -0.000000 -0.000000 -1.000000
    outer loop
      vertex 2.600000 22.400000 0.000000
      vertex 0.000000 27.000000 0.000000
      vertex 4.100000 22.400000 0.000000
    endloop
  endfacet
  facet normal 0.000000 0.000000 -1.000000
    outer loop
      vertex 2.600000 6.400000 0.000000
      vertex 0.000000 27.000000 0.000000
      vertex 2.600000 12.600000 0.000000
    endloop
  endfacet
  facet normal 0.000000 -0.000000 -1.000000
    outer loop
      vertex 2.600000 6.400000 0.000000
      vertex 2.600000 12.600000 0.000000
      vertex 4.100000 7.900000 0.000000
    endloop
  endfacet
  facet normal 0.000000 0.000000 -1.000000
    outer loop
      vertex 5.870000 11.100000 0.000000
      vertex 5.870000 7.900000 0.000000
      vertex 4.100000 11.100000 0.000000
    endloop
  endfacet
  facet normal 0.000000 0.000000 -1.000000
    outer loop
      vertex 5.870000 11.100000 0.000000
      vertex 7.400000 6.400000 0.000000
      vertex 5.870000 7.900000 0.000000
    endloop
  endfacet
  facet normal 0.000000 0.000000 -1.000000
    outer loop
      vertex 4.100000 12.600000 0.000000
      vertex 4.100000 11.100000 0.000000
      vertex 2.600000 12.600000 0.000000
    endloop
  endfacet
  facet normal -0.000000 -0.000000 -1.000000
    outer loop
      vertex 2.600000 14.400000 0.000000
      vertex 0.000000 27.000000 0.000000
      vertex 4.100000 14.400000 0.000000
    endloop
  endfacet
  facet normal 0.000000 0.000000 -1.000000
    outer loop
      vertex 5.870000 12.600000 0.000000
      vertex 10.500000 0.000000 0.000000
      vertex 5.870000 11.100000 0.000000
    endloop
  endfacet
  facet normal -0.000000 -0.000000 -1.000000
    outer loop
      vertex 7.400000 6.400000 0.000000
      vertex 5.870000 11.100000 0.000000
      vertex 10.500000 0.000000 0.000000
    endloop
  endfacet
  facet normal 0.000000 0.000000 -1.000000
    outer loop
      vertex 4.100000 15.900000 0.000000
      vertex 2.600000 20.600000 0.000000
      vertex 4.100000 19.100000 0.000000
    endloop
  endfacet
  facet normal 0.000000 0.000000 -1.000000
    outer loop
      vertex 10.500000 0.000000 0.000000
      vertex 5.870000 12.600000 0.000000
      vertex 7.400000 12.600000 0.000000
    endloop
  endfacet
  facet normal 0.000000 0.000000 -1.000000
    outer loop
      vertex 10.500000 0.000000 0.000000
      vertex 7.400000 12.600000 0.000000
      vertex 10.500000 16.000000 0.000000
    endloop
  endfacet
  facet normal 0.000000 0.000000 -1.000000
    outer loop
      vertex 2.600000 20.600000 0.000000
      vertex 0.000000 27.000000 0.000000
      vertex 2.600000 22.400000 0.000000
    endloop
  endfacet
  facet normal -0.000000 -0.000000 -1.000000
    outer loop
      vertex 5.870000 14.400000 0.000000
      vertex 5.870000 15.900000 0.000000
      vertex 7.400000 14.400000 0.000000
    endloop
  endfacet
  facet normal 0.000000 0.000000 -1.000000
    outer loop
      vertex 5.870000 19.100000 0.000000
      vertex 7.400000 14.400000 0.000000
      vertex 5.870000 15.900000 0.000000
    endloop
  endfacet
  facet normal 0.000000 0.000000 -1.000000
    outer loop
      vertex 4.100000 20.600000 0.000000
      vertex 4.100000 19.100000 0.000000
      vertex 2.600000 20.600000 0.000000
    endloop
  endfacet
  facet normal 0.000000 0.000000 -1.000000
    outer loop
      vertex 5.870000 19.100000 0.000000
      vertex 5.870000 15.900000 0.000000
      vertex 4.100000 19.100000 0.000000
    endloop
  endfacet
  facet normal -0.000000 0.000000 -1.000000
    outer loop
      vertex 7.400000 14.400000 0.000000
      vertex 10.500000 16.000000 0.000000
      vertex 7.400000 12.600000 0.000000
    endloop
  endfacet
  facet normal 0.000000 0.000000 -1.000000
    outer loop
      vertex 5.870000 20.600000 0.000000
      vertex 10.500000 16.000000 0.000000
      vertex 5.870000 19.100000 0.000000
    endloop
  endfacet
  facet normal 0.000000 -0.000000 -1.000000
    outer loop
      vertex 7.400000 14.400000 0.000000
      vertex 5.870000 19.100000 0.000000
      vertex 10.500000 16.000000 0.000000
    endloop
  endfacet
  facet normal 0.000000 0.000000 -1.000000
    outer loop
      vertex 13.870000 19.100000 0.000000
      vertex 10.500000 16.000000 0.000000
      vertex 12.100000 19.100000 0.000000
    endloop
  endfacet
  facet normal 0.000000 0.000000 -1.000000
    outer loop
      vertex 7.400000 20.600000 0.000000
      vertex 10.500000 16.000000 0.000000
      vertex 5.870000 20.600000 0.000000
    endloop
  endfacet
  facet normal 0.000000 0.000000 -1.000000
    outer loop
      vertex 5.870000 23.900000 0.000000
      vertex 7.400000 22.400000 0.000000
      vertex 5.870000 22.400000 0.000000
    endloop
  endfacet
  facet normal 0.000000 -0.000000 -1.000000
    outer loop
      vertex 12.100000 23.900000 0.000000
      vertex 7.400000 22.400000 0.000000
      vertex 18.400000 27.000000 0.000000
    endloop
  endfacet
  facet normal 0.000000 0.000000 -1.000000
    outer loop
      vertex 4.100000 22.400000 0.000000
      vertex 0.000000 27.000000 0.000000
      vertex 4.100000 23.900000 0.000000
    endloop
  endfacet
  facet normal 0.000000 -0.000000 -1.000000
    outer loop
      vertex 7.400000 22.400000 0.000000
      vertex 5.870000 23.900000 0.000000
      vertex 18.400000 27.000000 0.000000
    endloop
  endfacet
  facet normal 0.000000 -0.000000 -1.000000
    outer loop
      vertex 10.500000 16.000000 0.000000
      vertex 7.400000 20.600000 0.000000
      vertex 10.600000 22.400000 0.000000
    endloop
  endfacet
  facet normal 0.000000 0.000000 -1.000000
    outer loop
      vertex 10.500000 16.000000 0.000000
      vertex 10.600000 22.400000 0.000000
      vertex 10.600000 20.600000 0.000000
    endloop
  endfacet
  facet normal 0.000000 -0.000000 -1.000000
    outer loop
      vertex 10.600000 22.400000 0.000000
      vertex 7.400000 20.600000 0.000000
      vertex 12.100000 23.900000 0.000000
    endloop
  endfacet
  facet normal 0.000000 0.000000 -1.000000
    outer loop
      vertex 10.500000 16.000000 0.000000
      vertex 10.600000 20.600000 0.000000
      vertex 12.100000 20.600000 0.000000
    endloop
  endfacet
  facet normal 0.000000 0.000000 -1.000000
    outer loop
      vertex 10.500000 16.000000 0.000000
      vertex 12.100000 20.600000 0.000000
      vertex 12.100000 19.100000 0.000000
    endloop
  endfacet
  facet normal 0.000000 0.000000 -1.000000
    outer loop
      vertex 4.100000 3.100000 0.000000
      vertex 2.600000 4.600000 0.000000
      vertex 4.100000 4.600000 0.000000
    endloop
  endfacet
  facet normal -0.000000 0.000000 -1.000000
    outer loop
      vertex 13.870000 22.400000 0.000000
      vertex 18.400000 27.000000 0.000000
      vertex 15.400000 22.400000 0.000000
    endloop
  endfacet
  facet normal 0.000000 0.000000 -1.000000
    outer loop
      vertex 15.400000 20.600000 0.000000
      vertex 13.870000 19.100000 0.000000
      vertex 13.870000 20.600000 0.000000
    endloop
  endfacet
  facet normal 0.000000 0.000000 -1.000000
    outer loop
      vertex 5.870000 3.100000 0.000000
      vertex 10.500000 0.000000 0.000000
      vertex 4.100000 3.100000 0.000000
    endloop
  endfacet
  facet normal -0.000000 0.000000 -1.000000
    outer loop
      vertex 13.870000 23.900000 0.000000
      vertex 18.400000 27.000000 0.000000
      vertex 13.870000 22.400000 0.000000
    endloop
  endfacet
  facet normal -0.000000 0.000000 -1.000000
    outer loop
      vertex 12.100000 23.900000 0.000000
      vertex 18.400000 27.000000 0.000000
      vertex 13.870000 23.900000 0.000000
    endloop
  endfacet
  facet normal 0.000000 -0.000000 -1.000000
    outer loop
      vertex 7.400000 20.600000 0.000000
      vertex 7.400000 22.400000 0.000000
      vertex 12.100000 23.900000 0.000000
    endloop
  endfacet
  facet normal 0.000000 0.000000 -1.000000
    outer loop
      vertex 12.100000 22.400000 0.000000
      vertex 10.600000 22.400000 0.000000
      vertex 12.100000 23.900000 0.000000
    endloop
  endfacet
  facet normal -0.000000 0.000000 -1.000000
    outer loop
      vertex 15.400000 20.600000 0.000000
      vertex 18.400000 27.000000 0.000000
      vertex 15.500000 16.000000 0.000000
    endloop
  endfacet
  facet normal -0.000000 0.000000 -1.000000
    outer loop
      vertex 13.870000 19.100000 0.000000
      vertex 15.400000 20.600000 0.000000
      vertex 15.500000 16.000000 0.000000
    endloop
  endfacet
  facet normal -0.000000 0.000000 -1.000000
    outer loop
      vertex 10.500000 16.000000 0.000000
      vertex 13.870000 19.100000 0.000000
      vertex 15.500000 16.000000 0.000000
    endloop
  endfacet
  facet normal 0.000000 1.000000 0.000000
    outer loop
      vertex 0.000000 27.000000 0.000000
      vertex 0.000000 27.000000 9.000000
      vertex 18.400000 27.000000 0.000000
    endloop
  endfacet
  facet normal 0.000000 1.000000 0.000000
    outer loop
      vertex 18.400000 27.000000 0.000000
      vertex 0.000000 27.000000 9.000000
      vertex 18.400000 27.000000 9.000000
    endloop
  endfacet
  facet normal 0.000000 -0.000000 1.000000
    outer loop
      vertex 4.100000 3.100000 9.000000
      vertex 0.000000 0.000000 9.000000
      vertex 10.500000 0.000000 9.000000
    endloop
  endfacet
  facet normal 0.000000 -0.000000 1.000000
    outer loop
      vertex 7.400000 22.400000 9.000000
      vertex 7.400000 20.600000 9.000000
      vertex 15.500000 16.000000 9.000000
    endloop
  endfacet
  facet normal -0.000000 0.000000 1.000000
    outer loop
      vertex 18.400000 0.000000 9.000000
      vertex 15.500000 16.000000 9.000000
      vertex 15.500000 0.000000 9.000000
    endloop
  endfacet
  facet normal 0.000000 0.000000 1.000000
    outer loop
      vertex 18.400000 27.000000 9.000000
      vertex 15.500000 16.000000 9.000000
      vertex 18.400000 0.000000 9.000000
    endloop
  endfacet
  facet normal 0.000000 0.000000 1.000000
    outer loop
      vertex 4.100000 3.100000 9.000000
      vertex 4.100000 4.600000 9.000000
      vertex 2.600000 4.600000 9.000000
    endloop
  endfacet
  facet normal 0.000000 -0.000000 1.000000
    outer loop
      vertex 0.000000 27.000000 9.000000
      vertex 0.000000 0.000000 9.000000
      vertex 2.600000 4.600000 9.000000
    endloop
  endfacet
  facet normal 0.000000 -0.000000 1.000000
    outer loop
      vertex 5.870000 3.100000 9.000000
      vertex 4.100000 3.100000 9.000000
      vertex 10.500000 0.000000 9.000000
    endloop
  endfacet
  facet normal 0.000000 0.000000 1.000000
    outer loop
      vertex 0.000000 27.000000 9.000000
      vertex 2.600000 4.600000 9.000000
      vertex 2.600000 6.400000 9.000000
    endloop
  endfacet
  facet normal 0.000000 -0.000000 1.000000
    outer loop
      vertex 5.870000 4.600000 9.000000
      vertex 5.870000 3.100000 9.000000
      vertex 10.500000 0.000000 9.000000
    endloop
  endfacet
  facet normal 0.000000 -0.000000 1.000000
    outer loop
      vertex 2.600000 12.600000 9.000000
      vertex 2.600000 6.400000 9.000000
      vertex 4.100000 6.400000 9.000000
    endloop
  endfacet
  facet normal 0.000000 0.000000 1.000000
    outer loop
      vertex 2.600000 14.400000 9.000000
      vertex 4.100000 14.400000 9.000000
      vertex 0.000000 27.000000 9.000000
    endloop
  endfacet
  facet normal 0.000000 -0.000000 1.000000
    outer loop
      vertex 4.100000 11.100000 9.000000
      vertex 4.100000 7.900000 9.000000
      vertex 5.870000 7.900000 9.000000
    endloop
  endfacet
  facet normal -0.000000 0.000000 1.000000
    outer loop
      vertex 4.100000 7.900000 9.000000
      vertex 2.600000 12.600000 9.000000
      vertex 4.100000 6.400000 9.000000
    endloop
  endfacet
  facet normal 0.000000 0.000000 1.000000
    outer loop
      vertex 5.870000 11.100000 9.000000
      vertex 7.400000 6.400000 9.000000
      vertex 10.500000 0.000000 9.000000
    endloop
  endfacet
  facet normal 0.000000 0.000000 1.000000
    outer loop
      vertex 12.100000 23.900000 9.000000
      vertex 13.870000 23.900000 9.000000
      vertex 18.400000 27.000000 9.000000
    endloop
  endfacet
  facet normal 0.000000 0.000000 1.000000
    outer loop
      vertex 2.600000 12.600000 9.000000
      vertex 2.600000 14.400000 9.000000
      vertex 0.000000 27.000000 9.000000
    endloop
  endfacet
  facet normal 0.000000 -0.000000 1.000000
    outer loop
      vertex 2.600000 4.600000 9.000000
      vertex 0.000000 0.000000 9.000000
      vertex 4.100000 3.100000 9.000000
    endloop
  endfacet
  facet normal 0.000000 0.000000 1.000000
    outer loop
      vertex 0.000000 27.000000 9.000000
      vertex 2.600000 6.400000 9.000000
      vertex 2.600000 12.600000 9.000000
    endloop
  endfacet
  facet normal 0.000000 0.000000 1.000000
    outer loop
      vertex 4.100000 15.900000 9.000000
      vertex 2.600000 20.600000 9.000000
      vertex 0.000000 27.000000 9.000000
    endloop
  endfacet
  facet normal 0.000000 0.000000 1.000000
    outer loop
      vertex 4.100000 20.600000 9.000000
      vertex 2.600000 20.600000 9.000000
      vertex 4.100000 19.100000 9.000000
    endloop
  endfacet
  facet normal 0.000000 -0.000000 1.000000
    outer loop
      vertex 7.400000 12.600000 9.000000
      vertex 5.870000 12.600000 9.000000
      vertex 10.500000 0.000000 9.000000
    endloop
  endfacet
  facet normal 0.000000 0.000000 1.000000
    outer loop
      vertex 4.100000 23.900000 9.000000
      vertex 5.870000 23.900000 9.000000
      vertex 0.000000 27.000000 9.000000
    endloop
  endfacet
  facet normal 0.000000 0.000000 1.000000
    outer loop
      vertex 10.500000 16.000000 9.000000
      vertex 7.400000 14.400000 9.000000
      vertex 10.500000 0.000000 9.000000
    endloop
  endfacet
  facet normal 0.000000 0.000000 1.000000
    outer loop
      vertex 10.500000 16.000000 9.000000
      vertex 5.870000 15.900000 9.000000
      vertex 7.400000 14.400000 9.000000
    endloop
  endfacet
  facet normal 0.000000 -0.000000 1.000000
    outer loop
      vertex 7.400000 14.400000 9.000000
      vertex 7.400000 12.600000 9.000000
      vertex 10.500000 0.000000 9.000000
    endloop
  endfacet
  facet normal 0.000000 0.000000 1.000000
    outer loop
      vertex 5.870000 14.400000 9.000000
      vertex 7.400000 14.400000 9.000000
      vertex 5.870000 15.900000 9.000000
    endloop
  endfacet
  facet normal 0.000000 0.000000 1.000000
    outer loop
      vertex 2.600000 20.600000 9.000000
      vertex 2.600000 22.400000 9.000000
      vertex 0.000000 27.000000 9.000000
    endloop
  endfacet
  facet normal 0.000000 -0.000000 1.000000
    outer loop
      vertex 5.870000 20.600000 9.000000
      vertex 5.870000 19.100000 9.000000
      vertex 10.500000 16.000000 9.000000
    endloop
  endfacet
  facet normal 0.000000 0.000000 1.000000
    outer loop
      vertex 4.100000 14.400000 9.000000
      vertex 4.100000 15.900000 9.000000
      vertex 0.000000 27.000000 9.000000
    endloop
  endfacet
  facet normal 0.000000 0.000000 1.000000
    outer loop
      vertex 4.100000 15.900000 9.000000
      vertex 4.100000 19.100000 9.000000
      vertex 2.600000 20.600000 9.000000
    endloop
  endfacet
  facet normal 0.000000 0.000000 1.000000
    outer loop
      vertex 5.870000 11.100000 9.000000
      vertex 4.100000 11.100000 9.000000
      vertex 5.870000 7.900000 9.000000
    endloop
  endfacet
  facet normal 0.000000 -0.000000 1.000000
    outer loop
      vertex 5.870000 11.100000 9.000000
      vertex 5.870000 7.900000 9.000000
      vertex 7.400000 6.400000 9.000000
    endloop
  endfacet
  facet normal 0.000000 -0.000000 1.000000
    outer loop
      vertex 7.400000 20.600000 9.000000
      vertex 5.870000 20.600000 9.000000
      vertex 10.500000 16.000000 9.000000
    endloop
  endfacet
  facet normal -0.000000 0.000000 1.000000
    outer loop
      vertex 4.100000 22.400000 9.000000
      vertex 0.000000 27.000000 9.000000
      vertex 2.600000 22.400000 9.000000
    endloop
  endfacet
  facet normal -0.000000 0.000000 1.000000
    outer loop
      vertex 12.100000 22.400000 9.000000
      vertex 12.100000 23.900000 9.000000
      vertex 10.600000 22.400000 9.000000
    endloop
  endfacet
  facet normal 0.000000 -0.000000 1.000000
    outer loop
      vertex 5.870000 23.900000 9.000000
      vertex 5.870000 22.400000 9.000000
      vertex 7.400000 22.400000 9.000000
    endloop
  endfacet
  facet normal -0.000000 -0.000000 1.000000
    outer loop
      vertex 12.100000 19.100000 9.000000
      vertex 5.870000 23.900000 9.000000
      vertex 15.500000 16.000000 9.000000
    endloop
  endfacet
  facet normal 0.000000 0.000000 1.000000
    outer loop
      vertex 18.400000 27.000000 9.000000
      vertex 0.000000 27.000000 9.000000
      vertex 5.870000 23.900000 9.000000
    endloop
  endfacet
  facet normal 0.000000 0.000000 1.000000
    outer loop
      vertex 5.870000 23.900000 9.000000
      vertex 7.400000 22.400000 9.000000
      vertex 15.500000 16.000000 9.000000
    endloop
  endfacet
  facet normal -0.000000 0.000000 1.000000
    outer loop
      vertex 15.500000 16.000000 9.000000
      vertex 7.400000 20.600000 9.000000
      vertex 10.500000 16.000000 9.000000
    endloop
  endfacet
  facet normal 0.000000 0.000000 1.000000
    outer loop
      vertex 5.870000 19.100000 9.000000
      vertex 4.100000 19.100000 9.000000
      vertex 5.870000 15.900000 9.000000
    endloop
  endfacet
  facet normal -0.000000 0.000000 1.000000
    outer loop
      vertex 10.500000 16.000000 9.000000
      vertex 5.870000 19.100000 9.000000
      vertex 5.870000 15.900000 9.000000
    endloop
  endfacet
  facet normal 0.000000 -0.000000 1.000000
    outer loop
      vertex 5.870000 12.600000 9.000000
      vertex 5.870000 11.100000 9.000000
      vertex 10.500000 0.000000 9.000000
    endloop
  endfacet
  facet normal 0.000000 0.000000 1.000000
    outer loop
      vertex 4.100000 22.400000 9.000000
      vertex 4.100000 23.900000 9.000000
      vertex 0.000000 27.000000 9.000000
    endloop
  endfacet
  facet normal 0.000000 0.000000 1.000000
    outer loop
      vertex 12.100000 19.100000 9.000000
      vertex 12.100000 20.600000 9.000000
      vertex 10.600000 20.600000 9.000000
    endloop
  endfacet
  facet normal -0.000000 0.000000 1.000000
    outer loop
      vertex 10.600000 22.400000 9.000000
      vertex 5.870000 23.900000 9.000000
      vertex 10.600000 20.600000 9.000000
    endloop
  endfacet
  facet normal 0.000000 0.000000 1.000000
    outer loop
      vertex 12.100000 23.900000 9.000000
      vertex 5.870000 23.900000 9.000000
      vertex 10.600000 22.400000 9.000000
    endloop
  endfacet
  facet normal 0.000000 -0.000000 1.000000
    outer loop
      vertex 15.400000 20.600000 9.000000
      vertex 13.870000 20.600000 9.000000
      vertex 15.500000 16.000000 9.000000
    endloop
  endfacet
  facet normal 0.000000 -0.000000 1.000000
    outer loop
      vertex 13.870000 23.900000 9.000000
      vertex 13.870000 22.400000 9.000000
      vertex 18.400000 27.000000 9.000000
    endloop
  endfacet
  facet normal 0.000000 0.000000 1.000000
    outer loop
      vertex 18.400000 27.000000 9.000000
      vertex 5.870000 23.900000 9.000000
      vertex 12.100000 23.900000 9.000000
    endloop
  endfacet
  facet normal 0.000000 -0.000000 1.000000
    outer loop
      vertex 13.870000 19.100000 9.000000
      vertex 12.100000 19.100000 9.000000
      vertex 15.500000 16.000000 9.000000
    endloop
  endfacet
  facet normal 0.000000 0.000000 1.000000
    outer loop
      vertex 18.400000 27.000000 9.000000
      vertex 15.400000 22.400000 9.000000
      vertex 15.500000 16.000000 9.000000
    endloop
  endfacet
  facet normal 0.000000 0.000000 1.000000
    outer loop
      vertex 18.400000 27.000000 9.000000
      vertex 13.870000 22.400000 9.000000
      vertex 15.400000 22.400000 9.000000
    endloop
  endfacet
  facet normal 0.000000 -0.000000 1.000000
    outer loop
      vertex 15.400000 22.400000 9.000000
      vertex 15.400000 20.600000 9.000000
      vertex 15.500000 16.000000 9.000000
    endloop
  endfacet
  facet normal 0.000000 -0.000000 1.000000
    outer loop
      vertex 13.870000 20.600000 9.000000
      vertex 13.870000 19.100000 9.000000
      vertex 15.500000 16.000000 9.000000
    endloop
  endfacet
  facet normal -0.000000 -0.000000 1.000000
    outer loop
      vertex 10.600000 20.600000 9.000000
      vertex 5.870000 23.900000 9.000000
      vertex 12.100000 19.100000 9.000000
    endloop
  endfacet
  facet normal 0.000000 -0.000000 1.000000
    outer loop
      vertex 7.400000 6.400000 9.000000
      vertex 7.400000 4.600000 9.000000
      vertex 10.500000 0.000000 9.000000
    endloop
  endfacet
  facet normal 0.000000 0.000000 1.000000
    outer loop
      vertex 5.870000 6.400000 9.000000
      vertex 7.400000 6.400000 9.000000
      vertex 5.870000 7.900000 9.000000
    endloop
  endfacet
  facet normal 0.000000 -0.000000 1.000000
    outer loop
      vertex 7.400000 4.600000 9.000000
      vertex 5.870000 4.600000 9.000000
      vertex 10.500000 0.000000 9.000000
    endloop
  endfacet
  facet normal -0.000000 0.000000 1.000000
    outer loop
      vertex 4.100000 11.100000 9.000000
      vertex 2.600000 12.600000 9.000000
      vertex 4.100000 7.900000 9.000000
    endloop
  endfacet
  facet normal 0.000000 0.000000 1.000000
    outer loop
      vertex 4.100000 12.600000 9.000000
      vertex 2.600000 12.600000 9.000000
      vertex 4.100000 11.100000 9.000000
    endloop
  endfacet
  facet normal 0.000000 0.000000 1.000000
    outer loop
      vertex 4.100000 15.900000 9.000000
      vertex 5.870000 15.900000 9.000000
      vertex 4.100000 19.100000 9.000000
    endloop
  endfacet
  facet normal 1.000000 0.000000 0.000000
    outer loop
      vertex 10.500000 16.000000 0.000000
      vertex 10.500000 16.000000 9.000000
      vertex 10.500000 0.000000 9.000000
    endloop
  endfacet
  facet normal 1.000000 0.000000 0.000000
    outer loop
      vertex 10.500000 0.000000 0.000000
      vertex 10.500000 16.000000 0.000000
      vertex 10.500000 0.000000 9.000000
    endloop
  endfacet
  facet normal 0.000000 -1.000000 0.000000
    outer loop
      vertex 15.500000 16.000000 0.000000
      vertex 15.500000 16.000000 9.000000
      vertex 10.500000 16.000000 9.000000
    endloop
  endfacet
  facet normal -0.000000 -1.000000 -0.000000
    outer loop
      vertex 10.500000 16.000000 0.000000
      vertex 15.500000 16.000000 0.000000
      vertex 10.500000 16.000000 9.000000
    endloop
  endfacet
  facet normal -1.000000 0.000000 0.000000
    outer loop
      vertex 15.500000 16.000000 9.000000
      vertex 15.500000 16.000000 0.000000
      vertex 15.500000 0.000000 9.000000
    endloop
  endfacet
  facet normal -1.000000 0.000000 0.000000
    outer loop
      vertex 15.500000 0.000000 9.000000
      vertex 15.500000 16.000000 0.000000
      vertex 15.500000 0.000000 0.000000
    endloop
  endfacet
  facet normal 0.000000 -1.000000 0.000000
    outer loop
      vertex 15.500000 0.000000 9.000000
      vertex 15.500000 0.000000 0.000000
      vertex 18.400000 0.000000 0.000000
    endloop
  endfacet
  facet normal 0.000000 -1.000000 0.000000
    outer loop
      vertex 18.400000 0.000000 9.000000
      vertex 15.500000 0.000000 9.000000
      vertex 18.400000 0.000000 0.000000
    endloop
  endfacet
  facet normal 1.000000 0.000000 -0.000000
    outer loop
      vertex 18.400000 0.000000 9.000000
      vertex 18.400000 0.000000 0.000000
      vertex 18.400000 27.000000 0.000000
    endloop
  endfacet
  facet normal 1.000000 0.000000 0.000000
    outer loop
      vertex 18.400000 27.000000 9.000000
      vertex 18.400000 0.000000 9.000000
      vertex 18.400000 27.000000 0.000000
    endloop
  endfacet
  facet normal 1.000000 0.000000 0.000000
    outer loop
      vertex 2.600000 6.400000 0.000000
      vertex 2.600000 6.400000 9.000000
      vertex 2.600000 4.600000 9.000000
    endloop
  endfacet
  facet normal 1.000000 0.000000 0.000000
    outer loop
      vertex 2.600000 4.600000 0.000000
      vertex 2.600000 6.400000 0.000000
      vertex 2.600000 4.600000 9.000000
    endloop
  endfacet
  facet normal 0.000000 -1.000000 0.000000
    outer loop
      vertex 4.100000 6.400000 0.000000
      vertex 4.100000 6.400000 9.000000
      vertex 2.600000 6.400000 9.000000
    endloop
  endfacet
  facet normal 0.000000 -1.000000 0.000000
    outer loop
      vertex 2.600000 6.400000 0.000000
      vertex 4.100000 6.400000 0.000000
      vertex 2.600000 6.400000 9.000000
    endloop
  endfacet
  facet normal 1.000000 0.000000 0.000000
    outer loop
      vertex 4.100000 7.900000 0.000000
      vertex 4.100000 7.900000 9.000000
      vertex 4.100000 6.400000 9.000000
    endloop
  endfacet
  facet normal 1.000000 0.000000 0.000000
    outer loop
      vertex 4.100000 6.400000 0.000000
      vertex 4.100000 7.900000 0.000000
      vertex 4.100000 6.400000 9.000000
    endloop
  endfacet
  facet normal 0.000000 -1.000000 0.000000
    outer loop
      vertex 5.870000 7.900000 0.000000
      vertex 5.870000 7.900000 9.000000
      vertex 4.100000 7.900000 9.000000
    endloop
  endfacet
  facet normal 0.000000 -1.000000 0.000000
    outer loop
      vertex 4.100000 7.900000 0.000000
      vertex 5.870000 7.900000 0.000000
      vertex 4.100000 7.900000 9.000000
    endloop
  endfacet
  facet normal -1.000000 0.000000 0.000000
    outer loop
      vertex 5.870000 7.900000 9.000000
      vertex 5.870000 7.900000 0.000000
      vertex 5.870000 6.400000 9.000000
    endloop
  endfacet
  facet normal -1.000000 0.000000 0.000000
    outer loop
      vertex 5.870000 6.400000 9.000000
      vertex 5.870000 7.900000 0.000000
      vertex 5.870000 6.400000 0.000000
    endloop
  endfacet
  facet normal 0.000000 -1.000000 0.000000
    outer loop
      vertex 7.400000 6.400000 0.000000
      vertex 7.400000 6.400000 9.000000
      vertex 5.870000 6.400000 9.000000
    endloop
  endfacet
  facet normal 0.000000 -1.000000 0.000000
    outer loop
      vertex 5.870000 6.400000 0.000000
      vertex 7.400000 6.400000 0.000000
      vertex 5.870000 6.400000 9.000000
    endloop
  endfacet
  facet normal -1.000000 0.000000 0.000000
    outer loop
      vertex 7.400000 6.400000 9.000000
      vertex 7.400000 6.400000 0.000000
      vertex 7.400000 4.600000 9.000000
    endloop
  endfacet
  facet normal -1.000000 0.000000 0.000000
    outer loop
      vertex 7.400000 4.600000 9.000000
      vertex 7.400000 6.400000 0.000000
      vertex 7.400000 4.600000 0.000000
    endloop
  endfacet
  facet normal 0.000000 1.000000 -0.000000
    outer loop
      vertex 7.400000 4.600000 9.000000
      vertex 7.400000 4.600000 0.000000
      vertex 5.870000 4.600000 9.000000
    endloop
  endfacet
  facet normal 0.000000 1.000000 -0.000000
    outer loop
      vertex 5.870000 4.600000 9.000000
      vertex 7.400000 4.600000 0.000000
      vertex 5.870000 4.600000 0.000000
    endloop
  endfacet
  facet normal -1.000000 0.000000 0.000000
    outer loop
      vertex 5.870000 4.600000 9.000000
      vertex 5.870000 4.600000 0.000000
      vertex 5.870000 3.100000 9.000000
    endloop
  endfacet
  facet normal -1.000000 0.000000 0.000000
    outer loop
      vertex 5.870000 3.100000 9.000000
      vertex 5.870000 4.600000 0.000000
      vertex 5.870000 3.100000 0.000000
    endloop
  endfacet
  facet normal 0.000000 1.000000 -0.000000
    outer loop
      vertex 5.870000 3.100000 9.000000
      vertex 5.870000 3.100000 0.000000
      vertex 4.100000 3.100000 9.000000
    endloop
  endfacet
  facet normal 0.000000 1.000000 -0.000000
    outer loop
      vertex 4.100000 3.100000 9.000000
      vertex 5.870000 3.100000 0.000000
      vertex 4.100000 3.100000 0.000000
    endloop
  endfacet
  facet normal 1.000000 0.000000 0.000000
    outer loop
      vertex 4.100000 4.600000 0.000000
      vertex 4.100000 4.600000 9.000000
      vertex 4.100000 3.100000 9.000000
    endloop
  endfacet
  facet normal 1.000000 0.000000 0.000000
    outer loop
      vertex 4.100000 3.100000 0.000000
      vertex 4.100000 4.600000 0.000000
      vertex 4.100000 3.100000 9.000000
    endloop
  endfacet
  facet normal 0.000000 1.000000 -0.000000
    outer loop
      vertex 4.100000 4.600000 9.000000
      vertex 4.100000 4.600000 0.000000
      vertex 2.600000 4.600000 9.000000
    endloop
  endfacet
  facet normal 0.000000 1.000000 -0.000000
    outer loop
      vertex 2.600000 4.600000 9.000000
      vertex 4.100000 4.600000 0.000000
      vertex 2.600000 4.600000 0.000000
    endloop
  endfacet
  facet normal 1.000000 0.000000 0.000000
    outer loop
      vertex 2.600000 14.400000 0.000000
      vertex 2.600000 14.400000 9.000000
      vertex 2.600000 12.600000 9.000000
    endloop
  endfacet
  facet normal 1.000000 0.000000 0.000000
    outer loop
      vertex 2.600000 12.600000 0.000000
      vertex 2.600000 14.400000 0.000000
      vertex 2.600000 12.600000 9.000000
    endloop
  endfacet
  facet normal 0.000000 -1.000000 0.000000
    outer loop
      vertex 4.100000 14.400000 0.000000
      vertex 4.100000 14.400000 9.000000
      vertex 2.600000 14.400000 9.000000
    endloop
  endfacet
  facet normal 0.000000 -1.000000 0.000000
    outer loop
      vertex 2.600000 14.400000 0.000000
      vertex 4.100000 14.400000 0.000000
      vertex 2.600000 14.400000 9.000000
    endloop
  endfacet
  facet normal 1.000000 0.000000 0.000000
    outer loop
      vertex 4.100000 15.900000 0.000000
      vertex 4.100000 15.900000 9.000000
      vertex 4.100000 14.400000 9.000000
    endloop
  endfacet
  facet normal 1.000000 0.000000 0.000000
    outer loop
      vertex 4.100000 14.400000 0.000000
      vertex 4.100000 15.900000 0.000000
      vertex 4.100000 14.400000 9.000000
    endloop
  endfacet
  facet normal 0.000000 -1.000000 0.000000
    outer loop
      vertex 5.870000 15.900000 0.000000
      vertex 5.870000 15.900000 9.000000
      vertex 4.100000 15.900000 9.000000
    endloop
  endfacet
  facet normal 0.000000 -1.000000 0.000000
    outer loop
      vertex 4.100000 15.900000 0.000000
      vertex 5.870000 15.900000 0.000000
      vertex 4.100000 15.900000 9.000000
    endloop
  endfacet
  facet normal -1.000000 0.000000 0.000000
    outer loop
      vertex 5.870000 15.900000 9.000000
      vertex 5.870000 15.900000 0.000000
      vertex 5.870000 14.400000 9.000000
    endloop
  endfacet
  facet normal -1.000000 0.000000 0.000000
    outer loop
      vertex 5.870000 14.400000 9.000000
      vertex 5.870000 15.900000 0.000000
      vertex 5.870000 14.400000 0.000000
    endloop
  endfacet
  facet normal 0.000000 -1.000000 0.000000
    outer loop
      vertex 7.400000 14.400000 0.000000
      vertex 7.400000 14.400000 9.000000
      vertex 5.870000 14.400000 9.000000
    endloop
  endfacet
  facet normal 0.000000 -1.000000 0.000000
    outer loop
      vertex 5.870000 14.400000 0.000000
      vertex 7.400000 14.400000 0.000000
      vertex 5.870000 14.400000 9.000000
    endloop
  endfacet
  facet normal -1.000000 0.000000 0.000000
    outer loop
      vertex 7.400000 14.400000 9.000000
      vertex 7.400000 14.400000 0.000000
      vertex 7.400000 12.600000 9.000000
    endloop
  endfacet
  facet normal -1.000000 0.000000 0.000000
    outer loop
      vertex 7.400000 12.600000 9.000000
      vertex 7.400000 14.400000 0.000000
      vertex 7.400000 12.600000 0.000000
    endloop
  endfacet
  facet normal 0.000000 1.000000 0.000000
    outer loop
      vertex 7.400000 12.600000 9.000000
      vertex 7.400000 12.600000 0.000000
      vertex 5.870000 12.600000 9.000000
    endloop
  endfacet
  facet normal 0.000000 1.000000 -0.000000
    outer loop
      vertex 5.870000 12.600000 9.000000
      vertex 7.400000 12.600000 0.000000
      vertex 5.870000 12.600000 0.000000
    endloop
  endfacet
  facet normal -1.000000 0.000000 0.000000
    outer loop
      vertex 5.870000 12.600000 9.000000
      vertex 5.870000 12.600000 0.000000
      vertex 5.870000 11.100000 9.000000
    endloop
  endfacet
  facet normal -1.000000 0.000000 0.000000
    outer loop
      vertex 5.870000 11.100000 9.000000
      vertex 5.870000 12.600000 0.000000
      vertex 5.870000 11.100000 0.000000
    endloop
  endfacet
  facet normal 0.000000 1.000000 0.000000
    outer loop
      vertex 5.870000 11.100000 9.000000
      vertex 5.870000 11.100000 0.000000
      vertex 4.100000 11.100000 9.000000
    endloop
  endfacet
  facet normal 0.000000 1.000000 -0.000000
    outer loop
      vertex 4.100000 11.100000 9.000000
      vertex 5.870000 11.100000 0.000000
      vertex 4.100000 11.100000 0.000000
    endloop
  endfacet
  facet normal 1.000000 0.000000 0.000000
    outer loop
      vertex 4.100000 12.600000 0.000000
      vertex 4.100000 12.600000 9.000000
      vertex 4.100000 11.100000 9.000000
    endloop
  endfacet
  facet normal 1.000000 0.000000 0.000000
    outer loop
      vertex 4.100000 11.100000 0.000000
      vertex 4.100000 12.600000 0.000000
      vertex 4.100000 11.100000 9.000000
    endloop
  endfacet
  facet normal 0.000000 1.000000 0.000000
    outer loop
      vertex 4.100000 12.600000 9.000000
      vertex 4.100000 12.600000 0.000000
      vertex 2.600000 12.600000 9.000000
    endloop
  endfacet
  facet normal 0.000000 1.000000 -0.000000
    outer loop
      vertex 2.600000 12.600000 9.000000
      vertex 4.100000 12.600000 0.000000
      vertex 2.600000 12.600000 0.000000
    endloop
  endfacet
  facet normal 1.000000 0.000000 0.000000
    outer loop
      vertex 2.600000 22.400000 0.000000
      vertex 2.600000 22.400000 9.000000
      vertex 2.600000 20.600000 9.000000
    endloop
  endfacet
  facet normal 1.000000 0.000000 0.000000
    outer loop
      vertex 2.600000 20.600000 0.000000
      vertex 2.600000 22.400000 0.000000
      vertex 2.600000 20.600000 9.000000
    endloop
  endfacet
  facet normal 0.000000 -1.000000 0.000000
    outer loop
      vertex 4.100000 22.400000 0.000000
      vertex 4.100000 22.400000 9.000000
      vertex 2.600000 22.400000 9.000000
    endloop
  endfacet
  facet normal -0.000000 -1.000000 -0.000000
    outer loop
      vertex 2.600000 22.400000 0.000000
      vertex 4.100000 22.400000 0.000000
      vertex 2.600000 22.400000 9.000000
    endloop
  endfacet
  facet normal 1.000000 0.000000 0.000000
    outer loop
      vertex 4.100000 23.900000 0.000000
      vertex 4.100000 23.900000 9.000000
      vertex 4.100000 22.400000 9.000000
    endloop
  endfacet
  facet normal 1.000000 0.000000 0.000000
    outer loop
      vertex 4.100000 22.400000 0.000000
      vertex 4.100000 23.900000 0.000000
      vertex 4.100000 22.400000 9.000000
    endloop
  endfacet
  facet normal 0.000000 -1.000000 0.000000
    outer loop
      vertex 5.870000 23.900000 0.000000
      vertex 5.870000 23.900000 9.000000
      vertex 4.100000 23.900000 9.000000
    endloop
  endfacet
  facet normal -0.000000 -1.000000 -0.000000
    outer loop
      vertex 4.100000 23.900000 0.000000
      vertex 5.870000 23.900000 0.000000
      vertex 4.100000 23.900000 9.000000
    endloop
  endfacet
  facet normal -1.000000 0.000000 0.000000
    outer loop
      vertex 5.870000 23.900000 9.000000
      vertex 5.870000 23.900000 0.000000
      vertex 5.870000 22.400000 9.000000
    endloop
  endfacet
  facet normal -1.000000 0.000000 0.000000
    outer loop
      vertex 5.870000 22.400000 9.000000
      vertex 5.870000 23.900000 0.000000
      vertex 5.870000 22.400000 0.000000
    endloop
  endfacet
  facet normal 0.000000 -1.000000 0.000000
    outer loop
      vertex 7.400000 22.400000 0.000000
      vertex 7.400000 22.400000 9.000000
      vertex 5.870000 22.400000 9.000000
    endloop
  endfacet
  facet normal -0.000000 -1.000000 -0.000000
    outer loop
      vertex 5.870000 22.400000 0.000000
      vertex 7.400000 22.400000 0.000000
      vertex 5.870000 22.400000 9.000000
    endloop
  endfacet
  facet normal -1.000000 0.000000 0.000000
    outer loop
      vertex 7.400000 22.400000 9.000000
      vertex 7.400000 22.400000 0.000000
      vertex 7.400000 20.600000 9.000000
    endloop
  endfacet
  facet normal -1.000000 0.000000 0.000000
    outer loop
      vertex 7.400000 20.600000 9.000000
      vertex 7.400000 22.400000 0.000000
      vertex 7.400000 20.600000 0.000000
    endloop
  endfacet
  facet normal 0.000000 1.000000 0.000000
    outer loop
      vertex 7.400000 20.600000 9.000000
      vertex 7.400000 20.600000 0.000000
      vertex 5.870000 20.600000 9.000000
    endloop
  endfacet
  facet normal 0.000000 1.000000 -0.000000
    outer loop
      vertex 5.870000 20.600000 9.000000
      vertex 7.400000 20.600000 0.000000
      vertex 5.870000 20.600000 0.000000
    endloop
  endfacet
  facet normal -1.000000 0.000000 0.000000
    outer loop
      vertex 5.870000 20.600000 9.000000
      vertex 5.870000 20.600000 0.000000
      vertex 5.870000 19.100000 9.000000
    endloop
  endfacet
  facet normal -1.000000 0.000000 0.000000
    outer loop
      vertex 5.870000 19.100000 9.000000
      vertex 5.870000 20.600000 0.000000
      vertex 5.870000 19.100000 0.000000
    endloop
  endfacet
  facet normal 0.000000 1.000000 0.000000
    outer loop
      vertex 5.870000 19.100000 9.000000
      vertex 5.870000 19.100000 0.000000
      vertex 4.100000 19.100000 9.000000
    endloop
  endfacet
  facet normal 0.000000 1.000000 -0.000000
    outer loop
      vertex 4.100000 19.100000 9.000000
      vertex 5.870000 19.100000 0.000000
      vertex 4.100000 19.100000 0.000000
    endloop
  endfacet
  facet normal 1.000000 0.000000 0.000000
    outer loop
      vertex 4.100000 20.600000 0.000000
      vertex 4.100000 20.600000 9.000000
      vertex 4.100000 19.100000 9.000000
    endloop
  endfacet
  facet normal 1.000000 0.000000 0.000000
    outer loop
      vertex 4.100000 19.100000 0.000000
      vertex 4.100000 20.600000 0.000000
      vertex 4.100000 19.100000 9.000000
    endloop
  endfacet
  facet normal 0.000000 1.000000 0.000000
    outer loop
      vertex 4.100000 20.600000 9.000000
      vertex 4.100000 20.600000 0.000000
      vertex 2.600000 20.600000 9.000000
    endloop
  endfacet
  facet normal 0.000000 1.000000 -0.000000
    outer loop
      vertex 2.600000 20.600000 9.000000
      vertex 4.100000 20.600000 0.000000
      vertex 2.600000 20.600000 0.000000
    endloop
  endfacet
  facet normal 1.000000 0.000000 0.000000
    outer loop
      vertex 10.600000 22.400000 0.000000
      vertex 10.600000 22.400000 9.000000
      vertex 10.600000 20.600000 9.000000
    endloop
  endfacet
  facet normal 1.000000 0.000000 0.000000
    outer loop
      vertex 10.600000 20.600000 0.000000
      vertex 10.600000 22.400000 0.000000
      vertex 10.600000 20.600000 9.000000
    endloop
  endfacet
  facet normal 0.000000 -1.000000 0.000000
    outer loop
      vertex 12.100000 22.400000 0.000000
      vertex 12.100000 22.400000 9.000000
      vertex 10.600000 22.400000 9.000000
    endloop
  endfacet
  facet normal -0.000000 -1.000000 -0.000000
    outer loop
      vertex 10.600000 22.400000 0.000000
      vertex 12.100000 22.400000 0.000000
      vertex 10.600000 22.400000 9.000000
    endloop
  endfacet
  facet normal 1.000000 0.000000 0.000000
    outer loop
      vertex 12.100000 23.900000 0.000000
      vertex 12.100000 23.900000 9.000000
      vertex 12.100000 22.400000 9.000000
    endloop
  endfacet
  facet normal 1.000000 0.000000 0.000000
    outer loop
      vertex 12.100000 22.400000 0.000000
      vertex 12.100000 23.900000 0.000000
      vertex 12.100000 22.400000 9.000000
    endloop
  endfacet
  facet normal 0.000000 -1.000000 0.000000
    outer loop
      vertex 13.870000 23.900000 0.000000
      vertex 13.870000 23.900000 9.000000
      vertex 12.100000 23.900000 9.000000
    endloop
  endfacet
  facet normal -0.000000 -1.000000 -0.000000
    outer loop
      vertex 12.100000 23.900000 0.000000
      vertex 13.870000 23.900000 0.000000
      vertex 12.100000 23.900000 9.000000
    endloop
  endfacet
  facet normal -1.000000 0.000000 0.000000
    outer loop
      vertex 13.870000 23.900000 9.000000
      vertex 13.870000 23.900000 0.000000
      vertex 13.870000 22.400000 9.000000
    endloop
  endfacet
  facet normal -1.000000 0.000000 0.000000
    outer loop
      vertex 13.870000 22.400000 9.000000
      vertex 13.870000 23.900000 0.000000
      vertex 13.870000 22.400000 0.000000
    endloop
  endfacet
  facet normal 0.000000 -1.000000 0.000000
    outer loop
      vertex 15.400000 22.400000 0.000000
      vertex 15.400000 22.400000 9.000000
      vertex 13.870000 22.400000 9.000000
    endloop
  endfacet
  facet normal -0.000000 -1.000000 -0.000000
    outer loop
      vertex 13.870000 22.400000 0.000000
      vertex 15.400000 22.400000 0.000000
      vertex 13.870000 22.400000 9.000000
    endloop
  endfacet
  facet normal -1.000000 0.000000 0.000000
    outer loop
      vertex 15.400000 22.400000 9.000000
      vertex 15.400000 22.400000 0.000000
      vertex 15.400000 20.600000 9.000000
    endloop
  endfacet
  facet normal -1.000000 0.000000 0.000000
    outer loop
      vertex 15.400000 20.600000 9.000000
      vertex 15.400000 22.400000 0.000000
      vertex 15.400000 20.600000 0.000000
    endloop
  endfacet
  facet normal 0.000000 1.000000 0.000000
    outer loop
      vertex 15.400000 20.600000 9.000000
      vertex 15.400000 20.600000 0.000000
      vertex 13.870000 20.600000 9.000000
    endloop
  endfacet
  facet normal 0.000000 1.000000 -0.000000
    outer loop
      vertex 13.870000 20.600000 9.000000
      vertex 15.400000 20.600000 0.000000
      vertex 13.870000 20.600000 0.000000
    endloop
  endfacet
  facet normal -1.000000 0.000000 0.000000
    outer loop
      vertex 13.870000 20.600000 9.000000
      vertex 13.870000 20.600000 0.000000
      vertex 13.870000 19.100000 9.000000
    endloop
  endfacet
  facet normal -1.000000 0.000000 0.000000
    outer loop
      vertex 13.870000 19.100000 9.000000
      vertex 13.870000 20.600000 0.000000
      vertex 13.870000 19.100000 0.000000
    endloop
  endfacet
  facet normal 0.000000 1.000000 0.000000
    outer loop
      vertex 13.870000 19.100000 9.000000
      vertex 13.870000 19.100000 0.000000
      vertex 12.100000 19.100000 9.000000
    endloop
  endfacet
  facet normal 0.000000 1.000000 -0.000000
    outer loop
      vertex 12.100000 19.100000 9.000000
      vertex 13.870000 19.100000 0.000000
      vertex 12.100000 19.100000 0.000000
    endloop
  endfacet
  facet normal 1.000000 0.000000 0.000000
    outer loop
      vertex 12.100000 20.600000 0.000000
      vertex 12.100000 20.600000 9.000000
      vertex 12.100000 19.100000 9.000000
    endloop
  endfacet
  facet normal 1.000000 0.000000 0.000000
    outer loop
      vertex 12.100000 19.100000 0.000000
      vertex 12.100000 20.600000 0.000000
      vertex 12.100000 19.100000 9.000000
    endloop
  endfacet
  facet normal 0.000000 1.000000 0.000000
    outer loop
      vertex 12.100000 20.600000 9.000000
      vertex 12.100000 20.600000 0.000000
      vertex 10.600000 20.600000 9.000000
    endloop
  endfacet
  facet normal 0.000000 1.000000 -0.000000
    outer loop
      vertex 10.600000 20.600000 9.000000
      vertex 12.100000 20.600000 0.000000
      vertex 10.600000 20.600000 0.000000
    endloop
  endfacet
endsolid OpenSCAD_Model
